{
copyright = "Copyright 2015 The Hoogli Authors";
customParameters = (
{
name = fsType;
value = (
);
},
{
name = license;
value = "This Font Software is licensed under the SIL Open Font License, Version 1.1. This license is available with a FAQ at: http://scripts.sil.org/OFL";
},
{
name = licenseURL;
value = "http://scripts.sil.org/OFL";
},
{
name = vendorID;
value = BRNT;
}
);
date = "2016-03-15 10:13:38 +0000";
designer = "Anand Singh Naorem";
designerURL = www.brandnewtype.com;
familyName = "Hoogli";
fontMaster = (
{
ascender = 800;
capHeight = 700;
descender = -200;
guideLines = (
{
locked = 1;
position = "{-56, 587}";
},
{
locked = 1;
position = "{-28, 554}";
},
{
locked = 1;
position = "{649, -12}";
},
{
locked = 1;
position = "{458, -140}";
},
{
locked = 1;
position = "{400, -82}";
},
{
locked = 1;
position = "{584, -120}";
}
);
id = "F2EBC5D5-DDE2-4851-B52F-F2293ECE9CC7";
userData = {
GSCornerRadius = 55;
GSOffsetHorizontal = 25;
GSOffsetMakeStroke = 1;
GSOffsetVertical = 20;
};
visible = 1;
weight = Light;
weightValue = 0;
xHeight = 500;
},
{
ascender = 800;
capHeight = 700;
descender = -200;
guideLines = (
{
locked = 1;
position = "{-109, 587}";
},
{
locked = 1;
position = "{-84, 502}";
},
{
locked = 1;
position = "{650, -11}";
},
{
locked = 1;
position = "{504, -140}";
},
{
locked = 1;
position = "{419, -82}";
}
);
id = "A309AC34-D742-49E2-8DE7-30304959F2B2";
userData = {
GSCornerRadius = 55;
};
weight = Bold;
xHeight = 500;
}
);
glyphs = (
{
glyphname = A;
lastChange = "2016-02-11 05:39:18 +0000";
layers = (
{
layerId = "F2EBC5D5-DDE2-4851-B52F-F2293ECE9CC7";
name = Light;
paths = (
{
closed = 1;
nodes = (
"304 507 CURVE SMOOTH",
"236 354 OFFCURVE",
"141 140 OFFCURVE",
"97 15 CURVE SMOOTH",
"92 2 OFFCURVE",
"77 -5 OFFCURVE",
"65 -1 CURVE SMOOTH",
"52 4 OFFCURVE",
"45 19 OFFCURVE",
"49 31 CURVE SMOOTH",
"95 158 OFFCURVE",
"190 374 OFFCURVE",
"258 527 CURVE SMOOTH",
"264 539 OFFCURVE",
"279 545 OFFCURVE",
"291 540 CURVE SMOOTH",
"303 534 OFFCURVE",
"309 519 OFFCURVE"
);
},
{
closed = 1;
nodes = (
"310 528 CURVE SMOOTH",
"382 373 OFFCURVE",
"480 155 OFFCURVE",
"528 32 CURVE SMOOTH",
"533 20 OFFCURVE",
"527 5 OFFCURVE",
"514 0 CURVE SMOOTH",
"502 -5 OFFCURVE",
"487 1 OFFCURVE",
"482 14 CURVE SMOOTH",
"434 137 OFFCURVE",
"336 353 OFFCURVE",
"264 506 CURVE SMOOTH",
"259 519 OFFCURVE",
"264 534 OFFCURVE",
"276 540 CURVE SMOOTH",
"289 545 OFFCURVE",
"304 540 OFFCURVE"
);
},
{
closed = 1;
nodes = (
"142 193 CURVE SMOOTH",
"433 193 LINE SMOOTH",
"447 193 OFFCURVE",
"458 182 OFFCURVE",
"458 168 CURVE SMOOTH",
"458 155 OFFCURVE",
"447 143 OFFCURVE",
"433 143 CURVE SMOOTH",
"142 143 LINE SMOOTH",
"129 143 OFFCURVE",
"117 155 OFFCURVE",
"117 168 CURVE SMOOTH",
"117 182 OFFCURVE",
"129 193 OFFCURVE"
);
}
);
width = 580;
},
{
layerId = "A309AC34-D742-49E2-8DE7-30304959F2B2";
name = Bold;
width = 600;
}
);
unicode = 0041;
},
{
glyphname = B;
lastChange = "2016-02-11 05:39:55 +0000";
layers = (
{
layerId = "F2EBC5D5-DDE2-4851-B52F-F2293ECE9CC7";
name = Light;
paths = (
{
closed = 1;
nodes = (
"132 308 CURVE SMOOTH",
"281 308 LINE SMOOTH",
"341 308 OFFCURVE",
"394 287 OFFCURVE",
"426 255 CURVE SMOOTH",
"456 225 OFFCURVE",
"470 190 OFFCURVE",
"470 150 CURVE SMOOTH",
"470 114 OFFCURVE",
"457 77 OFFCURVE",
"429 49 CURVE SMOOTH",
"399 20 OFFCURVE",
"354 -2 OFFCURVE",
"278 -2 CURVE SMOOTH",
"123 -2 LINE SMOOTH",
"109 -2 OFFCURVE",
"98 9 OFFCURVE",
"98 23 CURVE SMOOTH",
"98 508 LINE SMOOTH",
"98 522 OFFCURVE",
"109 533 OFFCURVE",
"123 533 CURVE SMOOTH",
"262 533 LINE SMOOTH",
"321 533 OFFCURVE",
"360 513 OFFCURVE",
"385 489 CURVE SMOOTH",
"407 466 OFFCURVE",
"422 429 OFFCURVE",
"422 397 CURVE SMOOTH",
"422 361 OFFCURVE",
"407 327 OFFCURVE",
"385 304 CURVE SMOOTH",
"364 283 OFFCURVE",
"323 262 OFFCURVE",
"275 258 CURVE SMOOTH",
"261 257 OFFCURVE",
"249 268 OFFCURVE",
"248 281 CURVE SMOOTH",
"247 295 OFFCURVE",
"258 307 OFFCURVE",
"271 308 CURVE SMOOTH",
"305 310 OFFCURVE",
"334 325 OFFCURVE",
"349 340 CURVE SMOOTH",
"363 353 OFFCURVE",
"372 375 OFFCURVE",
"372 397 CURVE SMOOTH",
"372 417 OFFCURVE",
"363 440 OFFCURVE",
"349 453 CURVE SMOOTH",
"332 471 OFFCURVE",
"303 483 OFFCURVE",
"262 483 CURVE SMOOTH",
"123 483 LINE",
"148 508 LINE",
"148 23 LINE",
"123 48 LINE",
"278 48 LINE SMOOTH",
"336 48 OFFCURVE",
"371 62 OFFCURVE",
"393 85 CURVE SMOOTH",
"411 103 OFFCURVE",
"420 126 OFFCURVE",
"420 150 CURVE SMOOTH",
"420 176 OFFCURVE",
"410 199 OFFCURVE",
"390 219 CURVE SMOOTH",
"366 243 OFFCURVE",
"325 258 OFFCURVE",
"281 258 CURVE SMOOTH",
"132 258 LINE SMOOTH",
"119 258 OFFCURVE",
"107 270 OFFCURVE",
"107 283 CURVE SMOOTH",
"107 297 OFFCURVE",
"119 308 OFFCURVE"
);
}
);
width = 528;
},
{
layerId = "A309AC34-D742-49E2-8DE7-30304959F2B2";
name = Bold;
width = 600;
}
);
unicode = 0042;
},
{
glyphname = C;
lastChange = "2016-02-11 05:40:12 +0000";
layers = (
{
layerId = "F2EBC5D5-DDE2-4851-B52F-F2293ECE9CC7";
name = Light;
paths = (
{
closed = 1;
nodes = (
"458 466 CURVE SMOOTH",
"428 482 OFFCURVE",
"382 492 OFFCURVE",
"334 492 CURVE SMOOTH",
"214 492 OFFCURVE",
"111 400 OFFCURVE",
"111 262 CURVE SMOOTH",
"111 136 OFFCURVE",
"195 39 OFFCURVE",
"340 39 CURVE SMOOTH",
"388 39 OFFCURVE",
"430 49 OFFCURVE",
"464 66 CURVE SMOOTH",
"476 72 OFFCURVE",
"491 67 OFFCURVE",
"497 55 CURVE SMOOTH",
"503 43 OFFCURVE",
"498 28 OFFCURVE",
"486 22 CURVE SMOOTH",
"446 1 OFFCURVE",
"396 -11 OFFCURVE",
"340 -11 CURVE SMOOTH",
"163 -11 OFFCURVE",
"61 108 OFFCURVE",
"61 262 CURVE",
"61 430 OFFCURVE",
"188 542 OFFCURVE",
"334 542 CURVE SMOOTH",
"392 542 OFFCURVE",
"446 530 OFFCURVE",
"482 510 CURVE SMOOTH",
"494 503 OFFCURVE",
"498 488 OFFCURVE",
"492 476 CURVE SMOOTH",
"485 464 OFFCURVE",
"470 460 OFFCURVE"
);
}
);
width = 566;
},
{
layerId = "A309AC34-D742-49E2-8DE7-30304959F2B2";
name = Bold;
width = 600;
}
);
unicode = 0043;
},
{
glyphname = D;
lastChange = "2016-02-11 05:40:44 +0000";
layers = (
{
layerId = "F2EBC5D5-DDE2-4851-B52F-F2293ECE9CC7";
name = Light;
paths = (
{
closed = 1;
nodes = (
"299 -2 CURVE SMOOTH",
"123 -2 LINE SMOOTH",
"109 -2 OFFCURVE",
"98 9 OFFCURVE",
"98 23 CURVE SMOOTH",
"98 508 LINE SMOOTH",
"98 522 OFFCURVE",
"109 533 OFFCURVE",
"123 533 CURVE SMOOTH",
"299 533 LINE SMOOTH",
"431 533 OFFCURVE",
"551 424 OFFCURVE",
"551 266 CURVE SMOOTH",
"551 116 OFFCURVE",
"451 -2 OFFCURVE"
);
},
{
closed = 1;
nodes = (
"299 48 LINE SMOOTH",
"423 48 OFFCURVE",
"501 146 OFFCURVE",
"501 266 CURVE SMOOTH",
"501 392 OFFCURVE",
"407 483 OFFCURVE",
"299 483 CURVE SMOOTH",
"123 483 LINE",
"148 508 LINE",
"148 23 LINE",
"123 48 LINE"
);
}
);
width = 612;
},
{
layerId = "A309AC34-D742-49E2-8DE7-30304959F2B2";
name = Bold;
width = 600;
}
);
unicode = 0044;
},
{
glyphname = E;
lastChange = "2016-02-11 05:41:08 +0000";
layers = (
{
layerId = "F2EBC5D5-DDE2-4851-B52F-F2293ECE9CC7";
name = Light;
paths = (
{
closed = 1;
nodes = (
"148 508 CURVE SMOOTH",
"148 23 LINE SMOOTH",
"148 9 OFFCURVE",
"137 -2 OFFCURVE",
"123 -2 CURVE SMOOTH",
"110 -2 OFFCURVE",
"98 10 OFFCURVE",
"98 23 CURVE SMOOTH",
"98 508 LINE SMOOTH",
"98 522 OFFCURVE",
"110 533 OFFCURVE",
"123 533 CURVE SMOOTH",
"137 533 OFFCURVE",
"148 522 OFFCURVE"
);
},
{
closed = 1;
nodes = (
"131 48 CURVE SMOOTH",
"402 48 LINE SMOOTH",
"416 48 OFFCURVE",
"427 37 OFFCURVE",
"427 23 CURVE SMOOTH",
"427 10 OFFCURVE",
"416 -2 OFFCURVE",
"402 -2 CURVE SMOOTH",
"131 -2 LINE SMOOTH",
"118 -2 OFFCURVE",
"106 10 OFFCURVE",
"106 23 CURVE SMOOTH",
"106 37 OFFCURVE",
"118 48 OFFCURVE"
);
},
{
closed = 1;
nodes = (
"131 533 CURVE SMOOTH",
"400 533 LINE SMOOTH",
"414 533 OFFCURVE",
"425 522 OFFCURVE",
"425 508 CURVE SMOOTH",
"425 495 OFFCURVE",
"414 483 OFFCURVE",
"400 483 CURVE SMOOTH",
"131 483 LINE SMOOTH",
"118 483 OFFCURVE",
"106 495 OFFCURVE",
"106 508 CURVE SMOOTH",
"106 522 OFFCURVE",
"118 533 OFFCURVE"
);
},
{
closed = 1;
nodes = (
"131 309 CURVE SMOOTH",
"357 309 LINE SMOOTH",
"371 309 OFFCURVE",
"382 298 OFFCURVE",
"382 284 CURVE SMOOTH",
"382 271 OFFCURVE",
"371 259 OFFCURVE",
"357 259 CURVE SMOOTH",
"131 259 LINE SMOOTH",
"118 259 OFFCURVE",
"106 271 OFFCURVE",
"106 284 CURVE SMOOTH",
"106 298 OFFCURVE",
"118 309 OFFCURVE"
);
}
);
width = 487;
},
{
layerId = "A309AC34-D742-49E2-8DE7-30304959F2B2";
name = Bold;
width = 600;
}
);
unicode = 0045;
},
{
glyphname = F;
lastChange = "2016-02-11 05:41:41 +0000";
layers = (
{
layerId = "F2EBC5D5-DDE2-4851-B52F-F2293ECE9CC7";
name = Light;
paths = (
{
closed = 1;
nodes = (
"148 508 CURVE SMOOTH",
"148 23 LINE SMOOTH",
"148 9 OFFCURVE",
"137 -2 OFFCURVE",
"123 -2 CURVE SMOOTH",
"110 -2 OFFCURVE",
"98 10 OFFCURVE",
"98 23 CURVE SMOOTH",
"98 508 LINE SMOOTH",
"98 522 OFFCURVE",
"110 533 OFFCURVE",
"123 533 CURVE SMOOTH",
"137 533 OFFCURVE",
"148 522 OFFCURVE"
);
},
{
closed = 1;
nodes = (
"131 533 CURVE SMOOTH",
"408 533 LINE SMOOTH",
"422 533 OFFCURVE",
"433 522 OFFCURVE",
"433 508 CURVE SMOOTH",
"433 495 OFFCURVE",
"422 483 OFFCURVE",
"408 483 CURVE SMOOTH",
"131 483 LINE SMOOTH",
"118 483 OFFCURVE",
"106 495 OFFCURVE",
"106 508 CURVE SMOOTH",
"106 522 OFFCURVE",
"118 533 OFFCURVE"
);
},
{
closed = 1;
nodes = (
"131 290 CURVE SMOOTH",
"357 290 LINE SMOOTH",
"371 290 OFFCURVE",
"382 279 OFFCURVE",
"382 265 CURVE SMOOTH",
"382 252 OFFCURVE",
"371 240 OFFCURVE",
"357 240 CURVE SMOOTH",
"131 240 LINE SMOOTH",
"118 240 OFFCURVE",
"106 252 OFFCURVE",
"106 265 CURVE SMOOTH",
"106 279 OFFCURVE",
"118 290 OFFCURVE"
);
}
);
width = 475;
},
{
layerId = "A309AC34-D742-49E2-8DE7-30304959F2B2";
name = Bold;
width = 600;
}
);
unicode = 0046;
},
{
glyphname = G;
lastChange = "2016-02-11 05:42:03 +0000";
layers = (
{
layerId = "F2EBC5D5-DDE2-4851-B52F-F2293ECE9CC7";
name = Light;
paths = (
{
closed = 1;
nodes = (
"472 467 CURVE SMOOTH",
"433 482 OFFCURVE",
"388 492 OFFCURVE",
"335 492 CURVE SMOOTH",
"205 492 OFFCURVE",
"111 400 OFFCURVE",
"111 262 CURVE SMOOTH",
"111 138 OFFCURVE",
"192 39 OFFCURVE",
"332 39 CURVE SMOOTH",
"403 39 OFFCURVE",
"455 57 OFFCURVE",
"498 84 CURVE SMOOTH",
"509 91 OFFCURVE",
"525 88 OFFCURVE",
"532 76 CURVE SMOOTH",
"539 65 OFFCURVE",
"536 49 OFFCURVE",
"524 42 CURVE SMOOTH",
"475 11 OFFCURVE",
"415 -11 OFFCURVE",
"332 -11 CURVE SMOOTH",
"160 -11 OFFCURVE",
"61 110 OFFCURVE",
"61 262 CURVE",
"61 430 OFFCURVE",
"177 542 OFFCURVE",
"335 542 CURVE SMOOTH",
"394 542 OFFCURVE",
"445 530 OFFCURVE",
"490 513 CURVE SMOOTH",
"503 509 OFFCURVE",
"509 494 OFFCURVE",
"504 481 CURVE SMOOTH",
"500 468 OFFCURVE",
"485 462 OFFCURVE"
);
},
{
closed = 1;
nodes = (
"487 73 CURVE SMOOTH",
"487 247 LINE SMOOTH",
"487 261 OFFCURVE",
"499 272 OFFCURVE",
"512 272 CURVE SMOOTH",
"526 272 OFFCURVE",
"537 261 OFFCURVE",
"537 247 CURVE SMOOTH",
"537 73 LINE SMOOTH",
"537 60 OFFCURVE",
"526 48 OFFCURVE",
"512 48 CURVE SMOOTH",
"499 48 OFFCURVE",
"487 60 OFFCURVE"
);
},
{
closed = 1;
nodes = (
"501 222 CURVE SMOOTH",
"348 222 LINE SMOOTH",
"335 222 OFFCURVE",
"323 234 OFFCURVE",
"323 247 CURVE SMOOTH",
"323 261 OFFCURVE",
"335 272 OFFCURVE",
"348 272 CURVE SMOOTH",
"501 272 LINE SMOOTH",
"515 272 OFFCURVE",
"526 261 OFFCURVE",
"526 247 CURVE SMOOTH",
"526 234 OFFCURVE",
"515 222 OFFCURVE"
);
}
);
width = 618;
},
{
layerId = "A309AC34-D742-49E2-8DE7-30304959F2B2";
name = Bold;
width = 600;
}
);
unicode = 0047;
},
{
glyphname = H;
lastChange = "2016-02-11 05:42:16 +0000";
layers = (
{
layerId = "F2EBC5D5-DDE2-4851-B52F-F2293ECE9CC7";
name = Light;
paths = (
{
closed = 1;
nodes = (
"148 508 CURVE SMOOTH",
"148 23 LINE SMOOTH",
"148 9 OFFCURVE",
"137 -2 OFFCURVE",
"123 -2 CURVE SMOOTH",
"110 -2 OFFCURVE",
"98 10 OFFCURVE",
"98 23 CURVE SMOOTH",
"98 508 LINE SMOOTH",
"98 522 OFFCURVE",
"110 533 OFFCURVE",
"123 533 CURVE SMOOTH",
"137 533 OFFCURVE",
"148 522 OFFCURVE"
);
},
{
closed = 1;
nodes = (
"533 508 CURVE SMOOTH",
"533 23 LINE SMOOTH",
"533 9 OFFCURVE",
"522 -2 OFFCURVE",
"508 -2 CURVE SMOOTH",
"495 -2 OFFCURVE",
"483 10 OFFCURVE",
"483 23 CURVE SMOOTH",
"483 508 LINE SMOOTH",
"483 522 OFFCURVE",
"495 533 OFFCURVE",
"508 533 CURVE SMOOTH",
"522 533 OFFCURVE",
"533 522 OFFCURVE"
);
},
{
closed = 1;
nodes = (
"127 308 CURVE SMOOTH",
"507 308 LINE SMOOTH",
"521 308 OFFCURVE",
"532 297 OFFCURVE",
"532 283 CURVE SMOOTH",
"532 270 OFFCURVE",
"521 258 OFFCURVE",
"507 258 CURVE SMOOTH",
"127 258 LINE SMOOTH",
"114 258 OFFCURVE",
"102 270 OFFCURVE",
"102 283 CURVE SMOOTH",
"102 297 OFFCURVE",
"114 308 OFFCURVE"
);
}
);
width = 631;
},
{
layerId = "A309AC34-D742-49E2-8DE7-30304959F2B2";
name = Bold;
width = 600;
}
);
unicode = 0048;
},
{
glyphname = I;
lastChange = "2016-02-11 05:42:35 +0000";
layers = (
{
layerId = "F2EBC5D5-DDE2-4851-B52F-F2293ECE9CC7";
name = Light;
paths = (
{
closed = 1;
nodes = (
"153 508 CURVE SMOOTH",
"153 23 LINE SMOOTH",
"153 9 OFFCURVE",
"142 -2 OFFCURVE",
"128 -2 CURVE SMOOTH",
"115 -2 OFFCURVE",
"103 10 OFFCURVE",
"103 23 CURVE SMOOTH",
"103 508 LINE SMOOTH",
"103 522 OFFCURVE",
"115 533 OFFCURVE",
"128 533 CURVE SMOOTH",
"142 533 OFFCURVE",
"153 522 OFFCURVE"
);
}
);
width = 256;
},
{
layerId = "A309AC34-D742-49E2-8DE7-30304959F2B2";
name = Bold;
width = 600;
}
);
unicode = 0049;
},
{
glyphname = J;
lastChange = "2016-02-11 05:42:54 +0000";
layers = (
{
layerId = "F2EBC5D5-DDE2-4851-B52F-F2293ECE9CC7";
name = Light;
paths = (
{
closed = 1;
nodes = (
"81 56 CURVE SMOOTH",
"107 44 OFFCURVE",
"133 39 OFFCURVE",
"160 39 CURVE SMOOTH",
"225 39 OFFCURVE",
"253 86 OFFCURVE",
"253 165 CURVE SMOOTH",
"253 508 LINE SMOOTH",
"253 522 OFFCURVE",
"265 533 OFFCURVE",
"278 533 CURVE SMOOTH",
"292 533 OFFCURVE",
"303 522 OFFCURVE",
"303 508 CURVE SMOOTH",
"303 165 LINE SMOOTH",
"303 44 OFFCURVE",
"251 -11 OFFCURVE",
"160 -11 CURVE SMOOTH",
"127 -11 OFFCURVE",
"93 -4 OFFCURVE",
"61 10 CURVE SMOOTH",
"48 16 OFFCURVE",
"43 31 OFFCURVE",
"48 43 CURVE SMOOTH",
"54 56 OFFCURVE",
"69 61 OFFCURVE"
);
}
);
width = 389;
},
{
layerId = "A309AC34-D742-49E2-8DE7-30304959F2B2";
name = Bold;
width = 600;
}
);
unicode = 004A;
},
{
glyphname = K;
lastChange = "2016-02-11 05:43:07 +0000";
layers = (
{
layerId = "F2EBC5D5-DDE2-4851-B52F-F2293ECE9CC7";
name = Light;
paths = (
{
closed = 1;
nodes = (
"148 508 CURVE SMOOTH",
"148 23 LINE SMOOTH",
"148 9 OFFCURVE",
"137 -2 OFFCURVE",
"123 -2 CURVE SMOOTH",
"110 -2 OFFCURVE",
"98 10 OFFCURVE",
"98 23 CURVE SMOOTH",
"98 508 LINE SMOOTH",
"98 522 OFFCURVE",
"110 533 OFFCURVE",
"123 533 CURVE SMOOTH",
"137 533 OFFCURVE",
"148 522 OFFCURVE"
);
},
{
closed = 1;
nodes = (
"266 317 CURVE SMOOTH",
"323 248 OFFCURVE",
"443 102 OFFCURVE",
"498 39 CURVE SMOOTH",
"507 29 OFFCURVE",
"506 13 OFFCURVE",
"495 4 CURVE SMOOTH",
"485 -5 OFFCURVE",
"469 -4 OFFCURVE",
"460 7 CURVE SMOOTH",
"405 70 OFFCURVE",
"285 216 OFFCURVE",
"228 285 CURVE SMOOTH",
"219 295 OFFCURVE",
"221 312 OFFCURVE",
"231 320 CURVE SMOOTH",
"241 329 OFFCURVE",
"258 327 OFFCURVE"
);
},
{
closed = 1;
nodes = (
"106 209 CURVE SMOOTH",
"154 253 OFFCURVE",
"341 421 OFFCURVE",
"441 525 CURVE SMOOTH",
"450 535 OFFCURVE",
"466 535 OFFCURVE",
"476 526 CURVE SMOOTH",
"486 517 OFFCURVE",
"486 501 OFFCURVE",
"477 491 CURVE SMOOTH",
"377 385 OFFCURVE",
"188 217 OFFCURVE",
"140 173 CURVE SMOOTH",
"130 163 OFFCURVE",
"114 164 OFFCURVE",
"105 174 CURVE SMOOTH",
"95 184 OFFCURVE",
"96 200 OFFCURVE"
);
}
);
width = 557;
},
{
layerId = "A309AC34-D742-49E2-8DE7-30304959F2B2";
name = Bold;
width = 600;
}
);
unicode = 004B;
},
{
glyphname = L;
lastChange = "2016-02-11 05:43:19 +0000";
layers = (
{
layerId = "F2EBC5D5-DDE2-4851-B52F-F2293ECE9CC7";
name = Light;
paths = (
{
closed = 1;
nodes = (
"148 508 CURVE SMOOTH",
"148 23 LINE SMOOTH",
"148 9 OFFCURVE",
"137 -2 OFFCURVE",
"123 -2 CURVE SMOOTH",
"110 -2 OFFCURVE",
"98 10 OFFCURVE",
"98 23 CURVE SMOOTH",
"98 508 LINE SMOOTH",
"98 522 OFFCURVE",
"110 533 OFFCURVE",
"123 533 CURVE SMOOTH",
"137 533 OFFCURVE",
"148 522 OFFCURVE"
);
},
{
closed = 1;
nodes = (
"131 48 CURVE SMOOTH",
"394 48 LINE SMOOTH",
"408 48 OFFCURVE",
"419 37 OFFCURVE",
"419 23 CURVE SMOOTH",
"419 10 OFFCURVE",
"408 -2 OFFCURVE",
"394 -2 CURVE SMOOTH",
"131 -2 LINE SMOOTH",
"118 -2 OFFCURVE",
"106 10 OFFCURVE",
"106 23 CURVE SMOOTH",
"106 37 OFFCURVE",
"118 48 OFFCURVE"
);
}
);
width = 459;
},
{
layerId = "A309AC34-D742-49E2-8DE7-30304959F2B2";
name = Bold;
width = 600;
}
);
unicode = 004C;
},
{
glyphname = M;
lastChange = "2016-02-11 05:43:41 +0000";
layers = (
{
layerId = "F2EBC5D5-DDE2-4851-B52F-F2293ECE9CC7";
name = Light;
paths = (
{
closed = 1;
nodes = (
"198 513 CURVE SMOOTH",
"174 370 OFFCURVE",
"142 134 OFFCURVE",
"130 18 CURVE SMOOTH",
"128 5 OFFCURVE",
"116 -5 OFFCURVE",
"102 -4 CURVE SMOOTH",
"89 -2 OFFCURVE",
"79 10 OFFCURVE",
"80 24 CURVE SMOOTH",
"92 140 OFFCURVE",
"124 378 OFFCURVE",
"148 521 CURVE SMOOTH",
"151 534 OFFCURVE",
"164 544 OFFCURVE",
"177 542 CURVE SMOOTH",
"190 539 OFFCURVE",
"200 526 OFFCURVE"
);
},
{
closed = 1;
nodes = (
"657 523 CURVE SMOOTH",
"688 366 OFFCURVE",
"721 159 OFFCURVE",
"739 24 CURVE SMOOTH",
"741 11 OFFCURVE",
"731 -2 OFFCURVE",
"717 -4 CURVE SMOOTH",
"704 -6 OFFCURVE",
"691 4 OFFCURVE",
"689 18 CURVE SMOOTH",
"671 151 OFFCURVE",
"638 358 OFFCURVE",
"607 513 CURVE SMOOTH",
"605 526 OFFCURVE",
"614 540 OFFCURVE",
"627 543 CURVE SMOOTH",
"640 545 OFFCURVE",
"654 536 OFFCURVE"
);
},
{
closed = 1;
nodes = (
"207 515 CURVE SMOOTH",
"269 388 OFFCURVE",
"364 191 OFFCURVE",
"431 51 CURVE SMOOTH",
"436 39 OFFCURVE",
"431 23 OFFCURVE",
"419 17 CURVE SMOOTH",
"407 12 OFFCURVE",
"391 17 OFFCURVE",
"385 29 CURVE SMOOTH",
"318 169 OFFCURVE",
"225 366 OFFCURVE",
"163 493 CURVE SMOOTH",
"157 505 OFFCURVE",
"162 521 OFFCURVE",
"174 526 CURVE SMOOTH",
"186 532 OFFCURVE",
"202 527 OFFCURVE"
);
},
{
closed = 1;
nodes = (
"388 62 CURVE SMOOTH",
"448 198 OFFCURVE",
"529 375 OFFCURVE",
"603 521 CURVE SMOOTH",
"609 533 OFFCURVE",
"624 538 OFFCURVE",
"636 532 CURVE SMOOTH",
"648 526 OFFCURVE",
"653 511 OFFCURVE",
"647 499 CURVE SMOOTH",
"573 353 OFFCURVE",
"494 178 OFFCURVE",
"434 42 CURVE SMOOTH",
"428 30 OFFCURVE",
"413 24 OFFCURVE",
"401 29 CURVE SMOOTH",
"389 35 OFFCURVE",
"383 50 OFFCURVE"
);
}
);
width = 820;
},
{
layerId = "A309AC34-D742-49E2-8DE7-30304959F2B2";
name = Bold;
width = 600;
}
);
unicode = 004D;
},
{
glyphname = N;
lastChange = "2016-02-11 05:43:55 +0000";
layers = (
{
layerId = "F2EBC5D5-DDE2-4851-B52F-F2293ECE9CC7";
name = Light;
paths = (
{
closed = 1;
nodes = (
"148 508 CURVE SMOOTH",
"148 23 LINE SMOOTH",
"148 9 OFFCURVE",
"137 -2 OFFCURVE",
"123 -2 CURVE SMOOTH",
"110 -2 OFFCURVE",
"98 10 OFFCURVE",
"98 23 CURVE SMOOTH",
"98 508 LINE SMOOTH",
"98 522 OFFCURVE",
"110 533 OFFCURVE",
"123 533 CURVE SMOOTH",
"137 533 OFFCURVE",
"148 522 OFFCURVE"
);
},
{
closed = 1;
nodes = (
"537 508 CURVE SMOOTH",
"537 23 LINE SMOOTH",
"537 9 OFFCURVE",
"526 -2 OFFCURVE",
"512 -2 CURVE SMOOTH",
"499 -2 OFFCURVE",
"487 10 OFFCURVE",
"487 23 CURVE SMOOTH",
"487 508 LINE SMOOTH",
"487 522 OFFCURVE",
"499 533 OFFCURVE",
"512 533 CURVE SMOOTH",
"526 533 OFFCURVE",
"537 522 OFFCURVE"
);
},
{
closed = 1;
nodes = (
"149 523 CURVE SMOOTH",
"224 423 OFFCURVE",
"419 181 OFFCURVE",
"526 38 CURVE SMOOTH",
"534 27 OFFCURVE",
"532 11 OFFCURVE",
"521 3 CURVE SMOOTH",
"510 -5 OFFCURVE",
"494 -3 OFFCURVE",
"486 8 CURVE SMOOTH",
"379 151 OFFCURVE",
"184 393 OFFCURVE",
"109 493 CURVE SMOOTH",
"101 504 OFFCURVE",
"103 520 OFFCURVE",
"114 528 CURVE SMOOTH",
"125 536 OFFCURVE",
"141 534 OFFCURVE"
);
}
);
width = 635;
},
{
layerId = "A309AC34-D742-49E2-8DE7-30304959F2B2";
name = Bold;
width = 600;
}
);
unicode = 004E;
},
{
glyphname = O;
lastChange = "2016-02-11 05:44:09 +0000";
layers = (
{
layerId = "F2EBC5D5-DDE2-4851-B52F-F2293ECE9CC7";
name = Light;
paths = (
{
closed = 1;
nodes = (
"322 542 CURVE SMOOTH",
"464 542 OFFCURVE",
"579 429 OFFCURVE",
"579 265 CURVE SMOOTH",
"579 109 OFFCURVE",
"484 -11 OFFCURVE",
"322 -11 CURVE SMOOTH",
"169 -11 OFFCURVE",
"61 109 OFFCURVE",
"61 262 CURVE",
"61 429 OFFCURVE",
"167 542 OFFCURVE"
);
},
{
closed = 1;
nodes = (
"322 492 CURVE SMOOTH",
"195 492 OFFCURVE",
"111 397 OFFCURVE",
"111 262 CURVE SMOOTH",
"111 139 OFFCURVE",
"197 39 OFFCURVE",
"322 39 CURVE SMOOTH",
"454 39 OFFCURVE",
"529 139 OFFCURVE",
"529 265 CURVE SMOOTH",
"529 397 OFFCURVE",
"438 492 OFFCURVE"
);
}
);
width = 640;
},
{
layerId = "A309AC34-D742-49E2-8DE7-30304959F2B2";
name = Bold;
width = 600;
}
);
unicode = 004F;
},
{
glyphname = P;
lastChange = "2016-02-11 05:44:25 +0000";
layers = (
{
layerId = "F2EBC5D5-DDE2-4851-B52F-F2293ECE9CC7";
name = Light;
paths = (
{
closed = 1;
nodes = (
"149 224 CURVE SMOOTH",
"266 224 LINE SMOOTH",
"361 224 OFFCURVE",
"412 281 OFFCURVE",
"412 354 CURVE SMOOTH",
"412 431 OFFCURVE",
"351 483 OFFCURVE",
"266 483 CURVE SMOOTH",
"123 483 LINE",
"148 508 LINE",
"148 23 LINE SMOOTH",
"148 9 OFFCURVE",
"137 -2 OFFCURVE",
"123 -2 CURVE SMOOTH",
"110 -2 OFFCURVE",
"98 10 OFFCURVE",
"98 23 CURVE SMOOTH",
"98 508 LINE SMOOTH",
"98 522 OFFCURVE",
"109 533 OFFCURVE",
"123 533 CURVE SMOOTH",
"266 533 LINE SMOOTH",
"383 533 OFFCURVE",
"462 457 OFFCURVE",
"462 354 CURVE SMOOTH",
"462 257 OFFCURVE",
"397 174 OFFCURVE",
"266 174 CURVE SMOOTH",
"149 174 LINE SMOOTH",
"136 174 OFFCURVE",
"124 186 OFFCURVE",
"124 199 CURVE SMOOTH",
"124 213 OFFCURVE",
"136 224 OFFCURVE"
);
}
);
width = 510;
},
{
layerId = "A309AC34-D742-49E2-8DE7-30304959F2B2";
name = Bold;
width = 600;
}
);
unicode = 0050;
},
{
glyphname = Q;
lastChange = "2016-02-11 05:45:00 +0000";
layers = (
{
layerId = "F2EBC5D5-DDE2-4851-B52F-F2293ECE9CC7";
name = Light;
paths = (
{
closed = 1;
nodes = (
"342 17 CURVE SMOOTH",
"359 -47 OFFCURVE",
"421 -95 OFFCURVE",
"512 -95 CURVE SMOOTH",
"526 -95 OFFCURVE",
"537 -107 OFFCURVE",
"537 -120 CURVE SMOOTH",
"537 -134 OFFCURVE",
"526 -145 OFFCURVE",
"512 -145 CURVE SMOOTH",
"391 -145 OFFCURVE",
"315 -77 OFFCURVE",
"294 5 CURVE SMOOTH",
"290 18 OFFCURVE",
"299 32 OFFCURVE",
"312 35 CURVE SMOOTH",
"325 39 OFFCURVE",
"339 30 OFFCURVE"
);
},
{
closed = 1;
nodes = (
"322 542 CURVE SMOOTH",
"464 542 OFFCURVE",
"579 429 OFFCURVE",
"579 265 CURVE SMOOTH",
"579 109 OFFCURVE",
"484 -11 OFFCURVE",
"322 -11 CURVE SMOOTH",
"169 -11 OFFCURVE",
"61 109 OFFCURVE",
"61 262 CURVE",
"61 429 OFFCURVE",
"167 542 OFFCURVE"
);
},
{
closed = 1;
nodes = (
"322 492 CURVE SMOOTH",
"195 492 OFFCURVE",
"111 397 OFFCURVE",
"111 262 CURVE SMOOTH",
"111 139 OFFCURVE",
"197 39 OFFCURVE",
"322 39 CURVE SMOOTH",
"454 39 OFFCURVE",
"529 139 OFFCURVE",
"529 265 CURVE SMOOTH",
"529 397 OFFCURVE",
"438 492 OFFCURVE"
);
}
);
width = 640;
},
{
layerId = "A309AC34-D742-49E2-8DE7-30304959F2B2";
name = Bold;
width = 600;
}
);
unicode = 0051;
},
{
glyphname = R;
lastChange = "2016-02-11 05:46:17 +0000";
layers = (
{
layerId = "F2EBC5D5-DDE2-4851-B52F-F2293ECE9CC7";
name = Light;
paths = (
{
closed = 1;
nodes = (
"139 247 CURVE SMOOTH",
"270 247 LINE SMOOTH",
"362 247 OFFCURVE",
"411 299 OFFCURVE",
"411 365 CURVE SMOOTH",
"411 436 OFFCURVE",
"353 483 OFFCURVE",
"270 483 CURVE SMOOTH",
"123 483 LINE",
"148 508 LINE",
"148 23 LINE SMOOTH",
"148 9 OFFCURVE",
"137 -2 OFFCURVE",
"123 -2 CURVE SMOOTH",
"110 -2 OFFCURVE",
"98 10 OFFCURVE",
"98 23 CURVE SMOOTH",
"98 508 LINE SMOOTH",
"98 522 OFFCURVE",
"109 533 OFFCURVE",
"123 533 CURVE SMOOTH",
"270 533 LINE SMOOTH",
"387 533 OFFCURVE",
"461 462 OFFCURVE",
"461 365 CURVE SMOOTH",
"461 275 OFFCURVE",
"400 197 OFFCURVE",
"270 197 CURVE SMOOTH",
"139 197 LINE SMOOTH",
"126 197 OFFCURVE",
"114 209 OFFCURVE",
"114 222 CURVE SMOOTH",
"114 236 OFFCURVE",
"126 247 OFFCURVE"
);
},
{
closed = 1;
nodes = (
"318 232 CURVE SMOOTH",
"483 39 LINE SMOOTH",
"492 29 OFFCURVE",
"491 13 OFFCURVE",
"480 4 CURVE SMOOTH",
"470 -5 OFFCURVE",
"454 -4 OFFCURVE",
"445 7 CURVE SMOOTH",
"280 200 LINE SMOOTH",
"271 210 OFFCURVE",
"272 226 OFFCURVE",
"283 235 CURVE SMOOTH",
"293 244 OFFCURVE",
"309 243 OFFCURVE"
);
}
);
width = 541;
},
{
layerId = "A309AC34-D742-49E2-8DE7-30304959F2B2";
name = Bold;
width = 600;
}
);
unicode = 0052;
},
{
glyphname = S;
lastChange = "2016-02-11 05:46:31 +0000";
layers = (
{
layerId = "F2EBC5D5-DDE2-4851-B52F-F2293ECE9CC7";
name = Light;
paths = (
{
closed = 1;
nodes = (
"384 461 CURVE SMOOTH",
"340 479 OFFCURVE",
"308 489 OFFCURVE",
"243 489 CURVE SMOOTH",
"178 489 OFFCURVE",
"132 453 OFFCURVE",
"132 410 CURVE SMOOTH",
"132 367 OFFCURVE",
"160 324 OFFCURVE",
"269 303 CURVE SMOOTH",
"412 271 OFFCURVE",
"452 208 OFFCURVE",
"452 136 CURVE SMOOTH",
"452 62 OFFCURVE",
"400 -11 OFFCURVE",
"263 -11 CURVE SMOOTH",
"199 -11 OFFCURVE",
"138 4 OFFCURVE",
"82 35 CURVE SMOOTH",
"70 42 OFFCURVE",
"66 57 OFFCURVE",
"72 69 CURVE SMOOTH",
"79 81 OFFCURVE",
"94 85 OFFCURVE",
"106 79 CURVE SMOOTH",
"154 52 OFFCURVE",
"207 39 OFFCURVE",
"263 39 CURVE SMOOTH",
"354 39 OFFCURVE",
"402 82 OFFCURVE",
"402 136 CURVE SMOOTH",
"402 192 OFFCURVE",
"360 231 OFFCURVE",
"259 253 CURVE SMOOTH",
"100 284 OFFCURVE",
"82 353 OFFCURVE",
"82 410 CURVE SMOOTH",
"82 473 OFFCURVE",
"138 539 OFFCURVE",
"243 539 CURVE SMOOTH",
"316 539 OFFCURVE",
"352 527 OFFCURVE",
"402 507 CURVE SMOOTH",
"415 502 OFFCURVE",
"421 487 OFFCURVE",
"416 475 CURVE SMOOTH",
"411 462 OFFCURVE",
"396 456 OFFCURVE"
);
}
);
width = 525;
},
{
layerId = "A309AC34-D742-49E2-8DE7-30304959F2B2";
name = Bold;
width = 600;
}
);
unicode = 0053;
},
{
glyphname = T;
lastChange = "2016-02-11 05:46:44 +0000";
layers = (
{
layerId = "F2EBC5D5-DDE2-4851-B52F-F2293ECE9CC7";
name = Light;
paths = (
{
closed = 1;
nodes = (
"296 508 CURVE SMOOTH",
"296 23 LINE SMOOTH",
"296 9 OFFCURVE",
"285 -2 OFFCURVE",
"271 -2 CURVE SMOOTH",
"258 -2 OFFCURVE",
"246 10 OFFCURVE",
"246 23 CURVE SMOOTH",
"246 508 LINE SMOOTH",
"246 522 OFFCURVE",
"258 533 OFFCURVE",
"271 533 CURVE SMOOTH",
"285 533 OFFCURVE",
"296 522 OFFCURVE"
);
},
{
closed = 1;
nodes = (
"59 533 CURVE SMOOTH",
"487 533 LINE SMOOTH",
"501 533 OFFCURVE",
"512 522 OFFCURVE",
"512 508 CURVE SMOOTH",
"512 495 OFFCURVE",
"501 483 OFFCURVE",
"487 483 CURVE SMOOTH",
"59 483 LINE SMOOTH",
"46 483 OFFCURVE",
"34 495 OFFCURVE",
"34 508 CURVE SMOOTH",
"34 522 OFFCURVE",
"46 533 OFFCURVE"
);
}
);
width = 546;
},
{
layerId = "A309AC34-D742-49E2-8DE7-30304959F2B2";
name = Bold;
width = 600;
}
);
unicode = 0054;
},
{
glyphname = U;
lastChange = "2016-02-11 05:46:55 +0000";
layers = (
{
layerId = "F2EBC5D5-DDE2-4851-B52F-F2293ECE9CC7";
name = Light;
paths = (
{
closed = 1;
nodes = (
"136 508 CURVE SMOOTH",
"136 212 LINE SMOOTH",
"136 101 OFFCURVE",
"206 39 OFFCURVE",
"306 39 CURVE SMOOTH",
"417 39 OFFCURVE",
"480 101 OFFCURVE",
"480 215 CURVE SMOOTH",
"480 508 LINE SMOOTH",
"480 522 OFFCURVE",
"492 533 OFFCURVE",
"505 533 CURVE SMOOTH",
"519 533 OFFCURVE",
"530 522 OFFCURVE",
"530 508 CURVE SMOOTH",
"530 215 LINE SMOOTH",
"530 69 OFFCURVE",
"449 -11 OFFCURVE",
"306 -11 CURVE SMOOTH",
"176 -11 OFFCURVE",
"86 69 OFFCURVE",
"86 212 CURVE SMOOTH",
"86 508 LINE SMOOTH",
"86 522 OFFCURVE",
"98 533 OFFCURVE",
"111 533 CURVE SMOOTH",
"125 533 OFFCURVE",
"136 522 OFFCURVE"
);
}
);
width = 616;
},
{
layerId = "A309AC34-D742-49E2-8DE7-30304959F2B2";
name = Bold;
width = 600;
}
);
unicode = 0055;
},
{
glyphname = V;
lastChange = "2016-02-11 05:47:14 +0000";
layers = (
{
layerId = "F2EBC5D5-DDE2-4851-B52F-F2293ECE9CC7";
name = Light;
paths = (
{
closed = 1;
nodes = (
"99 517 CURVE SMOOTH",
"138 394 OFFCURVE",
"272 104 OFFCURVE",
"312 31 CURVE SMOOTH",
"318 19 OFFCURVE",
"314 3 OFFCURVE",
"302 -3 CURVE SMOOTH",
"290 -9 OFFCURVE",
"274 -5 OFFCURVE",
"268 7 CURVE SMOOTH",
"228 82 OFFCURVE",
"92 376 OFFCURVE",
"51 501 CURVE SMOOTH",
"47 514 OFFCURVE",
"54 529 OFFCURVE",
"67 533 CURVE SMOOTH",
"80 537 OFFCURVE",
"95 530 OFFCURVE"
);
},
{
closed = 1;
nodes = (
"271 25 CURVE SMOOTH",
"315 108 OFFCURVE",
"438 374 OFFCURVE",
"486 516 CURVE SMOOTH",
"491 529 OFFCURVE",
"505 536 OFFCURVE",
"518 532 CURVE SMOOTH",
"531 527 OFFCURVE",
"538 513 OFFCURVE",
"534 500 CURVE SMOOTH",
"484 356 OFFCURVE",
"359 86 OFFCURVE",
"315 1 CURVE SMOOTH",
"309 -11 OFFCURVE",
"293 -15 OFFCURVE",
"281 -9 CURVE SMOOTH",
"269 -3 OFFCURVE",
"265 13 OFFCURVE"
);
}
);
width = 585;
},
{
layerId = "A309AC34-D742-49E2-8DE7-30304959F2B2";
name = Bold;
width = 600;
}
);
unicode = 0056;
},
{
glyphname = W;
lastChange = "2016-02-11 05:47:27 +0000";
layers = (
{
layerId = "F2EBC5D5-DDE2-4851-B52F-F2293ECE9CC7";
name = Light;
paths = (
{
closed = 1;
nodes = (
"115 514 CURVE SMOOTH",
"149 391 OFFCURVE",
"248 104 OFFCURVE",
"283 31 CURVE SMOOTH",
"288 18 OFFCURVE",
"283 3 OFFCURVE",
"271 -3 CURVE SMOOTH",
"258 -8 OFFCURVE",
"243 -3 OFFCURVE",
"237 9 CURVE SMOOTH",
"202 84 OFFCURVE",
"101 375 OFFCURVE",
"67 500 CURVE SMOOTH",
"63 513 OFFCURVE",
"71 528 OFFCURVE",
"84 531 CURVE SMOOTH",
"97 535 OFFCURVE",
"112 527 OFFCURVE"
);
},
{
closed = 1;
nodes = (
"241 24 CURVE SMOOTH",
"278 108 OFFCURVE",
"382 371 OFFCURVE",
"425 511 CURVE SMOOTH",
"429 524 OFFCURVE",
"443 532 OFFCURVE",
"456 528 CURVE SMOOTH",
"469 524 OFFCURVE",
"477 510 OFFCURVE",
"473 497 CURVE SMOOTH",
"430 355 OFFCURVE",
"324 88 OFFCURVE",
"287 4 CURVE SMOOTH",
"281 -8 OFFCURVE",
"266 -14 OFFCURVE",
"254 -9 CURVE SMOOTH",
"242 -3 OFFCURVE",
"236 12 OFFCURVE"
);
},
{
closed = 1;
nodes = (
"477 499 CURVE SMOOTH",
"515 378 OFFCURVE",
"617 103 OFFCURVE",
"652 30 CURVE SMOOTH",
"658 18 OFFCURVE",
"653 2 OFFCURVE",
"641 -3 CURVE SMOOTH",
"629 -9 OFFCURVE",
"613 -4 OFFCURVE",
"608 8 CURVE SMOOTH",
"571 83 OFFCURVE",
"467 362 OFFCURVE",
"429 485 CURVE SMOOTH",
"425 497 OFFCURVE",
"433 512 OFFCURVE",
"446 516 CURVE SMOOTH",
"458 520 OFFCURVE",
"473 512 OFFCURVE"
);
},
{
closed = 1;
nodes = (
"611 23 CURVE SMOOTH",
"648 107 OFFCURVE",
"742 372 OFFCURVE",
"783 514 CURVE SMOOTH",
"787 527 OFFCURVE",
"801 535 OFFCURVE",
"814 531 CURVE SMOOTH",
"827 527 OFFCURVE",
"835 513 OFFCURVE",
"831 500 CURVE SMOOTH",
"790 356 OFFCURVE",
"694 87 OFFCURVE",
"657 3 CURVE SMOOTH",
"651 -9 OFFCURVE",
"636 -15 OFFCURVE",
"624 -10 CURVE SMOOTH",
"612 -4 OFFCURVE",
"606 11 OFFCURVE"
);
}
);
width = 897;
},
{
layerId = "A309AC34-D742-49E2-8DE7-30304959F2B2";
name = Bold;
width = 600;
}
);
unicode = 0057;
},
{
glyphname = X;
lastChange = "2016-02-11 05:47:43 +0000";
layers = (
{
layerId = "F2EBC5D5-DDE2-4851-B52F-F2293ECE9CC7";
name = Light;
paths = (
{
closed = 1;
nodes = (
"119 522 CURVE SMOOTH",
"215 382 OFFCURVE",
"440 121 OFFCURVE",
"499 37 CURVE SMOOTH",
"507 26 OFFCURVE",
"504 10 OFFCURVE",
"493 3 CURVE SMOOTH",
"482 -5 OFFCURVE",
"466 -2 OFFCURVE",
"459 9 CURVE SMOOTH",
"400 93 OFFCURVE",
"173 354 OFFCURVE",
"77 494 CURVE SMOOTH",
"70 505 OFFCURVE",
"73 521 OFFCURVE",
"84 529 CURVE SMOOTH",
"95 536 OFFCURVE",
"111 533 OFFCURVE"
);
},
{
closed = 1;
nodes = (
"65 38 CURVE SMOOTH",
"144 145 OFFCURVE",
"352 389 OFFCURVE",
"438 522 CURVE SMOOTH",
"445 533 OFFCURVE",
"461 536 OFFCURVE",
"473 529 CURVE SMOOTH",
"484 522 OFFCURVE",
"487 506 OFFCURVE",
"480 494 CURVE SMOOTH",
"394 361 OFFCURVE",
"184 115 OFFCURVE",
"105 8 CURVE SMOOTH",
"97 -3 OFFCURVE",
"81 -5 OFFCURVE",
"70 3 CURVE SMOOTH",
"59 11 OFFCURVE",
"57 27 OFFCURVE"
);
}
);
width = 563;
},
{
layerId = "A309AC34-D742-49E2-8DE7-30304959F2B2";
name = Bold;
width = 600;
}
);
unicode = 0058;
},
{
glyphname = Y;
lastChange = "2016-02-11 05:47:58 +0000";
layers = (
{
layerId = "F2EBC5D5-DDE2-4851-B52F-F2293ECE9CC7";
name = Light;
paths = (
{
closed = 1;
nodes = (
"307 191 CURVE SMOOTH",
"307 23 LINE SMOOTH",
"307 9 OFFCURVE",
"296 -2 OFFCURVE",
"282 -2 CURVE SMOOTH",
"269 -2 OFFCURVE",
"257 10 OFFCURVE",
"257 23 CURVE SMOOTH",
"257 191 LINE SMOOTH",
"257 205 OFFCURVE",
"269 216 OFFCURVE",
"282 216 CURVE SMOOTH",
"296 216 OFFCURVE",
"307 205 OFFCURVE"
);
},
{
closed = 1;
nodes = (
"95 521 CURVE SMOOTH",
"137 451 OFFCURVE",
"256 275 OFFCURVE",
"299 218 CURVE SMOOTH",
"307 207 OFFCURVE",
"305 191 OFFCURVE",
"294 183 CURVE SMOOTH",
"283 175 OFFCURVE",
"267 177 OFFCURVE",
"259 188 CURVE SMOOTH",
"216 245 OFFCURVE",
"95 425 OFFCURVE",
"53 495 CURVE SMOOTH",
"46 507 OFFCURVE",
"50 522 OFFCURVE",
"61 529 CURVE SMOOTH",
"73 536 OFFCURVE",
"88 532 OFFCURVE"
);
},
{
closed = 1;
nodes = (
"262 212 CURVE SMOOTH",
"311 277 OFFCURVE",
"424 452 OFFCURVE",
"465 521 CURVE SMOOTH",
"471 532 OFFCURVE",
"487 536 OFFCURVE",
"499 529 CURVE SMOOTH",
"510 523 OFFCURVE",
"514 507 OFFCURVE",
"507 495 CURVE SMOOTH",
"466 426 OFFCURVE",
"351 249 OFFCURVE",
"302 182 CURVE SMOOTH",
"294 171 OFFCURVE",
"278 169 OFFCURVE",
"267 177 CURVE SMOOTH",
"256 185 OFFCURVE",
"254 201 OFFCURVE"
);
}
);
width = 560;
},
{
layerId = "A309AC34-D742-49E2-8DE7-30304959F2B2";
name = Bold;
width = 600;
}
);
unicode = 0059;
},
{
glyphname = Z;
lastChange = "2016-02-11 05:48:10 +0000";
layers = (
{
layerId = "F2EBC5D5-DDE2-4851-B52F-F2293ECE9CC7";
name = Light;
paths = (
{
closed = 1;
nodes = (
"483 494 CURVE SMOOTH",
"420 399 OFFCURVE",
"167 99 OFFCURVE",
"114 17 CURVE SMOOTH",
"107 6 OFFCURVE",
"91 3 OFFCURVE",
"79 10 CURVE SMOOTH",
"68 17 OFFCURVE",
"65 33 OFFCURVE",
"72 45 CURVE SMOOTH",
"125 127 OFFCURVE",
"378 427 OFFCURVE",
"441 522 CURVE SMOOTH",
"449 533 OFFCURVE",
"465 536 OFFCURVE",
"476 529 CURVE SMOOTH",
"487 521 OFFCURVE",
"490 505 OFFCURVE"
);
},
{
closed = 1;
nodes = (
"102 533 CURVE SMOOTH",
"451 533 LINE SMOOTH",
"465 533 OFFCURVE",
"476 522 OFFCURVE",
"476 508 CURVE SMOOTH",
"476 495 OFFCURVE",
"465 483 OFFCURVE",
"451 483 CURVE SMOOTH",
"102 483 LINE SMOOTH",
"89 483 OFFCURVE",
"77 495 OFFCURVE",
"77 508 CURVE SMOOTH",
"77 522 OFFCURVE",
"89 533 OFFCURVE"
);
},
{
closed = 1;
nodes = (
"89 48 CURVE SMOOTH",
"474 48 LINE SMOOTH",
"488 48 OFFCURVE",
"499 37 OFFCURVE",
"499 23 CURVE SMOOTH",
"499 10 OFFCURVE",
"488 -2 OFFCURVE",
"474 -2 CURVE SMOOTH",
"89 -2 LINE SMOOTH",
"76 -2 OFFCURVE",
"64 10 OFFCURVE",
"64 23 CURVE SMOOTH",
"64 37 OFFCURVE",
"76 48 OFFCURVE"
);
}
);
width = 563;
},
{
layerId = "A309AC34-D742-49E2-8DE7-30304959F2B2";
name = Bold;
width = 600;
}
);
unicode = 005A;
},
{
glyphname = a;
lastChange = "2016-02-11 05:48:34 +0000";
layers = (
{
layerId = "F2EBC5D5-DDE2-4851-B52F-F2293ECE9CC7";
name = Light;
paths = (
{
closed = 1;
nodes = (
"114 373 CURVE SMOOTH",
"137 380 OFFCURVE",
"179 390 OFFCURVE",
"215 390 CURVE SMOOTH",
"324 390 OFFCURVE",
"374 324 OFFCURVE",
"374 228 CURVE SMOOTH",
"374 137 LINE SMOOTH",
"374 91 OFFCURVE",
"384 63 OFFCURVE",
"404 41 CURVE SMOOTH",
"414 31 OFFCURVE",
"413 15 OFFCURVE",
"403 6 CURVE SMOOTH",
"393 -4 OFFCURVE",
"377 -3 OFFCURVE",
"368 7 CURVE SMOOTH",
"340 37 OFFCURVE",
"324 73 OFFCURVE",
"324 137 CURVE SMOOTH",
"324 228 LINE SMOOTH",
"324 294 OFFCURVE",
"290 340 OFFCURVE",
"215 340 CURVE SMOOTH",
"185 340 OFFCURVE",
"149 332 OFFCURVE",
"130 325 CURVE SMOOTH",
"117 321 OFFCURVE",
"103 328 OFFCURVE",
"98 341 CURVE SMOOTH",
"94 354 OFFCURVE",
"101 368 OFFCURVE"
);
},
{
closed = 1;
nodes = (
"347 192 CURVE SMOOTH",
"314 193 OFFCURVE",
"284 195 OFFCURVE",
"255 195 CURVE SMOOTH",
"191 195 OFFCURVE",
"147 181 OFFCURVE",
"121 154 CURVE SMOOTH",
"105 139 OFFCURVE",
"100 122 OFFCURVE",
"100 104 CURVE SMOOTH",
"100 77 OFFCURVE",
"123 48 OFFCURVE",
"172 48 CURVE SMOOTH",
"238 48 OFFCURVE",
"286 75 OFFCURVE",
"329 133 CURVE SMOOTH",
"337 144 OFFCURVE",
"353 146 OFFCURVE",
"364 138 CURVE SMOOTH",
"375 130 OFFCURVE",
"377 114 OFFCURVE",
"369 103 CURVE SMOOTH",
"316 31 OFFCURVE",
"254 -2 OFFCURVE",
"172 -2 CURVE SMOOTH",
"79 -2 OFFCURVE",
"50 59 OFFCURVE",
"50 104 CURVE",
"50 136 OFFCURVE",
"59 165 OFFCURVE",
"85 190 CURVE SMOOTH",
"119 223 OFFCURVE",
"173 245 OFFCURVE",
"255 245 CURVE SMOOTH",
"284 245 OFFCURVE",
"314 243 OFFCURVE",
"349 242 CURVE SMOOTH",
"362 242 OFFCURVE",
"373 230 OFFCURVE",
"373 216 CURVE SMOOTH",
"373 203 OFFCURVE",
"361 192 OFFCURVE"
);
}
);
width = 450;
},
{
layerId = "A309AC34-D742-49E2-8DE7-30304959F2B2";
name = Bold;
width = 600;
}
);
unicode = 0061;
},
{
glyphname = b;
lastChange = "2016-02-11 05:48:49 +0000";
layers = (
{
layerId = "F2EBC5D5-DDE2-4851-B52F-F2293ECE9CC7";
name = Light;
paths = (
{
closed = 1;
nodes = (
"85 24 CURVE SMOOTH",
"85 534 LINE SMOOTH",
"85 548 OFFCURVE",
"97 559 OFFCURVE",
"110 559 CURVE SMOOTH",
"124 559 OFFCURVE",
"135 548 OFFCURVE",
"135 534 CURVE SMOOTH",
"135 24 LINE SMOOTH",
"135 10 OFFCURVE",
"124 -1 OFFCURVE",
"110 -1 CURVE SMOOTH",
"97 -1 OFFCURVE",
"85 11 OFFCURVE"
);
},
{
closed = 1;
nodes = (
"122 84 CURVE SMOOTH",
"166 60 OFFCURVE",
"213 48 OFFCURVE",
"268 48 CURVE SMOOTH",
"350 48 OFFCURVE",
"407 105 OFFCURVE",
"407 193 CURVE SMOOTH",
"407 279 OFFCURVE",
"353 340 OFFCURVE",
"281 340 CURVE SMOOTH",
"226 340 OFFCURVE",
"172 299 OFFCURVE",
"132 236 CURVE SMOOTH",
"125 224 OFFCURVE",
"109 221 OFFCURVE",
"98 228 CURVE SMOOTH",
"86 235 OFFCURVE",
"83 251 OFFCURVE",
"90 262 CURVE SMOOTH",
"140 343 OFFCURVE",
"212 390 OFFCURVE",
"281 390 CURVE SMOOTH",
"377 390 OFFCURVE",
"457 313 OFFCURVE",
"457 193 CURVE SMOOTH",
"457 73 OFFCURVE",
"378 -2 OFFCURVE",
"268 -2 CURVE SMOOTH",
"205 -2 OFFCURVE",
"150 12 OFFCURVE",
"98 40 CURVE SMOOTH",
"86 46 OFFCURVE",
"82 62 OFFCURVE",
"88 74 CURVE SMOOTH",
"94 86 OFFCURVE",
"110 90 OFFCURVE"
);
}
);
width = 505;
},
{
layerId = "A309AC34-D742-49E2-8DE7-30304959F2B2";
name = Bold;
width = 600;
}
);
unicode = 0062;
},
{
glyphname = c;
lastChange = "2016-02-11 05:49:01 +0000";
layers = (
{
layerId = "F2EBC5D5-DDE2-4851-B52F-F2293ECE9CC7";
name = Light;
paths = (
{
closed = 1;
nodes = (
"341 326 CURVE SMOOTH",
"316 334 OFFCURVE",
"286 340 OFFCURVE",
"260 340 CURVE SMOOTH",
"158 340 OFFCURVE",
"99 275 OFFCURVE",
"99 185 CURVE SMOOTH",
"99 106 OFFCURVE",
"158 48 OFFCURVE",
"259 48 CURVE SMOOTH",
"296 48 OFFCURVE",
"326 55 OFFCURVE",
"352 65 CURVE SMOOTH",
"364 70 OFFCURVE",
"379 64 OFFCURVE",
"384 51 CURVE SMOOTH",
"389 39 OFFCURVE",
"383 24 OFFCURVE",
"370 19 CURVE SMOOTH",
"340 7 OFFCURVE",
"304 -2 OFFCURVE",
"259 -2 CURVE SMOOTH",
"122 -2 OFFCURVE",
"49 82 OFFCURVE",
"49 185 CURVE",
"49 303 OFFCURVE",
"126 390 OFFCURVE",
"260 390 CURVE SMOOTH",
"292 390 OFFCURVE",
"328 384 OFFCURVE",
"357 374 CURVE SMOOTH",
"370 369 OFFCURVE",
"377 355 OFFCURVE",
"373 342 CURVE SMOOTH",
"368 329 OFFCURVE",
"354 322 OFFCURVE"
);
}
);
width = 436;
},
{
layerId = "A309AC34-D742-49E2-8DE7-30304959F2B2";
name = Bold;
width = 600;
}
);
unicode = 0063;
},
{
glyphname = d;
lastChange = "2016-02-11 05:49:14 +0000";
layers = (
{
layerId = "F2EBC5D5-DDE2-4851-B52F-F2293ECE9CC7";
name = Light;
paths = (
{
closed = 1;
nodes = (
"379 287 CURVE SMOOTH",
"339 320 OFFCURVE",
"299 340 OFFCURVE",
"245 340 CURVE SMOOTH",
"161 340 OFFCURVE",
"99 275 OFFCURVE",
"99 186 CURVE SMOOTH",
"99 104 OFFCURVE",
"152 48 OFFCURVE",
"224 48 CURVE SMOOTH",
"291 48 OFFCURVE",
"338 95 OFFCURVE",
"372 153 CURVE SMOOTH",
"379 164 OFFCURVE",
"395 168 OFFCURVE",
"407 162 CURVE SMOOTH",
"418 155 OFFCURVE",
"422 139 OFFCURVE",
"416 127 CURVE SMOOTH",
"372 53 OFFCURVE",
"309 -2 OFFCURVE",
"224 -2 CURVE SMOOTH",
"126 -2 OFFCURVE",
"49 71 OFFCURVE",
"49 186 CURVE",
"49 305 OFFCURVE",
"133 390 OFFCURVE",
"245 390 CURVE SMOOTH",
"311 390 OFFCURVE",
"361 366 OFFCURVE",
"411 325 CURVE SMOOTH",
"421 317 OFFCURVE",
"423 301 OFFCURVE",
"414 290 CURVE SMOOTH",
"406 280 OFFCURVE",
"390 278 OFFCURVE"
);
},
{
closed = 1;
nodes = (
"420 534 CURVE SMOOTH",
"420 23 LINE SMOOTH",
"420 9 OFFCURVE",
"409 -2 OFFCURVE",
"395 -2 CURVE SMOOTH",
"382 -2 OFFCURVE",
"370 10 OFFCURVE",
"370 23 CURVE SMOOTH",
"370 534 LINE SMOOTH",
"370 548 OFFCURVE",
"382 559 OFFCURVE",
"395 559 CURVE SMOOTH",
"409 559 OFFCURVE",
"420 548 OFFCURVE"
);
}
);
width = 505;
},
{
layerId = "A309AC34-D742-49E2-8DE7-30304959F2B2";
name = Bold;
width = 600;
}
);
unicode = 0064;
},
{
glyphname = e;
lastChange = "2016-02-11 05:49:27 +0000";
layers = (
{
layerId = "F2EBC5D5-DDE2-4851-B52F-F2293ECE9CC7";
name = Light;
paths = (
{
closed = 1;
nodes = (
"87 218 CURVE SMOOTH",
"296 218 LINE SMOOTH",
"332 218 OFFCURVE",
"353 229 OFFCURVE",
"353 255 CURVE SMOOTH",
"353 294 OFFCURVE",
"306 340 OFFCURVE",
"242 340 CURVE SMOOTH",
"162 340 OFFCURVE",
"99 278 OFFCURVE",
"99 189 CURVE SMOOTH",
"99 95 OFFCURVE",
"168 48 OFFCURVE",
"262 48 CURVE SMOOTH",
"295 48 OFFCURVE",
"326 55 OFFCURVE",
"350 64 CURVE SMOOTH",
"363 69 OFFCURVE",
"377 63 OFFCURVE",
"382 50 CURVE SMOOTH",
"387 37 OFFCURVE",
"381 23 OFFCURVE",
"368 18 CURVE SMOOTH",
"340 7 OFFCURVE",
"301 -2 OFFCURVE",
"262 -2 CURVE SMOOTH",
"134 -2 OFFCURVE",
"49 67 OFFCURVE",
"49 189 CURVE",
"49 310 OFFCURVE",
"136 390 OFFCURVE",
"242 390 CURVE SMOOTH",
"344 390 OFFCURVE",
"403 312 OFFCURVE",
"403 255 CURVE SMOOTH",
"403 205 OFFCURVE",
"380 168 OFFCURVE",
"296 168 CURVE SMOOTH",
"87 168 LINE SMOOTH",
"74 168 OFFCURVE",
"62 180 OFFCURVE",
"62 193 CURVE SMOOTH",
"62 207 OFFCURVE",
"74 218 OFFCURVE"
);
}
);
width = 460;
},
{
layerId = "A309AC34-D742-49E2-8DE7-30304959F2B2";
name = Bold;
width = 600;
}
);
unicode = 0065;
},
{
glyphname = f;
lastChange = "2016-02-11 05:49:39 +0000";
layers = (
{
layerId = "F2EBC5D5-DDE2-4851-B52F-F2293ECE9CC7";
name = Light;
paths = (
{
closed = 1;
nodes = (
"271 535 CURVE SMOOTH",
"189 530 OFFCURVE",
"159 496 OFFCURVE",
"159 438 CURVE SMOOTH",
"159 23 LINE SMOOTH",
"159 9 OFFCURVE",
"148 -2 OFFCURVE",
"134 -2 CURVE SMOOTH",
"121 -2 OFFCURVE",
"109 10 OFFCURVE",
"109 23 CURVE SMOOTH",
"109 438 LINE SMOOTH",
"109 520 OFFCURVE",
"143 578 OFFCURVE",
"269 585 CURVE SMOOTH",
"282 586 OFFCURVE",
"294 575 OFFCURVE",
"295 561 CURVE SMOOTH",
"296 548 OFFCURVE",
"285 536 OFFCURVE"
);
},
{
closed = 1;
nodes = (
"46 390 CURVE SMOOTH",
"272 390 LINE SMOOTH",
"286 390 OFFCURVE",
"297 379 OFFCURVE",
"297 365 CURVE SMOOTH",
"297 352 OFFCURVE",
"286 340 OFFCURVE",
"272 340 CURVE SMOOTH",
"46 340 LINE SMOOTH",
"33 340 OFFCURVE",
"21 352 OFFCURVE",
"21 365 CURVE SMOOTH",
"21 379 OFFCURVE",
"33 390 OFFCURVE"
);
}
);
width = 318;
},
{
layerId = "A309AC34-D742-49E2-8DE7-30304959F2B2";
name = Bold;
width = 600;
}
);
unicode = 0066;
},
{
glyphname = g;
lastChange = "2016-02-11 05:49:50 +0000";
layers = (
{
layerId = "F2EBC5D5-DDE2-4851-B52F-F2293ECE9CC7";
name = Light;
paths = (
{
closed = 1;
nodes = (
"382 305 CURVE SMOOTH",
"334 329 OFFCURVE",
"302 340 OFFCURVE",
"250 340 CURVE SMOOTH",
"173 340 OFFCURVE",
"99 279 OFFCURVE",
"99 185 CURVE SMOOTH",
"99 98 OFFCURVE",
"157 60 OFFCURVE",
"216 60 CURVE SMOOTH",
"274 60 OFFCURVE",
"332 94 OFFCURVE",
"371 155 CURVE SMOOTH",
"378 167 OFFCURVE",
"394 170 OFFCURVE",
"405 163 CURVE SMOOTH",
"417 156 OFFCURVE",
"420 140 OFFCURVE",
"413 129 CURVE SMOOTH",
"364 50 OFFCURVE",
"290 10 OFFCURVE",
"216 10 CURVE SMOOTH",
"133 10 OFFCURVE",
"49 62 OFFCURVE",
"49 185 CURVE",
"49 311 OFFCURVE",
"149 390 OFFCURVE",
"250 390 CURVE SMOOTH",
"310 390 OFFCURVE",
"348 377 OFFCURVE",
"404 351 CURVE SMOOTH",
"416 345 OFFCURVE",
"421 329 OFFCURVE",
"416 317 CURVE SMOOTH",
"410 305 OFFCURVE",
"394 300 OFFCURVE"
);
},
{
closed = 1;
nodes = (
"162 -133 CURVE SMOOTH",
"304 -133 OFFCURVE",
"368 -53 OFFCURVE",
"368 69 CURVE SMOOTH",
"368 365 LINE SMOOTH",
"368 379 OFFCURVE",
"380 390 OFFCURVE",
"393 390 CURVE SMOOTH",
"407 390 OFFCURVE",
"418 379 OFFCURVE",
"418 365 CURVE SMOOTH",
"418 69 LINE SMOOTH",
"418 -83 OFFCURVE",
"340 -183 OFFCURVE",
"162 -183 CURVE SMOOTH",
"149 -183 OFFCURVE",
"137 -172 OFFCURVE",
"137 -158 CURVE SMOOTH",
"137 -145 OFFCURVE",
"149 -133 OFFCURVE"
);
}
);
width = 503;
},
{
layerId = "A309AC34-D742-49E2-8DE7-30304959F2B2";
name = Bold;
width = 600;
}
);
unicode = 0067;
},
{
glyphname = h;
lastChange = "2016-02-11 05:50:02 +0000";
layers = (
{
layerId = "F2EBC5D5-DDE2-4851-B52F-F2293ECE9CC7";
name = Light;
paths = (
{
closed = 1;
nodes = (
"85 23 CURVE SMOOTH",
"85 534 LINE SMOOTH",
"85 548 OFFCURVE",
"97 559 OFFCURVE",
"110 559 CURVE SMOOTH",
"124 559 OFFCURVE",
"135 548 OFFCURVE",
"135 534 CURVE SMOOTH",
"135 23 LINE SMOOTH",
"135 9 OFFCURVE",
"124 -2 OFFCURVE",
"110 -2 CURVE SMOOTH",
"97 -2 OFFCURVE",
"85 10 OFFCURVE"
);
},
{
closed = 1;
nodes = (
"372 23 CURVE SMOOTH",
"372 223 LINE SMOOTH",
"372 305 OFFCURVE",
"338 340 OFFCURVE",
"285 340 CURVE SMOOTH",
"228 340 OFFCURVE",
"175 303 OFFCURVE",
"132 260 CURVE SMOOTH",
"122 251 OFFCURVE",
"106 251 OFFCURVE",
"96 260 CURVE SMOOTH",
"87 270 OFFCURVE",
"87 286 OFFCURVE",
"96 296 CURVE SMOOTH",
"149 349 OFFCURVE",
"216 390 OFFCURVE",
"285 390 CURVE SMOOTH",
"360 390 OFFCURVE",
"422 351 OFFCURVE",
"422 223 CURVE SMOOTH",
"422 23 LINE SMOOTH",
"422 9 OFFCURVE",
"411 -2 OFFCURVE",
"397 -2 CURVE SMOOTH",
"384 -2 OFFCURVE",
"372 10 OFFCURVE"
);
}
);
width = 497;
},
{
layerId = "A309AC34-D742-49E2-8DE7-30304959F2B2";
name = Bold;
width = 600;
}
);
unicode = 0068;
},
{
glyphname = i;
lastChange = "2016-02-11 05:50:24 +0000";
layers = (
{
layerId = "F2EBC5D5-DDE2-4851-B52F-F2293ECE9CC7";
name = Light;
paths = (
{
closed = 1;
nodes = (
"116 598 CURVE SMOOTH",
"140 598 OFFCURVE",
"159 578 OFFCURVE",
"159 547 CURVE SMOOTH",
"159 515 OFFCURVE",
"139 498 OFFCURVE",
"117 498 CURVE SMOOTH",
"93 498 OFFCURVE",
"73 517 OFFCURVE",
"73 547 CURVE SMOOTH",
"73 578 OFFCURVE",
"92 598 OFFCURVE"
);
},
{
closed = 1;
nodes = (
"91 23 CURVE SMOOTH",
"91 365 LINE SMOOTH",
"91 379 OFFCURVE",
"103 390 OFFCURVE",
"116 390 CURVE SMOOTH",
"130 390 OFFCURVE",
"141 379 OFFCURVE",
"141 365 CURVE SMOOTH",
"141 23 LINE SMOOTH",
"141 9 OFFCURVE",
"130 -2 OFFCURVE",
"116 -2 CURVE SMOOTH",
"103 -2 OFFCURVE",
"91 10 OFFCURVE"
);
},
{
closed = 1;
nodes = (
"116 548 CURVE SMOOTH",
"116 548 OFFCURVE",
"123 542 OFFCURVE",
"123 547 CURVE SMOOTH",
"123 551 OFFCURVE",
"118 548 OFFCURVE",
"117 548 CURVE SMOOTH",
"117 548 OFFCURVE",
"109 553 OFFCURVE",
"109 547 CURVE SMOOTH",
"109 542 OFFCURVE",
"116 548 OFFCURVE"
);
}
);
width = 232;
},
{
layerId = "A309AC34-D742-49E2-8DE7-30304959F2B2";
name = Bold;
width = 600;
}
);
unicode = 0069;
},
{
glyphname = j;
lastChange = "2016-02-11 05:50:53 +0000";
layers = (
{
layerId = "F2EBC5D5-DDE2-4851-B52F-F2293ECE9CC7";
name = Light;
paths = (
{
closed = 1;
nodes = (
"116 598 CURVE SMOOTH",
"140 598 OFFCURVE",
"159 578 OFFCURVE",
"159 547 CURVE SMOOTH",
"159 515 OFFCURVE",
"139 498 OFFCURVE",
"117 498 CURVE SMOOTH",
"93 498 OFFCURVE",
"73 517 OFFCURVE",
"73 547 CURVE SMOOTH",
"73 578 OFFCURVE",
"92 598 OFFCURVE"
);
},
{
closed = 1;
nodes = (
"-3 -112 CURVE SMOOTH",
"58 -88 OFFCURVE",
"91 -43 OFFCURVE",
"91 42 CURVE SMOOTH",
"91 365 LINE SMOOTH",
"91 379 OFFCURVE",
"103 390 OFFCURVE",
"116 390 CURVE SMOOTH",
"130 390 OFFCURVE",
"141 379 OFFCURVE",
"141 365 CURVE SMOOTH",
"141 42 LINE SMOOTH",
"141 -71 OFFCURVE",
"94 -128 OFFCURVE",
"15 -158 CURVE SMOOTH",
"2 -163 OFFCURVE",
"-12 -157 OFFCURVE",
"-17 -144 CURVE SMOOTH",
"-22 -131 OFFCURVE",
"-16 -117 OFFCURVE"
);
},
{
closed = 1;
nodes = (
"116 548 CURVE SMOOTH",
"116 548 OFFCURVE",
"123 542 OFFCURVE",
"123 547 CURVE SMOOTH",
"123 551 OFFCURVE",
"118 548 OFFCURVE",
"117 548 CURVE SMOOTH",
"117 548 OFFCURVE",
"109 553 OFFCURVE",
"109 547 CURVE SMOOTH",
"109 542 OFFCURVE",
"116 548 OFFCURVE"
);
}
);
width = 232;
},
{
layerId = "A309AC34-D742-49E2-8DE7-30304959F2B2";
name = Bold;
width = 600;
}
);
unicode = 006A;
},
{
glyphname = k;
lastChange = "2016-02-11 05:51:07 +0000";
layers = (
{
layerId = "F2EBC5D5-DDE2-4851-B52F-F2293ECE9CC7";
name = Light;
paths = (
{
closed = 1;
nodes = (
"85 23 CURVE SMOOTH",
"85 534 LINE SMOOTH",
"85 548 OFFCURVE",
"97 559 OFFCURVE",
"110 559 CURVE SMOOTH",
"124 559 OFFCURVE",
"135 548 OFFCURVE",
"135 534 CURVE SMOOTH",
"135 23 LINE SMOOTH",
"135 9 OFFCURVE",
"124 -2 OFFCURVE",
"110 -2 CURVE SMOOTH",
"97 -2 OFFCURVE",
"85 10 OFFCURVE"
);
},
{
closed = 1;
nodes = (
"254 264 CURVE SMOOTH",
"415 38 LINE SMOOTH",
"423 27 OFFCURVE",
"421 10 OFFCURVE",
"410 3 CURVE SMOOTH",
"399 -5 OFFCURVE",
"382 -3 OFFCURVE",
"375 8 CURVE SMOOTH",
"214 234 LINE SMOOTH",
"206 245 OFFCURVE",
"208 262 OFFCURVE",
"219 269 CURVE SMOOTH",
"230 277 OFFCURVE",
"247 275 OFFCURVE"
);
},
{
closed = 1;
nodes = (
"397 345 CURVE SMOOTH",
"127 133 LINE SMOOTH",
"117 125 OFFCURVE",
"101 127 OFFCURVE",
"92 138 CURVE SMOOTH",
"84 148 OFFCURVE",
"86 164 OFFCURVE",
"97 173 CURVE SMOOTH",
"367 385 LINE SMOOTH",
"377 393 OFFCURVE",
"393 391 OFFCURVE",
"402 380 CURVE SMOOTH",
"410 370 OFFCURVE",
"408 354 OFFCURVE"
);
}
);
width = 469;
},
{
layerId = "A309AC34-D742-49E2-8DE7-30304959F2B2";
name = Bold;
width = 600;
}
);
unicode = 006B;
},
{
glyphname = l;
lastChange = "2016-02-11 05:51:42 +0000";
layers = (
{
layerId = "F2EBC5D5-DDE2-4851-B52F-F2293ECE9CC7";
name = Light;
paths = (
{
closed = 1;
nodes = (
"91 23 CURVE SMOOTH",
"91 534 LINE SMOOTH",
"91 548 OFFCURVE",
"103 559 OFFCURVE",
"116 559 CURVE SMOOTH",
"130 559 OFFCURVE",
"141 548 OFFCURVE",
"141 534 CURVE SMOOTH",
"141 23 LINE SMOOTH",
"141 9 OFFCURVE",
"130 -2 OFFCURVE",
"116 -2 CURVE SMOOTH",
"103 -2 OFFCURVE",
"91 10 OFFCURVE"
);
}
);
width = 232;
},
{
layerId = "A309AC34-D742-49E2-8DE7-30304959F2B2";
name = Bold;
width = 600;
}
);
unicode = 006C;
},
{
glyphname = m;
lastChange = "2016-02-11 05:51:56 +0000";
layers = (
{
layerId = "F2EBC5D5-DDE2-4851-B52F-F2293ECE9CC7";
name = Light;
paths = (
{
closed = 1;
nodes = (
"85 23 CURVE SMOOTH",
"85 365 LINE SMOOTH",
"85 379 OFFCURVE",
"97 390 OFFCURVE",
"110 390 CURVE SMOOTH",
"124 390 OFFCURVE",
"135 379 OFFCURVE",
"135 365 CURVE SMOOTH",
"135 23 LINE SMOOTH",
"135 9 OFFCURVE",
"124 -2 OFFCURVE",
"110 -2 CURVE SMOOTH",
"97 -2 OFFCURVE",
"85 10 OFFCURVE"
);
},
{
closed = 1;
nodes = (
"357 23 CURVE SMOOTH",
"357 233 LINE SMOOTH",
"357 312 OFFCURVE",
"322 340 OFFCURVE",
"273 340 CURVE SMOOTH",
"222 340 OFFCURVE",
"170 303 OFFCURVE",
"131 259 CURVE SMOOTH",
"122 249 OFFCURVE",
"105 248 OFFCURVE",
"95 257 CURVE SMOOTH",
"85 266 OFFCURVE",
"84 283 OFFCURVE",
"93 293 CURVE SMOOTH",
"142 347 OFFCURVE",
"210 390 OFFCURVE",
"273 390 CURVE SMOOTH",
"346 390 OFFCURVE",
"407 360 OFFCURVE",
"407 233 CURVE SMOOTH",
"407 23 LINE SMOOTH",
"407 9 OFFCURVE",
"396 -2 OFFCURVE",
"382 -2 CURVE SMOOTH",
"369 -2 OFFCURVE",
"357 10 OFFCURVE"
);
},
{
closed = 1;
nodes = (
"627 23 CURVE SMOOTH",
"627 233 LINE SMOOTH",
"627 312 OFFCURVE",
"592 340 OFFCURVE",
"543 340 CURVE SMOOTH",
"492 340 OFFCURVE",
"440 302 OFFCURVE",
"400 259 CURVE SMOOTH",
"391 249 OFFCURVE",
"375 248 OFFCURVE",
"365 258 CURVE SMOOTH",
"355 267 OFFCURVE",
"354 283 OFFCURVE",
"364 293 CURVE SMOOTH",
"414 348 OFFCURVE",
"480 390 OFFCURVE",
"543 390 CURVE SMOOTH",
"616 390 OFFCURVE",
"677 360 OFFCURVE",
"677 233 CURVE SMOOTH",
"677 23 LINE SMOOTH",
"677 9 OFFCURVE",
"666 -2 OFFCURVE",
"652 -2 CURVE SMOOTH",
"639 -2 OFFCURVE",
"627 10 OFFCURVE"
);
}
);
width = 752;
},
{
layerId = "A309AC34-D742-49E2-8DE7-30304959F2B2";
name = Bold;
width = 600;
}
);
unicode = 006D;
},
{
glyphname = n;
lastChange = "2016-02-11 06:08:06 +0000";
layers = (
{
layerId = "F2EBC5D5-DDE2-4851-B52F-F2293ECE9CC7";
name = Light;
paths = (
{
closed = 1;
nodes = (
"85 23 CURVE SMOOTH",
"85 365 LINE SMOOTH",
"85 379 OFFCURVE",
"97 390 OFFCURVE",
"110 390 CURVE SMOOTH",
"124 390 OFFCURVE",
"135 379 OFFCURVE",
"135 365 CURVE SMOOTH",
"135 23 LINE SMOOTH",
"135 9 OFFCURVE",
"124 -2 OFFCURVE",
"110 -2 CURVE SMOOTH",
"97 -2 OFFCURVE",
"85 10 OFFCURVE"
);
},
{
closed = 1;
nodes = (
"372 23 CURVE SMOOTH",
"372 223 LINE SMOOTH",
"372 305 OFFCURVE",
"338 340 OFFCURVE",
"285 340 CURVE SMOOTH",
"228 340 OFFCURVE",
"175 303 OFFCURVE",
"132 260 CURVE SMOOTH",
"122 251 OFFCURVE",
"106 251 OFFCURVE",
"96 260 CURVE SMOOTH",
"87 270 OFFCURVE",
"87 286 OFFCURVE",
"96 296 CURVE SMOOTH",
"149 349 OFFCURVE",
"216 390 OFFCURVE",
"285 390 CURVE SMOOTH",
"360 390 OFFCURVE",
"422 351 OFFCURVE",
"422 223 CURVE SMOOTH",
"422 23 LINE SMOOTH",
"422 9 OFFCURVE",
"411 -2 OFFCURVE",
"397 -2 CURVE SMOOTH",
"384 -2 OFFCURVE",
"372 10 OFFCURVE"
);
}
);
width = 497;
},
{
layerId = "A309AC34-D742-49E2-8DE7-30304959F2B2";
name = Bold;
width = 600;
}
);
unicode = 006E;
},
{
glyphname = o;
lastChange = "2016-02-11 06:08:19 +0000";
layers = (
{
layerId = "F2EBC5D5-DDE2-4851-B52F-F2293ECE9CC7";
name = Light;
paths = (
{
closed = 1;
nodes = (
"247 394 CURVE SMOOTH",
"369 394 OFFCURVE",
"446 302 OFFCURVE",
"446 189 CURVE SMOOTH",
"446 79 OFFCURVE",
"369 -6 OFFCURVE",
"247 -6 CURVE SMOOTH",
"126 -6 OFFCURVE",
"48 80 OFFCURVE",
"48 191 CURVE",
"48 302 OFFCURVE",
"124 394 OFFCURVE"
);
},
{
closed = 1;
nodes = (
"247 344 CURVE SMOOTH",
"154 344 OFFCURVE",
"98 274 OFFCURVE",
"98 191 CURVE SMOOTH",
"98 108 OFFCURVE",
"156 44 OFFCURVE",
"247 44 CURVE SMOOTH",
"337 44 OFFCURVE",
"396 107 OFFCURVE",
"396 189 CURVE SMOOTH",
"396 274 OFFCURVE",
"339 344 OFFCURVE"
);
}
);
width = 495;
},
{
layerId = "A309AC34-D742-49E2-8DE7-30304959F2B2";
name = Bold;
width = 600;
}
);
unicode = 006F;
},
{
glyphname = p;
lastChange = "2016-02-11 06:08:28 +0000";
layers = (
{
layerId = "F2EBC5D5-DDE2-4851-B52F-F2293ECE9CC7";
name = Light;
paths = (
{
closed = 1;
nodes = (
"85 -168 CURVE SMOOTH",
"85 365 LINE SMOOTH",
"85 379 OFFCURVE",
"97 390 OFFCURVE",
"110 390 CURVE SMOOTH",
"124 390 OFFCURVE",
"135 379 OFFCURVE",
"135 365 CURVE SMOOTH",
"135 -168 LINE SMOOTH",
"135 -182 OFFCURVE",
"124 -193 OFFCURVE",
"110 -193 CURVE SMOOTH",
"97 -193 OFFCURVE",
"85 -182 OFFCURVE"
);
},
{
closed = 1;
nodes = (
"126 106 CURVE SMOOTH",
"167 72 OFFCURVE",
"216 48 OFFCURVE",
"265 48 CURVE SMOOTH",
"349 48 OFFCURVE",
"405 112 OFFCURVE",
"405 194 CURVE SMOOTH",
"405 287 OFFCURVE",
"346 340 OFFCURVE",
"277 340 CURVE SMOOTH",
"219 340 OFFCURVE",
"171 300 OFFCURVE",
"131 244 CURVE SMOOTH",
"124 233 OFFCURVE",
"108 230 OFFCURVE",
"97 238 CURVE SMOOTH",
"86 245 OFFCURVE",
"83 261 OFFCURVE",
"91 272 CURVE SMOOTH",
"141 344 OFFCURVE",
"205 390 OFFCURVE",
"277 390 CURVE SMOOTH",
"370 390 OFFCURVE",
"455 323 OFFCURVE",
"455 194 CURVE SMOOTH",
"455 82 OFFCURVE",
"377 -2 OFFCURVE",
"265 -2 CURVE SMOOTH",
"206 -2 OFFCURVE",
"145 26 OFFCURVE",
"94 68 CURVE SMOOTH",
"84 76 OFFCURVE",
"82 93 OFFCURVE",
"91 103 CURVE SMOOTH",
"99 113 OFFCURVE",
"116 115 OFFCURVE"
);
}
);
width = 503;
},
{
layerId = "A309AC34-D742-49E2-8DE7-30304959F2B2";
name = Bold;
width = 600;
}
);
unicode = 0070;
},
{
glyphname = q;
lastChange = "2016-02-11 06:08:38 +0000";
layers = (
{
layerId = "F2EBC5D5-DDE2-4851-B52F-F2293ECE9CC7";
name = Light;
paths = (
{
closed = 1;
nodes = (
"420 365 CURVE SMOOTH",
"420 -168 LINE SMOOTH",
"420 -182 OFFCURVE",
"409 -193 OFFCURVE",
"395 -193 CURVE SMOOTH",
"382 -193 OFFCURVE",
"370 -182 OFFCURVE",
"370 -168 CURVE SMOOTH",
"370 365 LINE SMOOTH",
"370 379 OFFCURVE",
"382 390 OFFCURVE",
"395 390 CURVE SMOOTH",
"409 390 OFFCURVE",
"420 379 OFFCURVE"
);
},
{
closed = 1;
nodes = (
"382 303 CURVE SMOOTH",
"344 326 OFFCURVE",
"304 340 OFFCURVE",
"251 340 CURVE SMOOTH",
"169 340 OFFCURVE",
"99 279 OFFCURVE",
"99 179 CURVE SMOOTH",
"99 98 OFFCURVE",
"158 48 OFFCURVE",
"222 48 CURVE SMOOTH",
"279 48 OFFCURVE",
"333 80 OFFCURVE",
"373 144 CURVE SMOOTH",
"380 156 OFFCURVE",
"396 159 OFFCURVE",
"407 152 CURVE SMOOTH",
"419 145 OFFCURVE",
"422 129 OFFCURVE",
"415 118 CURVE SMOOTH",
"365 36 OFFCURVE",
"293 -2 OFFCURVE",
"222 -2 CURVE SMOOTH",
"134 -2 OFFCURVE",
"49 64 OFFCURVE",
"49 179 CURVE",
"49 311 OFFCURVE",
"143 390 OFFCURVE",
"251 390 CURVE SMOOTH",
"314 390 OFFCURVE",
"364 374 OFFCURVE",
"408 345 CURVE SMOOTH",
"420 338 OFFCURVE",
"423 322 OFFCURVE",
"416 311 CURVE SMOOTH",
"409 299 OFFCURVE",
"393 296 OFFCURVE"
);
}
);
width = 505;
},
{
layerId = "A309AC34-D742-49E2-8DE7-30304959F2B2";
name = Bold;
width = 600;
}
);
unicode = 0071;
},
{
glyphname = r;
lastChange = "2016-02-11 06:08:50 +0000";
layers = (
{
layerId = "F2EBC5D5-DDE2-4851-B52F-F2293ECE9CC7";
name = Light;
paths = (
{
closed = 1;
nodes = (
"85 23 CURVE SMOOTH",
"85 365 LINE SMOOTH",
"85 379 OFFCURVE",
"97 390 OFFCURVE",
"110 390 CURVE SMOOTH",
"124 390 OFFCURVE",
"135 379 OFFCURVE",
"135 365 CURVE SMOOTH",
"135 23 LINE SMOOTH",
"135 9 OFFCURVE",
"124 -2 OFFCURVE",
"110 -2 CURVE SMOOTH",
"97 -2 OFFCURVE",
"85 10 OFFCURVE"
);
},
{
closed = 1;
nodes = (
"90 248 CURVE SMOOTH",
"141 327 OFFCURVE",
"203 378 OFFCURVE",
"299 390 CURVE SMOOTH",
"312 391 OFFCURVE",
"325 381 OFFCURVE",
"327 368 CURVE SMOOTH",
"328 355 OFFCURVE",
"318 342 OFFCURVE",
"305 340 CURVE SMOOTH",
"225 330 OFFCURVE",
"175 287 OFFCURVE",
"132 220 CURVE SMOOTH",
"125 209 OFFCURVE",
"109 206 OFFCURVE",
"97 213 CURVE SMOOTH",
"86 220 OFFCURVE",
"83 236 OFFCURVE"
);
}
);
width = 346;
},
{
layerId = "A309AC34-D742-49E2-8DE7-30304959F2B2";
name = Bold;
width = 600;
}
);
unicode = 0072;
},
{
glyphname = s;
lastChange = "2016-02-11 06:08:58 +0000";
layers = (
{
layerId = "F2EBC5D5-DDE2-4851-B52F-F2293ECE9CC7";
name = Light;
paths = (
{
closed = 1;
nodes = (
"329 329 CURVE SMOOTH",
"302 336 OFFCURVE",
"266 343 OFFCURVE",
"227 343 CURVE SMOOTH",
"162 343 OFFCURVE",
"124 317 OFFCURVE",
"124 284 CURVE SMOOTH",
"124 254 OFFCURVE",
"160 236 OFFCURVE",
"221 230 CURVE SMOOTH",
"261 226 LINE SMOOTH",
"361 216 OFFCURVE",
"394 162 OFFCURVE",
"394 109 CURVE SMOOTH",
"394 55 OFFCURVE",
"360 -6 OFFCURVE",
"233 -6 CURVE SMOOTH",
"183 -6 OFFCURVE",
"130 4 OFFCURVE",
"83 24 CURVE SMOOTH",
"71 29 OFFCURVE",
"65 45 OFFCURVE",
"70 57 CURVE SMOOTH",
"75 69 OFFCURVE",
"91 75 OFFCURVE",
"103 70 CURVE SMOOTH",
"144 52 OFFCURVE",
"189 44 OFFCURVE",
"233 44 CURVE SMOOTH",
"305 44 OFFCURVE",
"344 71 OFFCURVE",
"344 109 CURVE SMOOTH",
"344 144 OFFCURVE",
"313 170 OFFCURVE",
"257 176 CURVE SMOOTH",
"217 180 LINE SMOOTH",
"98 192 OFFCURVE",
"74 240 OFFCURVE",
"74 284 CURVE SMOOTH",
"74 333 OFFCURVE",
"106 393 OFFCURVE",
"227 393 CURVE SMOOTH",
"272 393 OFFCURVE",
"312 386 OFFCURVE",
"343 377 CURVE SMOOTH",
"356 374 OFFCURVE",
"364 359 OFFCURVE",
"360 346 CURVE SMOOTH",
"357 333 OFFCURVE",
"342 325 OFFCURVE"
);
}
);
width = 450;
},
{
layerId = "A309AC34-D742-49E2-8DE7-30304959F2B2";
name = Bold;
width = 600;
}
);
unicode = 0073;
},
{
glyphname = t;
lastChange = "2016-02-11 06:09:09 +0000";
layers = (
{
layerId = "F2EBC5D5-DDE2-4851-B52F-F2293ECE9CC7";
name = Light;
paths = (
{
closed = 1;
nodes = (
"159 491 CURVE SMOOTH",
"159 140 LINE SMOOTH",
"159 79 OFFCURVE",
"200 50 OFFCURVE",
"279 48 CURVE SMOOTH",
"293 48 OFFCURVE",
"304 36 OFFCURVE",
"304 23 CURVE SMOOTH",
"304 9 OFFCURVE",
"292 -2 OFFCURVE",
"279 -2 CURVE SMOOTH",
"156 0 OFFCURVE",
"109 53 OFFCURVE",
"109 140 CURVE SMOOTH",
"109 491 LINE SMOOTH",
"109 505 OFFCURVE",
"121 516 OFFCURVE",
"134 516 CURVE SMOOTH",
"148 516 OFFCURVE",
"159 505 OFFCURVE"
);
},
{
closed = 1;
nodes = (
"46 390 CURVE SMOOTH",
"292 390 LINE SMOOTH",
"306 390 OFFCURVE",
"317 379 OFFCURVE",
"317 365 CURVE SMOOTH",
"317 352 OFFCURVE",
"306 340 OFFCURVE",
"292 340 CURVE SMOOTH",
"46 340 LINE SMOOTH",
"33 340 OFFCURVE",
"21 352 OFFCURVE",
"21 365 CURVE SMOOTH",
"21 379 OFFCURVE",
"33 390 OFFCURVE"
);
}
);
width = 354;
},
{
layerId = "A309AC34-D742-49E2-8DE7-30304959F2B2";
name = Bold;
width = 600;
}
);
unicode = 0074;
},
{
glyphname = u;
lastChange = "2016-02-11 06:09:19 +0000";
layers = (
{
layerId = "F2EBC5D5-DDE2-4851-B52F-F2293ECE9CC7";
name = Light;
paths = (
{
closed = 1;
nodes = (
"412 365 CURVE SMOOTH",
"412 23 LINE SMOOTH",
"412 9 OFFCURVE",
"401 -2 OFFCURVE",
"387 -2 CURVE SMOOTH",
"374 -2 OFFCURVE",
"362 10 OFFCURVE",
"362 23 CURVE SMOOTH",
"362 365 LINE SMOOTH",
"362 379 OFFCURVE",
"374 390 OFFCURVE",
"387 390 CURVE SMOOTH",
"401 390 OFFCURVE",
"412 379 OFFCURVE"
);
},
{
closed = 1;
nodes = (
"125 365 CURVE SMOOTH",
"125 165 LINE SMOOTH",
"125 83 OFFCURVE",
"159 48 OFFCURVE",
"212 48 CURVE SMOOTH",
"268 48 OFFCURVE",
"326 94 OFFCURVE",
"363 145 CURVE SMOOTH",
"371 156 OFFCURVE",
"387 158 OFFCURVE",
"398 150 CURVE SMOOTH",
"409 142 OFFCURVE",
"411 126 OFFCURVE",
"403 115 CURVE SMOOTH",
"356 50 OFFCURVE",
"282 -2 OFFCURVE",
"212 -2 CURVE SMOOTH",
"137 -2 OFFCURVE",
"75 37 OFFCURVE",
"75 165 CURVE SMOOTH",
"75 365 LINE SMOOTH",
"75 379 OFFCURVE",
"87 390 OFFCURVE",
"100 390 CURVE SMOOTH",
"114 390 OFFCURVE",
"125 379 OFFCURVE"
);
}
);
width = 497;
},
{
layerId = "A309AC34-D742-49E2-8DE7-30304959F2B2";
name = Bold;
width = 600;
}
);
unicode = 0075;
},
{
glyphname = v;
lastChange = "2016-02-11 06:09:34 +0000";
layers = (
{
layerId = "F2EBC5D5-DDE2-4851-B52F-F2293ECE9CC7";
name = Light;
paths = (
{
closed = 1;
nodes = (
"86 374 CURVE SMOOTH",
"145 223 OFFCURVE",
"198 117 OFFCURVE",
"250 32 CURVE",
"229 44 LINE",
"232 44 LINE",
"211 32 LINE",
"262 117 OFFCURVE",
"326 265 OFFCURVE",
"366 374 CURVE SMOOTH",
"370 386 OFFCURVE",
"385 393 OFFCURVE",
"398 388 CURVE SMOOTH",
"410 384 OFFCURVE",
"417 369 OFFCURVE",
"412 356 CURVE SMOOTH",
"372 245 OFFCURVE",
"306 93 OFFCURVE",
"253 6 CURVE SMOOTH",
"249 -1 OFFCURVE",
"240 -6 OFFCURVE",
"232 -6 CURVE SMOOTH",
"229 -6 LINE SMOOTH",
"221 -6 OFFCURVE",
"212 -1 OFFCURVE",
"208 6 CURVE SMOOTH",
"154 93 OFFCURVE",
"99 201 OFFCURVE",
"40 356 CURVE SMOOTH",
"35 369 OFFCURVE",
"41 383 OFFCURVE",
"54 388 CURVE SMOOTH",
"67 393 OFFCURVE",
"81 387 OFFCURVE"
);
}
);
width = 451;
},
{
layerId = "A309AC34-D742-49E2-8DE7-30304959F2B2";
name = Bold;
width = 600;
}
);
unicode = 0076;
},
{
glyphname = w;
lastChange = "2016-02-11 06:09:46 +0000";
layers = (
{
layerId = "F2EBC5D5-DDE2-4851-B52F-F2293ECE9CC7";
name = Light;
paths = (
{
closed = 1;
nodes = (
"97 371 CURVE SMOOTH",
"134 239 OFFCURVE",
"181 116 OFFCURVE",
"222 31 CURVE",
"199 45 LINE",
"201 45 LINE",
"179 31 LINE",
"221 116 OFFCURVE",
"289 254 OFFCURVE",
"322 361 CURVE SMOOTH",
"326 374 OFFCURVE",
"341 382 OFFCURVE",
"353 378 CURVE SMOOTH",
"366 374 OFFCURVE",
"374 359 OFFCURVE",
"370 347 CURVE SMOOTH",
"335 236 OFFCURVE",
"267 96 OFFCURVE",
"223 9 CURVE SMOOTH",
"220 1 OFFCURVE",
"210 -5 OFFCURVE",
"201 -5 CURVE SMOOTH",
"199 -5 LINE SMOOTH",
"190 -5 OFFCURVE",
"180 1 OFFCURVE",
"176 9 CURVE SMOOTH",
"135 96 OFFCURVE",
"86 223 OFFCURVE",
"49 357 CURVE SMOOTH",
"45 370 OFFCURVE",
"53 384 OFFCURVE",
"66 388 CURVE SMOOTH",
"79 392 OFFCURVE",
"93 384 OFFCURVE"
);
},
{
closed = 1;
nodes = (
"377 362 CURVE SMOOTH",
"423 231 OFFCURVE",
"476 116 OFFCURVE",
"521 31 CURVE",
"499 44 LINE",
"501 44 LINE",
"478 29 LINE",
"517 114 OFFCURVE",
"570 251 OFFCURVE",
"603 370 CURVE SMOOTH",
"606 383 OFFCURVE",
"621 391 OFFCURVE",
"634 387 CURVE SMOOTH",
"647 384 OFFCURVE",
"655 369 OFFCURVE",
"651 356 CURVE SMOOTH",
"618 235 OFFCURVE",
"563 96 OFFCURVE",
"524 9 CURVE SMOOTH",
"520 1 OFFCURVE",
"510 -6 OFFCURVE",
"501 -6 CURVE SMOOTH",
"499 -6 LINE SMOOTH",
"491 -6 OFFCURVE",
"481 0 OFFCURVE",
"477 7 CURVE SMOOTH",
"430 94 OFFCURVE",
"377 211 OFFCURVE",
"329 346 CURVE SMOOTH",
"325 358 OFFCURVE",
"332 373 OFFCURVE",
"345 378 CURVE SMOOTH",
"357 382 OFFCURVE",
"372 375 OFFCURVE"
);
}
);
width = 699;
},
{
layerId = "A309AC34-D742-49E2-8DE7-30304959F2B2";
name = Bold;
width = 600;
}
);
unicode = 0077;
},
{
glyphname = x;
lastChange = "2016-02-11 06:09:56 +0000";
layers = (
{
layerId = "F2EBC5D5-DDE2-4851-B52F-F2293ECE9CC7";
name = Light;
paths = (
{
closed = 1;
nodes = (
"44 39 CURVE SMOOTH",
"109 113 OFFCURVE",
"267 283 OFFCURVE",
"344 381 CURVE SMOOTH",
"353 391 OFFCURVE",
"369 393 OFFCURVE",
"380 385 CURVE SMOOTH",
"390 376 OFFCURVE",
"392 360 OFFCURVE",
"384 349 CURVE SMOOTH",
"305 251 OFFCURVE",
"147 81 OFFCURVE",
"82 7 CURVE SMOOTH",
"73 -4 OFFCURVE",
"57 -5 OFFCURVE",
"47 4 CURVE SMOOTH",
"36 13 OFFCURVE",
"35 29 OFFCURVE"
);
},
{
closed = 1;
nodes = (
"95 381 CURVE SMOOTH",
"173 289 OFFCURVE",
"313 142 OFFCURVE",
"403 39 CURVE SMOOTH",
"412 29 OFFCURVE",
"411 13 OFFCURVE",
"400 4 CURVE SMOOTH",
"390 -5 OFFCURVE",
"374 -4 OFFCURVE",
"365 7 CURVE SMOOTH",
"275 110 OFFCURVE",
"135 257 OFFCURVE",
"57 349 CURVE SMOOTH",
"48 359 OFFCURVE",
"50 375 OFFCURVE",
"60 384 CURVE SMOOTH",
"70 393 OFFCURVE",
"86 391 OFFCURVE"
);
}
);
width = 447;
},
{
layerId = "A309AC34-D742-49E2-8DE7-30304959F2B2";
name = Bold;
width = 600;
}
);
unicode = 0078;
},
{
glyphname = y;
lastChange = "2016-02-11 06:10:07 +0000";
layers = (
{
layerId = "F2EBC5D5-DDE2-4851-B52F-F2293ECE9CC7";
name = Light;
paths = (
{
closed = 1;
nodes = (
"51 -129 CURVE SMOOTH",
"110 -95 OFFCURVE",
"164 -53 OFFCURVE",
"217 37 CURVE SMOOTH",
"270 125 OFFCURVE",
"329 261 OFFCURVE",
"362 372 CURVE SMOOTH",
"366 385 OFFCURVE",
"380 393 OFFCURVE",
"393 389 CURVE SMOOTH",
"406 385 OFFCURVE",
"414 371 OFFCURVE",
"410 358 CURVE SMOOTH",
"375 243 OFFCURVE",
"314 103 OFFCURVE",
"261 11 CURVE SMOOTH",
"202 -89 OFFCURVE",
"142 -135 OFFCURVE",
"75 -173 CURVE SMOOTH",
"64 -179 OFFCURVE",
"48 -175 OFFCURVE",
"41 -163 CURVE SMOOTH",
"35 -152 OFFCURVE",
"39 -136 OFFCURVE"
);
},
{
closed = 1;
nodes = (
"89 374 CURVE SMOOTH",
"142 224 OFFCURVE",
"207 115 OFFCURVE",
"257 38 CURVE SMOOTH",
"264 26 OFFCURVE",
"261 10 OFFCURVE",
"250 3 CURVE SMOOTH",
"238 -4 OFFCURVE",
"222 -1 OFFCURVE",
"215 10 CURVE SMOOTH",
"163 91 OFFCURVE",
"96 202 OFFCURVE",
"41 358 CURVE SMOOTH",
"37 370 OFFCURVE",
"44 385 OFFCURVE",
"57 390 CURVE SMOOTH",
"69 394 OFFCURVE",
"84 387 OFFCURVE"
);
}
);
width = 450;
},
{
layerId = "A309AC34-D742-49E2-8DE7-30304959F2B2";
name = Bold;
width = 600;
}
);
unicode = 0079;
},
{
glyphname = z;
lastChange = "2016-02-11 06:10:14 +0000";
layers = (
{
layerId = "F2EBC5D5-DDE2-4851-B52F-F2293ECE9CC7";
name = Light;
paths = (
{
closed = 1;
nodes = (
"355 340 CURVE SMOOTH",
"86 340 LINE SMOOTH",
"73 340 OFFCURVE",
"61 352 OFFCURVE",
"61 365 CURVE SMOOTH",
"61 379 OFFCURVE",
"73 390 OFFCURVE",
"86 390 CURVE SMOOTH",
"355 390 LINE SMOOTH",
"369 390 OFFCURVE",
"380 379 OFFCURVE",
"380 365 CURVE SMOOTH",
"380 352 OFFCURVE",
"369 340 OFFCURVE"
);
},
{
closed = 1;
nodes = (
"71 48 CURVE SMOOTH",
"372 48 LINE SMOOTH",
"386 48 OFFCURVE",
"397 37 OFFCURVE",
"397 23 CURVE SMOOTH",
"397 10 OFFCURVE",
"386 -2 OFFCURVE",
"372 -2 CURVE SMOOTH",
"71 -2 LINE SMOOTH",
"58 -2 OFFCURVE",
"46 10 OFFCURVE",
"46 23 CURVE SMOOTH",
"46 37 OFFCURVE",
"58 48 OFFCURVE"
);
},
{
closed = 1;
nodes = (
"380 349 CURVE SMOOTH",
"96 15 LINE SMOOTH",
"87 5 OFFCURVE",
"71 3 OFFCURVE",
"61 12 CURVE SMOOTH",
"51 21 OFFCURVE",
"49 37 OFFCURVE",
"58 47 CURVE SMOOTH",
"342 381 LINE SMOOTH",
"351 391 OFFCURVE",
"367 393 OFFCURVE",
"377 384 CURVE SMOOTH",
"387 375 OFFCURVE",
"389 359 OFFCURVE"
);
}
);
width = 444;
},
{
layerId = "A309AC34-D742-49E2-8DE7-30304959F2B2";
name = Bold;
width = 600;
}
);
unicode = 007A;
},
{
color = 9;
glyphname = colon;
lastChange = "2016-02-09 04:50:25 +0000";
layers = (
{
layerId = "F2EBC5D5-DDE2-4851-B52F-F2293ECE9CC7";
name = Light;
paths = (
{
closed = 1;
nodes = (
"134 88 OFFCURVE",
"151 97 OFFCURVE",
"151 116 CURVE SMOOTH",
"151 137 OFFCURVE",
"138 151 OFFCURVE",
"117 151 CURVE SMOOTH",
"101 151 OFFCURVE",
"87 139 OFFCURVE",
"87 123 CURVE SMOOTH",
"87 105 OFFCURVE",
"99 88 OFFCURVE",
"121 88 CURVE SMOOTH"
);
},
{
closed = 1;
nodes = (
"134 363 OFFCURVE",
"151 372 OFFCURVE",
"151 391 CURVE SMOOTH",
"151 412 OFFCURVE",
"138 426 OFFCURVE",
"117 426 CURVE SMOOTH",
"101 426 OFFCURVE",
"87 414 OFFCURVE",
"87 398 CURVE SMOOTH",
"87 380 OFFCURVE",
"99 363 OFFCURVE",
"121 363 CURVE SMOOTH"
);
}
);
width = 200;
},
{
layerId = "A309AC34-D742-49E2-8DE7-30304959F2B2";
name = Bold;
paths = (
{
closed = 1;
nodes = (
"146 47 OFFCURVE",
"179 64 OFFCURVE",
"179 105 CURVE SMOOTH",
"179 136 OFFCURVE",
"154 168 OFFCURVE",
"117 168 CURVE SMOOTH",
"85 168 OFFCURVE",
"58 144 OFFCURVE",
"58 109 CURVE SMOOTH",
"58 73 OFFCURVE",
"88 47 OFFCURVE",
"120 47 CURVE SMOOTH"
);
},
{
closed = 1;
nodes = (
"146 327 OFFCURVE",
"179 344 OFFCURVE",
"179 385 CURVE SMOOTH",
"179 416 OFFCURVE",
"154 448 OFFCURVE",
"117 448 CURVE SMOOTH",
"85 448 OFFCURVE",
"58 424 OFFCURVE",
"58 389 CURVE SMOOTH",
"58 353 OFFCURVE",
"88 327 OFFCURVE",
"120 327 CURVE SMOOTH"
);
}
);
width = 200;
}
);
unicode = 003A;
},
{
color = 9;
glyphname = comma;
lastChange = "2016-02-09 04:46:20 +0000";
layers = (
{
background = {
paths = (
{
closed = 1;
nodes = (
"108 -120 OFFCURVE",
"180 -69 OFFCURVE",
"180 2 CURVE SMOOTH",
"180 54 OFFCURVE",
"142 87 OFFCURVE",
"94 87 CURVE SMOOTH",
"82 87 OFFCURVE",
"72 80 OFFCURVE",
"72 68 CURVE SMOOTH",
"72 57 OFFCURVE",
"80 48 OFFCURVE",
"94 48 CURVE SMOOTH",
"117 48 OFFCURVE",
"139 32 OFFCURVE",
"139 3 CURVE SMOOTH",
"139 -29 OFFCURVE",
"123 -58 OFFCURVE",
"76 -83 CURVE SMOOTH",
"63 -90 OFFCURVE",
"54 -97 OFFCURVE",
"54 -107 CURVE SMOOTH",
"54 -115 OFFCURVE",
"60 -120 OFFCURVE",
"72 -120 CURVE SMOOTH"
);
}
);
};
layerId = "F2EBC5D5-DDE2-4851-B52F-F2293ECE9CC7";
name = Light;
paths = (
{
closed = 1;
nodes = (
"123 -101 OFFCURVE",
"167 -64 OFFCURVE",
"167 -10 CURVE SMOOTH",
"167 25 OFFCURVE",
"145 63 OFFCURVE",
"106 63 CURVE SMOOTH",
"82 63 OFFCURVE",
"65 48 OFFCURVE",
"65 26 CURVE SMOOTH",
"65 4 OFFCURVE",
"82 -12 OFFCURVE",
"103 -12 CURVE SMOOTH",
"129 -12 OFFCURVE",
"138 11 OFFCURVE",
"138 27 CURVE",
"120 13 LINE",
"130 4 OFFCURVE",
"135 -7 OFFCURVE",
"135 -21 CURVE SMOOTH",
"135 -47 OFFCURVE",
"116 -66 OFFCURVE",
"97 -75 CURVE SMOOTH",
"87 -80 OFFCURVE",
"84 -84 OFFCURVE",
"84 -89 CURVE SMOOTH",
"84 -96 OFFCURVE",
"89 -101 OFFCURVE",
"98 -101 CURVE SMOOTH"
);
}
);
width = 200;
},
{
background = {
paths = (
{
closed = 1;
nodes = (
"139 -140 OFFCURVE",
"200 -76 OFFCURVE",
"200 1 CURVE SMOOTH",
"200 64 OFFCURVE",
"149 101 OFFCURVE",
"104 101 CURVE SMOOTH",
"75 101 OFFCURVE",
"41 92 OFFCURVE",
"41 56 CURVE SMOOTH",
"41 28 OFFCURVE",
"60 18 OFFCURVE",
"84 18 CURVE SMOOTH",
"97 18 OFFCURVE",
"119 13 OFFCURVE",
"119 -11 CURVE SMOOTH",
"119 -29 OFFCURVE",
"113 -54 OFFCURVE",
"66 -76 CURVE SMOOTH",
"53 -83 OFFCURVE",
"40 -94 OFFCURVE",
"40 -110 CURVE SMOOTH",
"40 -123 OFFCURVE",
"49 -140 OFFCURVE",
"75 -140 CURVE SMOOTH"
);
}
);
};
layerId = "A309AC34-D742-49E2-8DE7-30304959F2B2";
name = Bold;
paths = (
{
closed = 1;
nodes = (
"136 -140 OFFCURVE",
"199 -78 OFFCURVE",
"199 -3 CURVE SMOOTH",
"199 63 OFFCURVE",
"149 101 OFFCURVE",
"102 101 CURVE SMOOTH",
"62 101 OFFCURVE",
"35 74 OFFCURVE",
"35 41 CURVE SMOOTH",
"35 7 OFFCURVE",
"62 -20 OFFCURVE",
"96 -20 CURVE SMOOTH",
"121 -20 OFFCURVE",
"153 -5 OFFCURVE",
"153 34 CURVE",
"106 30 LINE",
"127 17 OFFCURVE",
"133 5 OFFCURVE",
"133 -13 CURVE SMOOTH",
"133 -50 OFFCURVE",
"107 -64 OFFCURVE",
"72 -82 CURVE SMOOTH",
"59 -89 OFFCURVE",
"44 -97 OFFCURVE",
"44 -113 CURVE SMOOTH",
"44 -126 OFFCURVE",
"52 -140 OFFCURVE",
"75 -140 CURVE SMOOTH"
);
}
);
width = 200;
}
);
unicode = 002C;
},
{
color = 9;
glyphname = ellipsis;
lastChange = "2016-02-09 19:38:08 +0000";
layers = (
{
layerId = "F2EBC5D5-DDE2-4851-B52F-F2293ECE9CC7";
name = Light;
paths = (
{
closed = 1;
nodes = (
"126 -12 OFFCURVE",
"141 -4 OFFCURVE",
"141 13 CURVE SMOOTH",
"141 32 OFFCURVE",
"129 45 OFFCURVE",
"110 45 CURVE SMOOTH",
"96 45 OFFCURVE",
"83 34 OFFCURVE",
"83 20 CURVE SMOOTH",
"83 3 OFFCURVE",
"94 -12 OFFCURVE",
"114 -12 CURVE SMOOTH"
);
},
{
closed = 1;
nodes = (
"266 -12 OFFCURVE",
"281 -4 OFFCURVE",
"281 13 CURVE SMOOTH",
"281 32 OFFCURVE",
"269 45 OFFCURVE",
"250 45 CURVE SMOOTH",
"236 45 OFFCURVE",
"223 34 OFFCURVE",
"223 20 CURVE SMOOTH",
"223 3 OFFCURVE",
"234 -12 OFFCURVE",
"254 -12 CURVE SMOOTH"
);
},
{
closed = 1;
nodes = (
"396 -12 OFFCURVE",
"411 -4 OFFCURVE",
"411 13 CURVE SMOOTH",
"411 32 OFFCURVE",
"399 45 OFFCURVE",
"380 45 CURVE SMOOTH",
"366 45 OFFCURVE",
"353 34 OFFCURVE",
"353 20 CURVE SMOOTH",
"353 3 OFFCURVE",
"364 -12 OFFCURVE",
"384 -12 CURVE SMOOTH"
);
}
);
width = 500;
},
{
layerId = "A309AC34-D742-49E2-8DE7-30304959F2B2";
name = Bold;
paths = (
{
closed = 1;
nodes = (
"117 -12 OFFCURVE",
"150 5 OFFCURVE",
"150 46 CURVE SMOOTH",
"150 77 OFFCURVE",
"125 109 OFFCURVE",
"88 109 CURVE SMOOTH",
"56 109 OFFCURVE",
"29 85 OFFCURVE",
"29 50 CURVE SMOOTH",
"29 14 OFFCURVE",
"59 -12 OFFCURVE",
"91 -12 CURVE SMOOTH"
);
},
{
closed = 1;
nodes = (
"277 -12 OFFCURVE",
"310 5 OFFCURVE",
"310 46 CURVE SMOOTH",
"310 77 OFFCURVE",
"285 109 OFFCURVE",
"248 109 CURVE SMOOTH",
"216 109 OFFCURVE",
"189 85 OFFCURVE",
"189 50 CURVE SMOOTH",
"189 14 OFFCURVE",
"219 -12 OFFCURVE",
"251 -12 CURVE SMOOTH"
);
},
{
closed = 1;
nodes = (
"437 -12 OFFCURVE",
"470 5 OFFCURVE",
"470 46 CURVE SMOOTH",
"470 77 OFFCURVE",
"445 109 OFFCURVE",
"408 109 CURVE SMOOTH",
"376 109 OFFCURVE",
"349 85 OFFCURVE",
"349 50 CURVE SMOOTH",
"349 14 OFFCURVE",
"379 -12 OFFCURVE",
"411 -12 CURVE SMOOTH"
);
}
);
width = 500;
}
);
unicode = 2026;
},
{
color = 9;
glyphname = exclam;
lastChange = "2016-02-09 04:50:25 +0000";
layers = (
{
layerId = "F2EBC5D5-DDE2-4851-B52F-F2293ECE9CC7";
name = Light;
paths = (
{
closed = 1;
nodes = (
"191 178 OFFCURVE",
"199 189 OFFCURVE",
"199 203 CURVE SMOOTH",
"199 587 LINE SMOOTH",
"199 601 OFFCURVE",
"190 612 OFFCURVE",
"179 612 CURVE SMOOTH",
"168 612 OFFCURVE",
"159 601 OFFCURVE",
"159 587 CURVE SMOOTH",
"159 203 LINE SMOOTH",
"159 189 OFFCURVE",
"168 178 OFFCURVE",
"179 178 CURVE SMOOTH"
);
},
{
closed = 1;
nodes = (
"194 48 OFFCURVE",
"211 57 OFFCURVE",
"211 76 CURVE SMOOTH",
"211 97 OFFCURVE",
"198 111 OFFCURVE",
"177 111 CURVE SMOOTH",
"161 111 OFFCURVE",
"147 99 OFFCURVE",
"147 83 CURVE SMOOTH",
"147 65 OFFCURVE",
"159 48 OFFCURVE",
"181 48 CURVE SMOOTH"
);
}
);
width = 322;
},
{
layerId = "A309AC34-D742-49E2-8DE7-30304959F2B2";
name = Bold;
paths = (
{
closed = 1;
nodes = (
"206 218 OFFCURVE",
"227 242 OFFCURVE",
"227 274 CURVE SMOOTH",
"227 553 LINE SMOOTH",
"227 585 OFFCURVE",
"206 609 OFFCURVE",
"179 609 CURVE SMOOTH",
"152 609 OFFCURVE",
"132 585 OFFCURVE",
"132 553 CURVE SMOOTH",
"132 274 LINE SMOOTH",
"132 242 OFFCURVE",
"152 218 OFFCURVE",
"179 218 CURVE SMOOTH"
);
},
{
closed = 1;
nodes = (
"207 27 OFFCURVE",
"240 44 OFFCURVE",
"240 85 CURVE SMOOTH",
"240 116 OFFCURVE",
"215 148 OFFCURVE",
"178 148 CURVE SMOOTH",
"146 148 OFFCURVE",
"119 124 OFFCURVE",
"119 89 CURVE SMOOTH",
"119 53 OFFCURVE",
"149 27 OFFCURVE",
"181 27 CURVE SMOOTH"
);
}
);
width = 322;
}
);
unicode = 0021;
},
{
color = 9;
glyphname = period;
lastChange = "2016-02-09 04:50:25 +0000";
layers = (
{
layerId = "F2EBC5D5-DDE2-4851-B52F-F2293ECE9CC7";
name = Light;
paths = (
{
closed = 1;
nodes = (
"126 -12 OFFCURVE",
"141 -4 OFFCURVE",
"141 13 CURVE SMOOTH",
"141 32 OFFCURVE",
"129 45 OFFCURVE",
"110 45 CURVE SMOOTH",
"96 45 OFFCURVE",
"83 34 OFFCURVE",
"83 20 CURVE SMOOTH",
"83 3 OFFCURVE",
"94 -12 OFFCURVE",
"114 -12 CURVE SMOOTH"
);
}
);
width = 200;
},
{
layerId = "A309AC34-D742-49E2-8DE7-30304959F2B2";
name = Bold;
paths = (
{
closed = 1;
nodes = (
"137 -12 OFFCURVE",
"170 5 OFFCURVE",
"170 46 CURVE SMOOTH",
"170 77 OFFCURVE",
"145 109 OFFCURVE",
"108 109 CURVE SMOOTH",
"76 109 OFFCURVE",
"49 85 OFFCURVE",
"49 50 CURVE SMOOTH",
"49 14 OFFCURVE",
"79 -12 OFFCURVE",
"111 -12 CURVE SMOOTH"
);
}
);
width = 200;
}
);
unicode = 002E;
},
{
color = 9;
glyphname = question;
lastChange = "2016-02-09 04:50:25 +0000";
layers = (
{
background = {
paths = (
{
closed = 1;
nodes = (
"188 -12 OFFCURVE",
"212 1 OFFCURVE",
"212 29 CURVE SMOOTH",
"212 58 OFFCURVE",
"193 79 OFFCURVE",
"163 79 CURVE SMOOTH",
"141 79 OFFCURVE",
"120 62 OFFCURVE",
"120 38 CURVE SMOOTH",
"120 12 OFFCURVE",
"137 -12 OFFCURVE",
"169 -12 CURVE SMOOTH"
);
},
{
closed = 1;
nodes = (
"157 18 OFFCURVE",
"150 25 OFFCURVE",
"150 35 CURVE SMOOTH",
"150 42 OFFCURVE",
"157 50 OFFCURVE",
"166 50 CURVE SMOOTH",
"175 50 OFFCURVE",
"182 42 OFFCURVE",
"182 35 CURVE SMOOTH",
"182 25 OFFCURVE",
"175 18 OFFCURVE",
"166 18 CURVE SMOOTH"
);
}
);
};
layerId = "F2EBC5D5-DDE2-4851-B52F-F2293ECE9CC7";
name = Light;
paths = (
{
closed = 1;
nodes = (
"195 114 OFFCURVE",
"204 125 OFFCURVE",
"204 140 CURVE SMOOTH",
"205 201 LINE SMOOTH",
"206 232 OFFCURVE",
"217 254 OFFCURVE",
"249 288 CURVE SMOOTH",
"303 346 OFFCURVE",
"363 384 OFFCURVE",
"363 465 CURVE SMOOTH",
"363 546 OFFCURVE",
"305 596 OFFCURVE",
"223 596 CURVE SMOOTH",
"139 596 OFFCURVE",
"86 543 OFFCURVE",
"86 484 CURVE SMOOTH",
"86 403 OFFCURVE",
"153 381 OFFCURVE",
"174 381 CURVE SMOOTH",
"188 381 OFFCURVE",
"195 387 OFFCURVE",
"195 397 CURVE SMOOTH",
"195 405 OFFCURVE",
"190 410 OFFCURVE",
"181 413 CURVE SMOOTH",
"158 421 OFFCURVE",
"125 436 OFFCURVE",
"125 479 CURVE SMOOTH",
"125 523 OFFCURVE",
"158 558 OFFCURVE",
"223 558 CURVE SMOOTH",
"292 558 OFFCURVE",
"327 509 OFFCURVE",
"327 468 CURVE SMOOTH",
"327 412 OFFCURVE",
"294 383 OFFCURVE",
"229 323 CURVE SMOOTH",
"183 281 OFFCURVE",
"163 251 OFFCURVE",
"163 200 CURVE SMOOTH",
"163 141 LINE SMOOTH",
"163 125 OFFCURVE",
"171 114 OFFCURVE",
"183 114 CURVE SMOOTH"
);
},
{
closed = 1;
nodes = (
"200 -12 OFFCURVE",
"217 -3 OFFCURVE",
"217 16 CURVE SMOOTH",
"217 37 OFFCURVE",
"204 51 OFFCURVE",
"183 51 CURVE SMOOTH",
"167 51 OFFCURVE",
"153 39 OFFCURVE",
"153 23 CURVE SMOOTH",
"153 5 OFFCURVE",
"165 -12 OFFCURVE",
"187 -12 CURVE SMOOTH"
);
}
);
width = 400;
},
{
layerId = "A309AC34-D742-49E2-8DE7-30304959F2B2";
name = Bold;
paths = (
{
closed = 1;
nodes = (
"249 145 OFFCURVE",
"263 175 OFFCURVE",
"264 206 CURVE SMOOTH",
"265 241 LINE SMOOTH",
"267 263 OFFCURVE",
"273 291 OFFCURVE",
"317 327 CURVE SMOOTH",
"358 360 OFFCURVE",
"403 391 OFFCURVE",
"403 461 CURVE SMOOTH",
"403 541 OFFCURVE",
"343 607 OFFCURVE",
"243 607 CURVE SMOOTH",
"147 607 OFFCURVE",
"76 547 OFFCURVE",
"76 470 CURVE SMOOTH",
"76 419 OFFCURVE",
"122 376 OFFCURVE",
"172 376 CURVE SMOOTH",
"196 376 OFFCURVE",
"220 389 OFFCURVE",
"220 417 CURVE SMOOTH",
"220 434 OFFCURVE",
"211 441 OFFCURVE",
"201 447 CURVE SMOOTH",
"188 454 OFFCURVE",
"175 460 OFFCURVE",
"175 482 CURVE SMOOTH",
"175 513 OFFCURVE",
"211 527 OFFCURVE",
"246 527 CURVE SMOOTH",
"279 527 OFFCURVE",
"317 507 OFFCURVE",
"317 468 CURVE SMOOTH",
"317 428 OFFCURVE",
"276 403 OFFCURVE",
"237 370 CURVE SMOOTH",
"173 322 OFFCURVE",
"163 289 OFFCURVE",
"163 240 CURVE SMOOTH",
"163 207 LINE SMOOTH",
"163 173 OFFCURVE",
"181 145 OFFCURVE",
"216 145 CURVE SMOOTH"
);
},
{
closed = 1;
nodes = (
"246 -11 OFFCURVE",
"279 7 OFFCURVE",
"279 45 CURVE SMOOTH",
"279 79 OFFCURVE",
"254 110 OFFCURVE",
"217 110 CURVE SMOOTH",
"185 110 OFFCURVE",
"158 86 OFFCURVE",
"158 51 CURVE SMOOTH",
"158 15 OFFCURVE",
"188 -11 OFFCURVE",
"220 -11 CURVE SMOOTH"
);
}
);
width = 400;
}
);
unicode = 003F;
},
{
color = 9;
glyphname = quotesingle;
lastChange = "2016-02-09 04:50:25 +0000";
layers = (
{
layerId = "F2EBC5D5-DDE2-4851-B52F-F2293ECE9CC7";
name = Light;
paths = (
{
closed = 1;
nodes = (
"223 508 OFFCURVE",
"231 519 OFFCURVE",
"231 533 CURVE SMOOTH",
"231 604 LINE SMOOTH",
"231 618 OFFCURVE",
"222 629 OFFCURVE",
"211 629 CURVE SMOOTH",
"200 629 OFFCURVE",
"191 618 OFFCURVE",
"191 604 CURVE SMOOTH",
"191 533 LINE SMOOTH",
"191 519 OFFCURVE",
"200 508 OFFCURVE",
"211 508 CURVE SMOOTH"
);
}
);
width = 300;
},
{
layerId = "A309AC34-D742-49E2-8DE7-30304959F2B2";
name = Bold;
paths = (
{
closed = 1;
nodes = (
"208 478 OFFCURVE",
"229 502 OFFCURVE",
"229 534 CURVE SMOOTH",
"229 593 LINE SMOOTH",
"229 625 OFFCURVE",
"208 649 OFFCURVE",
"181 649 CURVE SMOOTH",
"154 649 OFFCURVE",
"134 625 OFFCURVE",
"134 593 CURVE SMOOTH",
"134 534 LINE SMOOTH",
"134 502 OFFCURVE",
"154 478 OFFCURVE",
"181 478 CURVE SMOOTH"
);
}
);
width = 300;
}
);
unicode = 0027;
},
{
color = 9;
glyphname = semicolon;
lastChange = "2016-02-09 04:50:25 +0000";
layers = (
{
components = (
{
name = comma;
transform = "{1, 0, 0, 1, -20, 0}";
}
);
layerId = "F2EBC5D5-DDE2-4851-B52F-F2293ECE9CC7";
name = Light;
paths = (
{
closed = 1;
nodes = (
"110 138 OFFCURVE",
"127 147 OFFCURVE",
"127 166 CURVE SMOOTH",
"127 187 OFFCURVE",
"114 201 OFFCURVE",
"93 201 CURVE SMOOTH",
"77 201 OFFCURVE",
"63 189 OFFCURVE",
"63 173 CURVE SMOOTH",
"63 155 OFFCURVE",
"75 138 OFFCURVE",
"97 138 CURVE SMOOTH"
);
}
);
width = 170;
},
{
components = (
{
name = comma;
transform = "{1, 0, 0, 1, 10, 0}";
}
);
layerId = "A309AC34-D742-49E2-8DE7-30304959F2B2";
name = Bold;
paths = (
{
closed = 1;
nodes = (
"147 157 OFFCURVE",
"180 174 OFFCURVE",
"180 215 CURVE SMOOTH",
"180 246 OFFCURVE",
"155 278 OFFCURVE",
"118 278 CURVE SMOOTH",
"86 278 OFFCURVE",
"59 254 OFFCURVE",
"59 219 CURVE SMOOTH",
"59 183 OFFCURVE",
"89 157 OFFCURVE",
"121 157 CURVE SMOOTH"
);
}
);
width = 170;
}
);
unicode = 003B;
},
{
color = 9;
glyphname = bracketleft;
lastChange = "2016-02-09 04:50:25 +0000";
layers = (
{
layerId = "F2EBC5D5-DDE2-4851-B52F-F2293ECE9CC7";
name = Light;
paths = (
{
closed = 1;
nodes = (
"107 -62 OFFCURVE",
"115 -51 OFFCURVE",
"115 -37 CURVE SMOOTH",
"115 634 LINE SMOOTH",
"115 648 OFFCURVE",
"106 659 OFFCURVE",
"95 659 CURVE SMOOTH",
"84 659 OFFCURVE",
"75 648 OFFCURVE",
"75 634 CURVE SMOOTH",
"75 -37 LINE SMOOTH",
"75 -51 OFFCURVE",
"84 -62 OFFCURVE",
"95 -62 CURVE SMOOTH"
);
},
{
closed = 1;
nodes = (
"95 626 LINE",
"173 626 LINE SMOOTH",
"184 626 OFFCURVE",
"193 634 OFFCURVE",
"193 643 CURVE SMOOTH",
"193 652 OFFCURVE",
"184 659 OFFCURVE",
"173 659 CURVE SMOOTH",
"95 659 LINE"
);
},
{
closed = 1;
nodes = (
"95 -62 LINE",
"173 -62 LINE SMOOTH",
"184 -62 OFFCURVE",
"193 -54 OFFCURVE",
"193 -45 CURVE SMOOTH",
"193 -36 OFFCURVE",
"184 -29 OFFCURVE",
"173 -29 CURVE SMOOTH",
"95 -29 LINE"
);
}
);
width = 300;
},
{
layerId = "A309AC34-D742-49E2-8DE7-30304959F2B2";
name = Bold;
paths = (
{
closed = 1;
nodes = (
"94 -82 OFFCURVE",
"115 -58 OFFCURVE",
"115 -26 CURVE SMOOTH",
"115 623 LINE SMOOTH",
"115 655 OFFCURVE",
"94 679 OFFCURVE",
"67 679 CURVE SMOOTH",
"40 679 OFFCURVE",
"20 655 OFFCURVE",
"20 623 CURVE SMOOTH",
"20 -26 LINE SMOOTH",
"20 -58 OFFCURVE",
"40 -82 OFFCURVE",
"67 -82 CURVE SMOOTH"
);
},
{
closed = 1;
nodes = (
"67 594 LINE",
"163 594 LINE SMOOTH",
"189 594 OFFCURVE",
"209 612 OFFCURVE",
"209 637 CURVE SMOOTH",
"209 661 OFFCURVE",
"189 679 OFFCURVE",
"163 679 CURVE SMOOTH",
"67 679 LINE"
);
},
{
closed = 1;
nodes = (
"67 -82 LINE",
"163 -82 LINE SMOOTH",
"189 -82 OFFCURVE",
"209 -64 OFFCURVE",
"209 -39 CURVE SMOOTH",
"209 -15 OFFCURVE",
"189 3 OFFCURVE",
"163 3 CURVE SMOOTH",
"67 3 LINE"
);
}
);
width = 300;
}
);
unicode = 005B;
},
{
color = 9;
glyphname = bracketright;
lastChange = "2016-02-09 04:50:25 +0000";
layers = (
{
layerId = "F2EBC5D5-DDE2-4851-B52F-F2293ECE9CC7";
name = Light;
paths = (
{
closed = 1;
nodes = (
"239 -62 OFFCURVE",
"248 -51 OFFCURVE",
"248 -37 CURVE SMOOTH",
"248 634 LINE SMOOTH",
"248 648 OFFCURVE",
"239 659 OFFCURVE",
"228 659 CURVE SMOOTH",
"217 659 OFFCURVE",
"208 648 OFFCURVE",
"208 634 CURVE SMOOTH",
"208 -37 LINE SMOOTH",
"208 -51 OFFCURVE",
"216 -62 OFFCURVE",
"228 -62 CURVE SMOOTH"
);
},
{
closed = 1;
nodes = (
"150 659 LINE SMOOTH",
"139 659 OFFCURVE",
"130 652 OFFCURVE",
"130 643 CURVE SMOOTH",
"130 634 OFFCURVE",
"139 626 OFFCURVE",
"150 626 CURVE SMOOTH",
"228 626 LINE",
"228 659 LINE"
);
},
{
closed = 1;
nodes = (
"150 -29 LINE SMOOTH",
"139 -29 OFFCURVE",
"130 -36 OFFCURVE",
"130 -45 CURVE SMOOTH",
"130 -54 OFFCURVE",
"139 -62 OFFCURVE",
"150 -62 CURVE SMOOTH",
"228 -62 LINE",
"228 -29 LINE"
);
}
);
width = 300;
},
{
layerId = "A309AC34-D742-49E2-8DE7-30304959F2B2";
name = Bold;
paths = (
{
closed = 1;
nodes = (
"252 -82 OFFCURVE",
"272 -58 OFFCURVE",
"272 -26 CURVE SMOOTH",
"272 623 LINE SMOOTH",
"272 655 OFFCURVE",
"252 679 OFFCURVE",
"225 679 CURVE SMOOTH",
"198 679 OFFCURVE",
"177 655 OFFCURVE",
"177 623 CURVE SMOOTH",
"177 -26 LINE SMOOTH",
"177 -58 OFFCURVE",
"198 -82 OFFCURVE",
"225 -82 CURVE SMOOTH"
);
},
{
closed = 1;
nodes = (
"129 679 LINE SMOOTH",
"103 679 OFFCURVE",
"83 661 OFFCURVE",
"83 637 CURVE SMOOTH",
"83 612 OFFCURVE",
"103 594 OFFCURVE",
"129 594 CURVE SMOOTH",
"225 594 LINE",
"225 679 LINE"
);
},
{
closed = 1;
nodes = (
"129 3 LINE SMOOTH",
"103 3 OFFCURVE",
"83 -15 OFFCURVE",
"83 -39 CURVE SMOOTH",
"83 -64 OFFCURVE",
"103 -82 OFFCURVE",
"129 -82 CURVE SMOOTH",
"225 -82 LINE",
"225 3 LINE"
);
}
);
width = 300;
}
);
unicode = 005D;
},
{
color = 9;
glyphname = parenleft;
lastChange = "2016-02-09 04:50:25 +0000";
layers = (
{
layerId = "F2EBC5D5-DDE2-4851-B52F-F2293ECE9CC7";
name = Light;
paths = (
{
closed = 1;
nodes = (
"209 -82 OFFCURVE",
"212 -72 OFFCURVE",
"212 -65 CURVE SMOOTH",
"212 -28 OFFCURVE",
"121 102 OFFCURVE",
"121 289 CURVE SMOOTH",
"121 475 OFFCURVE",
"212 625 OFFCURVE",
"212 654 CURVE SMOOTH",
"212 660 OFFCURVE",
"208 669 OFFCURVE",
"198 669 CURVE SMOOTH",
"186 669 OFFCURVE",
"177 658 OFFCURVE",
"171 644 CURVE SMOOTH",
"120 524 OFFCURVE",
"81 430 OFFCURVE",
"81 297 CURVE SMOOTH",
"81 145 OFFCURVE",
"132 33 OFFCURVE",
"161 -34 CURVE SMOOTH",
"175 -65 OFFCURVE",
"181 -82 OFFCURVE",
"197 -82 CURVE SMOOTH"
);
}
);
width = 322;
},
{
layerId = "A309AC34-D742-49E2-8DE7-30304959F2B2";
name = Bold;
paths = (
{
closed = 1;
nodes = (
"209 -82 OFFCURVE",
"221 -65 OFFCURVE",
"221 -46 CURVE SMOOTH",
"221 17 OFFCURVE",
"141 77 OFFCURVE",
"141 289 CURVE SMOOTH",
"141 475 OFFCURVE",
"224 592 OFFCURVE",
"224 643 CURVE SMOOTH",
"224 656 OFFCURVE",
"217 680 OFFCURVE",
"187 680 CURVE SMOOTH",
"161 680 OFFCURVE",
"142 658 OFFCURVE",
"128 624 CURVE SMOOTH",
"85 524 OFFCURVE",
"46 430 OFFCURVE",
"46 297 CURVE SMOOTH",
"46 145 OFFCURVE",
"95 34 OFFCURVE",
"123 -28 CURVE SMOOTH",
"142 -70 OFFCURVE",
"165 -82 OFFCURVE",
"185 -82 CURVE SMOOTH"
);
}
);
width = 322;
}
);
unicode = 0028;
},
{
color = 9;
glyphname = parenright;
lastChange = "2016-02-09 04:50:25 +0000";
layers = (
{
layerId = "F2EBC5D5-DDE2-4851-B52F-F2293ECE9CC7";
name = Light;
paths = (
{
closed = 1;
nodes = (
"152 -82 OFFCURVE",
"158 -65 OFFCURVE",
"172 -34 CURVE SMOOTH",
"201 33 OFFCURVE",
"252 145 OFFCURVE",
"252 297 CURVE SMOOTH",
"252 430 OFFCURVE",
"213 524 OFFCURVE",
"162 644 CURVE SMOOTH",
"156 658 OFFCURVE",
"147 669 OFFCURVE",
"135 669 CURVE SMOOTH",
"125 669 OFFCURVE",
"121 660 OFFCURVE",
"121 654 CURVE SMOOTH",
"121 625 OFFCURVE",
"212 475 OFFCURVE",
"212 289 CURVE SMOOTH",
"212 102 OFFCURVE",
"121 -28 OFFCURVE",
"121 -65 CURVE SMOOTH",
"121 -72 OFFCURVE",
"124 -82 OFFCURVE",
"136 -82 CURVE SMOOTH"
);
}
);
width = 322;
},
{
layerId = "A309AC34-D742-49E2-8DE7-30304959F2B2";
name = Bold;
paths = (
{
closed = 1;
nodes = (
"165 -82 OFFCURVE",
"188 -70 OFFCURVE",
"207 -28 CURVE SMOOTH",
"235 34 OFFCURVE",
"284 145 OFFCURVE",
"284 297 CURVE SMOOTH",
"284 430 OFFCURVE",
"245 524 OFFCURVE",
"202 624 CURVE SMOOTH",
"188 658 OFFCURVE",
"169 680 OFFCURVE",
"143 680 CURVE SMOOTH",
"113 680 OFFCURVE",
"106 656 OFFCURVE",
"106 643 CURVE SMOOTH",
"106 592 OFFCURVE",
"189 475 OFFCURVE",
"189 289 CURVE SMOOTH",
"189 77 OFFCURVE",
"109 17 OFFCURVE",
"109 -46 CURVE SMOOTH",
"109 -65 OFFCURVE",
"121 -82 OFFCURVE",
"145 -82 CURVE SMOOTH"
);
}
);
width = 322;
}
);
unicode = 0029;
},
{
color = 9;
glyphname = hyphen;
lastChange = "2016-02-09 04:50:25 +0000";
layers = (
{
layerId = "F2EBC5D5-DDE2-4851-B52F-F2293ECE9CC7";
name = Light;
paths = (
{
closed = 1;
nodes = (
"318 254 LINE SMOOTH",
"329 254 OFFCURVE",
"338 262 OFFCURVE",
"338 271 CURVE SMOOTH",
"338 280 OFFCURVE",
"329 287 OFFCURVE",
"318 287 CURVE SMOOTH",
"60 287 LINE SMOOTH",
"49 287 OFFCURVE",
"40 280 OFFCURVE",
"40 271 CURVE SMOOTH",
"40 262 OFFCURVE",
"49 254 OFFCURVE",
"60 254 CURVE SMOOTH"
);
}
);
width = 378;
},
{
layerId = "A309AC34-D742-49E2-8DE7-30304959F2B2";
name = Bold;
paths = (
{
closed = 1;
nodes = (
"308 232 LINE SMOOTH",
"334 232 OFFCURVE",
"354 250 OFFCURVE",
"354 275 CURVE SMOOTH",
"354 299 OFFCURVE",
"334 317 OFFCURVE",
"308 317 CURVE SMOOTH",
"70 317 LINE SMOOTH",
"44 317 OFFCURVE",
"24 299 OFFCURVE",
"24 275 CURVE SMOOTH",
"24 251 OFFCURVE",
"44 232 OFFCURVE",
"70 232 CURVE SMOOTH"
);
}
);
width = 378;
}
);
unicode = 002D;
},
{
color = 9;
glyphname = quoteleft;
lastChange = "2016-02-09 04:50:25 +0000";
layers = (
{
background = {
paths = (
{
closed = 1;
nodes = (
"182 480 OFFCURVE",
"186 487 OFFCURVE",
"186 493 CURVE SMOOTH",
"186 503 OFFCURVE",
"178 508 OFFCURVE",
"166 517 CURVE SMOOTH",
"129 547 OFFCURVE",
"120 577 OFFCURVE",
"120 599 CURVE SMOOTH",
"120 628 OFFCURVE",
"139 648 OFFCURVE",
"176 648 CURVE SMOOTH",
"192 648 OFFCURVE",
"200 657 OFFCURVE",
"200 668 CURVE SMOOTH",
"200 680 OFFCURVE",
"190 687 OFFCURVE",
"174 687 CURVE SMOOTH",
"120 687 OFFCURVE",
"82 654 OFFCURVE",
"82 602 CURVE SMOOTH",
"82 531 OFFCURVE",
"139 480 OFFCURVE",
"170 480 CURVE SMOOTH"
);
}
);
};
layerId = "F2EBC5D5-DDE2-4851-B52F-F2293ECE9CC7";
name = Light;
paths = (
{
closed = 1;
nodes = (
"162 514 OFFCURVE",
"167 519 OFFCURVE",
"167 526 CURVE SMOOTH",
"167 531 OFFCURVE",
"164 535 OFFCURVE",
"154 540 CURVE SMOOTH",
"135 549 OFFCURVE",
"116 568 OFFCURVE",
"116 594 CURVE SMOOTH",
"116 608 OFFCURVE",
"121 619 OFFCURVE",
"131 628 CURVE",
"113 642 LINE",
"113 626 OFFCURVE",
"122 603 OFFCURVE",
"148 603 CURVE SMOOTH",
"169 603 OFFCURVE",
"186 619 OFFCURVE",
"186 641 CURVE SMOOTH",
"186 663 OFFCURVE",
"169 678 OFFCURVE",
"145 678 CURVE SMOOTH",
"106 678 OFFCURVE",
"84 640 OFFCURVE",
"84 605 CURVE SMOOTH",
"84 551 OFFCURVE",
"128 514 OFFCURVE",
"153 514 CURVE SMOOTH"
);
}
);
width = 300;
},
{
layerId = "A309AC34-D742-49E2-8DE7-30304959F2B2";
name = Bold;
paths = (
{
closed = 1;
nodes = (
"188 476 OFFCURVE",
"196 490 OFFCURVE",
"196 503 CURVE SMOOTH",
"196 519 OFFCURVE",
"181 527 OFFCURVE",
"168 534 CURVE SMOOTH",
"133 552 OFFCURVE",
"107 566 OFFCURVE",
"107 603 CURVE SMOOTH",
"107 621 OFFCURVE",
"113 633 OFFCURVE",
"134 646 CURVE",
"87 650 LINE",
"87 611 OFFCURVE",
"119 596 OFFCURVE",
"144 596 CURVE SMOOTH",
"178 596 OFFCURVE",
"205 623 OFFCURVE",
"205 657 CURVE SMOOTH",
"205 690 OFFCURVE",
"178 717 OFFCURVE",
"138 717 CURVE SMOOTH",
"91 717 OFFCURVE",
"41 679 OFFCURVE",
"41 613 CURVE SMOOTH",
"41 538 OFFCURVE",
"104 476 OFFCURVE",
"165 476 CURVE SMOOTH"
);
}
);
width = 300;
}
);
unicode = 2018;
},
{
color = 9;
glyphname = quoteright;
lastChange = "2016-02-09 04:50:25 +0000";
layers = (
{
layerId = "F2EBC5D5-DDE2-4851-B52F-F2293ECE9CC7";
name = Light;
paths = (
{
closed = 1;
nodes = (
"204 514 OFFCURVE",
"248 551 OFFCURVE",
"248 605 CURVE SMOOTH",
"248 640 OFFCURVE",
"226 678 OFFCURVE",
"187 678 CURVE SMOOTH",
"163 678 OFFCURVE",
"146 663 OFFCURVE",
"146 641 CURVE SMOOTH",
"146 619 OFFCURVE",
"163 603 OFFCURVE",
"184 603 CURVE SMOOTH",
"210 603 OFFCURVE",
"219 626 OFFCURVE",
"219 642 CURVE",
"201 628 LINE",
"211 619 OFFCURVE",
"216 608 OFFCURVE",
"216 594 CURVE SMOOTH",
"216 568 OFFCURVE",
"197 549 OFFCURVE",
"178 540 CURVE SMOOTH",
"168 535 OFFCURVE",
"165 531 OFFCURVE",
"165 526 CURVE SMOOTH",
"165 519 OFFCURVE",
"170 514 OFFCURVE",
"179 514 CURVE SMOOTH"
);
}
);
width = 300;
},
{
layerId = "A309AC34-D742-49E2-8DE7-30304959F2B2";
name = Bold;
paths = (
{
closed = 1;
nodes = (
"187 476 OFFCURVE",
"250 538 OFFCURVE",
"250 613 CURVE SMOOTH",
"250 679 OFFCURVE",
"200 717 OFFCURVE",
"153 717 CURVE SMOOTH",
"113 717 OFFCURVE",
"86 690 OFFCURVE",
"86 657 CURVE SMOOTH",
"86 623 OFFCURVE",
"113 596 OFFCURVE",
"147 596 CURVE SMOOTH",
"172 596 OFFCURVE",
"204 611 OFFCURVE",
"204 650 CURVE",
"157 646 LINE",
"178 633 OFFCURVE",
"184 621 OFFCURVE",
"184 603 CURVE SMOOTH",
"184 566 OFFCURVE",
"158 552 OFFCURVE",
"123 534 CURVE SMOOTH",
"110 527 OFFCURVE",
"95 519 OFFCURVE",
"95 503 CURVE SMOOTH",
"95 490 OFFCURVE",
"103 476 OFFCURVE",
"126 476 CURVE SMOOTH"
);
}
);
width = 300;
}
);
unicode = 2019;
},
{
color = 9;
glyphname = bA;
lastChange = "2016-02-09 04:51:32 +0000";
layers = (
{
background = {
paths = (
{
closed = 1;
nodes = (
"396 165 OFFCURVE",
"338 97 OFFCURVE",
"254 97 CURVE SMOOTH",
"152 97 OFFCURVE",
"73 200 OFFCURVE",
"7 402 CURVE",
"30 411 LINE",
"92 231 OFFCURVE",
"153 155 OFFCURVE",
"240 155 CURVE SMOOTH",
"310 155 OFFCURVE",
"362 204 OFFCURVE",
"362 273 CURVE SMOOTH",
"362 333 OFFCURVE",
"322 375 OFFCURVE",
"274 375 CURVE SMOOTH",
"266 375 OFFCURVE",
"258 374 OFFCURVE",
"250 372 CURVE",
"268 391 LINE",
"279 380 OFFCURVE",
"286 365 OFFCURVE",
"286 346 CURVE SMOOTH",
"286 307 OFFCURVE",
"256 280 OFFCURVE",
"220 280 CURVE SMOOTH",
"183 280 OFFCURVE",
"154 309 OFFCURVE",
"154 347 CURVE SMOOTH",
"154 389 OFFCURVE",
"191 418 OFFCURVE",
"242 418 CURVE SMOOTH",
"323 418 OFFCURVE",
"396 347 OFFCURVE",
"396 252 CURVE"
);
},
{
closed = 1;
nodes = (
"-10 456 LINE",
"-10 491 LINE",
"586 491 LINE",
"586 456 LINE"
);
},
{
closed = 1;
nodes = (
"506 466 LINE",
"506 0 LINE",
"481 0 LINE",
"470 98 OFFCURVE",
"424 174 OFFCURVE",
"370 207 CURVE",
"381 259 LINE",
"413 229 OFFCURVE",
"454 173 OFFCURVE",
"475 110 CURVE",
"466 107 LINE",
"466 466 LINE"
);
}
);
};
layerId = "F2EBC5D5-DDE2-4851-B52F-F2293ECE9CC7";
name = Light;
paths = (
{
closed = 1;
nodes = (
"623 -12 OFFCURVE",
"632 -1 OFFCURVE",
"632 13 CURVE SMOOTH",
"632 470 LINE SMOOTH",
"632 544 OFFCURVE",
"639 554 OFFCURVE",
"673 554 CURVE SMOOTH",
"732 554 LINE SMOOTH",
"743 554 OFFCURVE",
"752 561 OFFCURVE",
"752 571 CURVE SMOOTH",
"752 580 OFFCURVE",
"743 587 OFFCURVE",
"732 587 CURVE SMOOTH",
"661 587 LINE SMOOTH",
"629 587 OFFCURVE",
"594 569 OFFCURVE",
"594 498 CURVE",
"614 515 LINE",
"614 572 OFFCURVE",
"581 587 OFFCURVE",
"537 587 CURVE SMOOTH",
"0 587 LINE SMOOTH",
"-11 587 OFFCURVE",
"-20 580 OFFCURVE",
"-20 571 CURVE SMOOTH",
"-20 561 OFFCURVE",
"-11 554 OFFCURVE",
"0 554 CURVE SMOOTH",
"537 554 LINE SMOOTH",
"587 554 OFFCURVE",
"592 530 OFFCURVE",
"592 477 CURVE SMOOTH",
"592 13 LINE SMOOTH",
"592 -1 OFFCURVE",
"601 -12 OFFCURVE",
"612 -12 CURVE SMOOTH"
);
},
{
closed = 1;
nodes = (
"425 107 OFFCURVE",
"498 180 OFFCURVE",
"498 282 CURVE SMOOTH",
"498 385 OFFCURVE",
"424 472 OFFCURVE",
"318 472 CURVE SMOOTH",
"261 472 OFFCURVE",
"221 438 OFFCURVE",
"221 390 CURVE SMOOTH",
"221 350 OFFCURVE",
"253 313 OFFCURVE",
"297 313 CURVE SMOOTH",
"339 313 OFFCURVE",
"369 347 OFFCURVE",
"369 386 CURVE SMOOTH",
"369 420 OFFCURVE",
"345 447 OFFCURVE",
"308 451 CURVE",
"312 446 LINE",
"379 446 OFFCURVE",
"462 394 OFFCURVE",
"462 295 CURVE SMOOTH",
"462 206 OFFCURVE",
"398 149 OFFCURVE",
"315 149 CURVE SMOOTH",
"166 149 OFFCURVE",
"106 334 OFFCURVE",
"73 440 CURVE SMOOTH",
"70 450 OFFCURVE",
"64 455 OFFCURVE",
"56 455 CURVE SMOOTH",
"46 455 OFFCURVE",
"42 445 OFFCURVE",
"42 439 CURVE SMOOTH",
"42 415 OFFCURVE",
"113 107 OFFCURVE",
"323 107 CURVE SMOOTH"
);
},
{
closed = 1;
nodes = (
"612 95 LINE",
"591 150 OFFCURVE",
"534 205 OFFCURVE",
"469 266 CURVE",
"453 220 LINE",
"528 174 OFFCURVE",
"592 108 OFFCURVE",
"592 39 CURVE"
);
},
{
closed = 1;
nodes = (
"275 351 OFFCURVE",
"257 369 OFFCURVE",
"257 391 CURVE SMOOTH",
"257 413 OFFCURVE",
"275 431 OFFCURVE",
"297 431 CURVE SMOOTH",
"319 431 OFFCURVE",
"337 413 OFFCURVE",
"337 391 CURVE SMOOTH",
"337 369 OFFCURVE",
"319 351 OFFCURVE",
"297 351 CURVE SMOOTH"
);
}
);
width = 732;
},
{
background = {
paths = (
{
closed = 1;
nodes = (
"426 131 OFFCURVE",
"366 57 OFFCURVE",
"271 57 CURVE SMOOTH",
"155 57 OFFCURVE",
"60 167 OFFCURVE",
"-12 398 CURVE",
"40 419 LINE",
"117 211 OFFCURVE",
"183 178 OFFCURVE",
"244 178 CURVE SMOOTH",
"310 178 OFFCURVE",
"355 217 OFFCURVE",
"355 269 CURVE SMOOTH",
"355 309 OFFCURVE",
"329 341 OFFCURVE",
"290 341 CURVE SMOOTH",
"283 341 OFFCURVE",
"274 340 OFFCURVE",
"266 338 CURVE",
"278 391 LINE",
"292 375 OFFCURVE",
"301 352 OFFCURVE",
"301 328 CURVE SMOOTH",
"301 282 OFFCURVE",
"268 253 OFFCURVE",
"227 253 CURVE SMOOTH",
"180 253 OFFCURVE",
"145 292 OFFCURVE",
"145 339 CURVE SMOOTH",
"145 390 OFFCURVE",
"186 428 OFFCURVE",
"249 428 CURVE SMOOTH",
"345 428 OFFCURVE",
"426 340 OFFCURVE",
"426 226 CURVE"
);
},
{
closed = 1;
nodes = (
"-30 456 LINE",
"-30 521 LINE",
"626 521 LINE",
"626 456 LINE"
);
},
{
closed = 1;
nodes = (
"546 466 LINE",
"546 0 LINE",
"486 0 LINE",
"479 78 OFFCURVE",
"429 139 OFFCURVE",
"370 157 CURVE",
"391 259 LINE",
"437 219 OFFCURVE",
"487 144 OFFCURVE",
"515 60 CURVE",
"466 107 LINE",
"466 466 LINE"
);
}
);
};
layerId = "A309AC34-D742-49E2-8DE7-30304959F2B2";
name = Bold;
paths = (
{
closed = 1;
nodes = (
"645 -11 OFFCURVE",
"666 13 OFFCURVE",
"666 45 CURVE SMOOTH",
"666 435 LINE SMOOTH",
"666 491 OFFCURVE",
"666 502 OFFCURVE",
"700 502 CURVE SMOOTH",
"732 502 LINE SMOOTH",
"758 502 OFFCURVE",
"778 520 OFFCURVE",
"778 545 CURVE SMOOTH",
"778 569 OFFCURVE",
"758 587 OFFCURVE",
"732 587 CURVE SMOOTH",
"677 587 LINE SMOOTH",
"621 587 OFFCURVE",
"587 557 OFFCURVE",
"587 502 CURVE",
"608 502 LINE",
"608 558 OFFCURVE",
"571 587 OFFCURVE",
"512 587 CURVE SMOOTH",
"0 587 LINE SMOOTH",
"-26 587 OFFCURVE",
"-46 569 OFFCURVE",
"-46 545 CURVE SMOOTH",
"-46 520 OFFCURVE",
"-26 502 OFFCURVE",
"0 502 CURVE SMOOTH",
"499 502 LINE SMOOTH",
"554 502 OFFCURVE",
"571 485 OFFCURVE",
"571 441 CURVE SMOOTH",
"571 45 LINE SMOOTH",
"571 13 OFFCURVE",
"591 -11 OFFCURVE",
"618 -11 CURVE SMOOTH"
);
},
{
closed = 1;
nodes = (
"435 59 OFFCURVE",
"519 155 OFFCURVE",
"519 272 CURVE SMOOTH",
"519 395 OFFCURVE",
"425 480 OFFCURVE",
"319 480 CURVE SMOOTH",
"242 480 OFFCURVE",
"184 435 OFFCURVE",
"184 362 CURVE SMOOTH",
"184 294 OFFCURVE",
"235 245 OFFCURVE",
"303 245 CURVE SMOOTH",
"374 245 OFFCURVE",
"410 299 OFFCURVE",
"410 350 CURVE SMOOTH",
"410 410 OFFCURVE",
"370 450 OFFCURVE",
"307 450 CURVE",
"324 408 LINE",
"364 408 OFFCURVE",
"428 383 OFFCURVE",
"428 300 CURVE SMOOTH",
"428 234 OFFCURVE",
"383 175 OFFCURVE",
"302 175 CURVE SMOOTH",
"185 175 OFFCURVE",
"132 296 OFFCURVE",
"90 412 CURVE SMOOTH",
"80 441 OFFCURVE",
"68 453 OFFCURVE",
"46 453 CURVE SMOOTH",
"15 453 OFFCURVE",
"3 429 OFFCURVE",
"3 402 CURVE SMOOTH",
"3 342 OFFCURVE",
"88 59 OFFCURVE",
"307 59 CURVE SMOOTH"
);
},
{
closed = 1;
nodes = (
"624 48 LINE",
"624 156 OFFCURVE",
"536 256 OFFCURVE",
"498 280 CURVE",
"465 183 LINE",
"512 152 OFFCURVE",
"571 111 OFFCURVE",
"571 48 CURVE"
);
},
{
closed = 1;
nodes = (
"302 334 OFFCURVE",
"288 349 OFFCURVE",
"288 364 CURVE SMOOTH",
"288 380 OFFCURVE",
"302 393 OFFCURVE",
"318 393 CURVE SMOOTH",
"334 393 OFFCURVE",
"347 380 OFFCURVE",
"347 364 CURVE SMOOTH",
"347 349 OFFCURVE",
"334 334 OFFCURVE",
"318 334 CURVE SMOOTH"
);
}
);
width = 732;
}
);
},
{
color = 9;
glyphname = bI;
lastChange = "2016-02-09 04:52:04 +0000";
layers = (
{
components = (
{
name = bHa;
}
);
layerId = "F2EBC5D5-DDE2-4851-B52F-F2293ECE9CC7";
name = Light;
paths = (
{
closed = 1;
nodes = (
"410 575 LINE",
"410 700 OFFCURVE",
"353 726 OFFCURVE",
"271 726 CURVE SMOOTH",
"215 726 OFFCURVE",
"175 714 OFFCURVE",
"121 714 CURVE SMOOTH",
"23 714 OFFCURVE",
"22 754 OFFCURVE",
"21 799 CURVE SMOOTH",
"21 814 OFFCURVE",
"15 821 OFFCURVE",
"5 821 CURVE SMOOTH",
"-6 821 OFFCURVE",
"-13 814 OFFCURVE",
"-13 786 CURVE SMOOTH",
"-13 701 OFFCURVE",
"53 677 OFFCURVE",
"125 677 CURVE SMOOTH",
"174 677 OFFCURVE",
"235 688 OFFCURVE",
"283 688 CURVE SMOOTH",
"369 688 OFFCURVE",
"372 652 OFFCURVE",
"372 575 CURVE"
);
}
);
width = 488;
},
{
components = (
{
name = bHa;
}
);
layerId = "A309AC34-D742-49E2-8DE7-30304959F2B2";
name = Bold;
paths = (
{
closed = 1;
nodes = (
"409 564 LINE",
"409 683 OFFCURVE",
"365 739 OFFCURVE",
"281 739 CURVE SMOOTH",
"224 739 OFFCURVE",
"168 711 OFFCURVE",
"124 711 CURVE SMOOTH",
"80 711 OFFCURVE",
"58 743 OFFCURVE",
"58 779 CURVE SMOOTH",
"58 808 OFFCURVE",
"42 826 OFFCURVE",
"21 826 CURVE SMOOTH",
"-4 826 OFFCURVE",
"-17 808 OFFCURVE",
"-17 779 CURVE SMOOTH",
"-17 706 OFFCURVE",
"25 624 OFFCURVE",
"132 624 CURVE SMOOTH",
"190 624 OFFCURVE",
"239 648 OFFCURVE",
"275 648 CURVE SMOOTH",
"321 648 OFFCURVE",
"325 623 OFFCURVE",
"325 564 CURVE"
);
}
);
width = 488;
}
);
},
{
color = 9;
glyphname = bIi;
lastChange = "2016-02-13 06:28:29 +0000";
layers = (
{
layerId = "F2EBC5D5-DDE2-4851-B52F-F2293ECE9CC7";
name = Light;
paths = (
{
closed = 1;
nodes = (
"485 24 OFFCURVE",
"487 32 OFFCURVE",
"487 37 CURVE SMOOTH",
"487 69 OFFCURVE",
"415 156 OFFCURVE",
"415 266 CURVE SMOOTH",
"415 389 OFFCURVE",
"505 401 OFFCURVE",
"505 434 CURVE SMOOTH",
"505 442 OFFCURVE",
"499 451 OFFCURVE",
"486 451 CURVE SMOOTH",
"444 451 OFFCURVE",
"378 353 OFFCURVE",
"319 276 CURVE",
"335 276 LINE",
"341 294 OFFCURVE",
"344 313 OFFCURVE",
"344 331 CURVE SMOOTH",
"344 415 OFFCURVE",
"284 491 OFFCURVE",
"193 491 CURVE SMOOTH",
"120 491 OFFCURVE",
"55 443 OFFCURVE",
"55 384 CURVE SMOOTH",
"55 347 OFFCURVE",
"80 306 OFFCURVE",
"127 306 CURVE SMOOTH",
"172 306 OFFCURVE",
"200 343 OFFCURVE",
"200 377 CURVE SMOOTH",
"200 408 OFFCURVE",
"175 442 OFFCURVE",
"136 442 CURVE SMOOTH",
"117 442 OFFCURVE",
"102 434 OFFCURVE",
"89 420 CURVE",
"102 420 LINE",
"127 447 OFFCURVE",
"156 459 OFFCURVE",
"185 459 CURVE SMOOTH",
"249 459 OFFCURVE",
"310 401 OFFCURVE",
"310 316 CURVE SMOOTH",
"310 242 OFFCURVE",
"239 168 OFFCURVE",
"171 168 CURVE SMOOTH",
"130 168 OFFCURVE",
"115 206 OFFCURVE",
"97 206 CURVE SMOOTH",
"91 206 OFFCURVE",
"81 201 OFFCURVE",
"81 190 CURVE SMOOTH",
"81 167 OFFCURVE",
"120 128 OFFCURVE",
"176 128 CURVE SMOOTH",
"274 128 OFFCURVE",
"351 248 OFFCURVE",
"387 304 CURVE",
"374 323 LINE",
"373 224 OFFCURVE",
"391 141 OFFCURVE",
"441 55 CURVE SMOOTH",
"452 35 OFFCURVE",
"462 24 OFFCURVE",
"474 24 CURVE SMOOTH"
);
},
{
closed = 1;
nodes = (
"115 344 OFFCURVE",
"93 354 OFFCURVE",
"93 380 CURVE SMOOTH",
"93 403 OFFCURVE",
"109 416 OFFCURVE",
"129 416 CURVE SMOOTH",
"152 416 OFFCURVE",
"165 399 OFFCURVE",
"165 380 CURVE SMOOTH",
"165 355 OFFCURVE",
"144 344 OFFCURVE",
"129 344 CURVE SMOOTH"
);
},
{
closed = 1;
nodes = (
"538 554 LINE SMOOTH",
"549 554 OFFCURVE",
"558 562 OFFCURVE",
"558 571 CURVE SMOOTH",
"558 580 OFFCURVE",
"549 587 OFFCURVE",
"538 587 CURVE SMOOTH",
"0 587 LINE SMOOTH",
"-11 587 OFFCURVE",
"-20 580 OFFCURVE",
"-20 571 CURVE SMOOTH",
"-20 562 OFFCURVE",
"-11 554 OFFCURVE",
"0 554 CURVE SMOOTH"
);
},
{
closed = 1;
nodes = (
"460 575 LINE",
"460 700 OFFCURVE",
"403 726 OFFCURVE",
"321 726 CURVE SMOOTH",
"265 726 OFFCURVE",
"225 714 OFFCURVE",
"171 714 CURVE SMOOTH",
"73 714 OFFCURVE",
"72 754 OFFCURVE",
"71 799 CURVE SMOOTH",
"71 814 OFFCURVE",
"65 821 OFFCURVE",
"55 821 CURVE SMOOTH",
"44 821 OFFCURVE",
"37 814 OFFCURVE",
"37 786 CURVE SMOOTH",
"37 701 OFFCURVE",
"103 677 OFFCURVE",
"175 677 CURVE SMOOTH",
"224 677 OFFCURVE",
"285 688 OFFCURVE",
"333 688 CURVE SMOOTH",
"419 688 OFFCURVE",
"422 652 OFFCURVE",
"422 575 CURVE"
);
}
);
width = 538;
},
{
layerId = "A309AC34-D742-49E2-8DE7-30304959F2B2";
name = Bold;
paths = (
{
closed = 1;
nodes = (
"489 8 OFFCURVE",
"501 24 OFFCURVE",
"501 42 CURVE SMOOTH",
"501 86 OFFCURVE",
"417 138 OFFCURVE",
"417 231 CURVE SMOOTH",
"417 334 OFFCURVE",
"519 357 OFFCURVE",
"519 411 CURVE SMOOTH",
"519 436 OFFCURVE",
"500 451 OFFCURVE",
"478 451 CURVE SMOOTH",
"433 451 OFFCURVE",
"379 391 OFFCURVE",
"327 317 CURVE",
"336 226 LINE",
"350 260 OFFCURVE",
"356 291 OFFCURVE",
"356 320 CURVE SMOOTH",
"356 421 OFFCURVE",
"279 484 OFFCURVE",
"187 484 CURVE SMOOTH",
"104 484 OFFCURVE",
"32 436 OFFCURVE",
"32 364 CURVE SMOOTH",
"32 316 OFFCURVE",
"64 259 OFFCURVE",
"137 259 CURVE SMOOTH",
"211 259 OFFCURVE",
"236 317 OFFCURVE",
"236 358 CURVE SMOOTH",
"236 411 OFFCURVE",
"193 439 OFFCURVE",
"158 439 CURVE SMOOTH",
"140 439 OFFCURVE",
"120 432 OFFCURVE",
"104 416 CURVE",
"122 401 LINE",
"148 416 OFFCURVE",
"167 419 OFFCURVE",
"183 419 CURVE SMOOTH",
"268 419 OFFCURVE",
"285 338 OFFCURVE",
"285 302 CURVE SMOOTH",
"285 244 OFFCURVE",
"242 180 OFFCURVE",
"177 180 CURVE SMOOTH",
"125 180 OFFCURVE",
"122 220 OFFCURVE",
"89 220 CURVE SMOOTH",
"70 220 OFFCURVE",
"54 207 OFFCURVE",
"54 183 CURVE SMOOTH",
"54 141 OFFCURVE",
"102 81 OFFCURVE",
"181 81 CURVE SMOOTH",
"265 81 OFFCURVE",
"334 150 OFFCURVE",
"367 209 CURVE",
"338 204 LINE",
"344 154 OFFCURVE",
"370 90 OFFCURVE",
"403 48 CURVE SMOOTH",
"429 15 OFFCURVE",
"449 8 OFFCURVE",
"465 8 CURVE SMOOTH"
);
},
{
closed = 1;
nodes = (
"126 335 OFFCURVE",
"113 348 OFFCURVE",
"113 364 CURVE SMOOTH",
"113 380 OFFCURVE",
"126 393 OFFCURVE",
"142 393 CURVE SMOOTH",
"158 393 OFFCURVE",
"171 380 OFFCURVE",
"171 364 CURVE SMOOTH",
"171 348 OFFCURVE",
"158 335 OFFCURVE",
"142 335 CURVE SMOOTH"
);
},
{
closed = 1;
nodes = (
"538 502 LINE SMOOTH",
"564 502 OFFCURVE",
"584 520 OFFCURVE",
"584 545 CURVE SMOOTH",
"584 569 OFFCURVE",
"564 587 OFFCURVE",
"538 587 CURVE SMOOTH",
"0 587 LINE SMOOTH",
"-26 587 OFFCURVE",
"-46 569 OFFCURVE",
"-46 545 CURVE SMOOTH",
"-46 521 OFFCURVE",
"-26 502 OFFCURVE",
"0 502 CURVE SMOOTH"
);
},
{
closed = 1;
nodes = (
"461 564 LINE",
"461 684 OFFCURVE",
"415 739 OFFCURVE",
"332 739 CURVE SMOOTH",
"273 739 OFFCURVE",
"221 711 OFFCURVE",
"172 711 CURVE SMOOTH",
"110 711 OFFCURVE",
"98 739 OFFCURVE",
"98 779 CURVE SMOOTH",
"98 808 OFFCURVE",
"85 826 OFFCURVE",
"61 826 CURVE SMOOTH",
"36 826 OFFCURVE",
"23 805 OFFCURVE",
"23 779 CURVE SMOOTH",
"23 682 OFFCURVE",
"77 622 OFFCURVE",
"179 622 CURVE SMOOTH",
"243 622 OFFCURVE",
"288 646 OFFCURVE",
"325 646 CURVE SMOOTH",
"371 646 OFFCURVE",
"375 622 OFFCURVE",
"375 564 CURVE"
);
}
);
width = 538;
}
);
},
{
color = 9;
glyphname = bU;
lastChange = "2016-02-08 13:50:33 +0000";
layers = (
{
components = (
{
name = bDda;
}
);
layerId = "F2EBC5D5-DDE2-4851-B52F-F2293ECE9CC7";
name = Light;
paths = (
{
closed = 1;
nodes = (
"520 575 LINE",
"520 701 OFFCURVE",
"463 732 OFFCURVE",
"370 732 CURVE SMOOTH",
"299 732 OFFCURVE",
"225 714 OFFCURVE",
"148 714 CURVE SMOOTH",
"33 714 OFFCURVE",
"29 754 OFFCURVE",
"26 799 CURVE SMOOTH",
"25 813 OFFCURVE",
"22 821 OFFCURVE",
"10 821 CURVE SMOOTH",
"-1 821 OFFCURVE",
"-8 813 OFFCURVE",
"-8 787 CURVE SMOOTH",
"-8 698 OFFCURVE",
"70 675 OFFCURVE",
"144 675 CURVE SMOOTH",
"207 675 OFFCURVE",
"302 692 OFFCURVE",
"372 692 CURVE SMOOTH",
"479 692 OFFCURVE",
"482 652 OFFCURVE",
"482 575 CURVE"
);
}
);
width = 594;
},
{
components = (
{
name = bDda;
}
);
layerId = "A309AC34-D742-49E2-8DE7-30304959F2B2";
name = Bold;
paths = (
{
closed = 1;
nodes = (
"532 566 LINE",
"534 702 OFFCURVE",
"470 752 OFFCURVE",
"380 752 CURVE SMOOTH",
"282 752 OFFCURVE",
"211 706 OFFCURVE",
"140 706 CURVE SMOOTH",
"92 706 OFFCURVE",
"74 732 OFFCURVE",
"65 781 CURVE SMOOTH",
"62 799 OFFCURVE",
"56 827 OFFCURVE",
"25 827 CURVE SMOOTH",
"5 827 OFFCURVE",
"-15 815 OFFCURVE",
"-15 775 CURVE SMOOTH",
"-15 710 OFFCURVE",
"36 617 OFFCURVE",
"153 617 CURVE SMOOTH",
"229 617 OFFCURVE",
"308 657 OFFCURVE",
"372 657 CURVE SMOOTH",
"436 657 OFFCURVE",
"442 619 OFFCURVE",
"442 566 CURVE"
);
}
);
width = 594;
}
);
},
{
color = 9;
glyphname = bUu;
lastChange = "2016-02-13 06:29:30 +0000";
layers = (
{
layerId = "F2EBC5D5-DDE2-4851-B52F-F2293ECE9CC7";
name = Light;
paths = (
{
closed = 1;
nodes = (
"523 30 OFFCURVE",
"603 119 OFFCURVE",
"603 231 CURVE SMOOTH",
"603 320 OFFCURVE",
"563 394 OFFCURVE",
"525 394 CURVE SMOOTH",
"507 394 OFFCURVE",
"505 377 OFFCURVE",
"505 361 CURVE SMOOTH",
"505 312 OFFCURVE",
"473 263 OFFCURVE",
"421 263 CURVE SMOOTH",
"373 263 OFFCURVE",
"332 305 OFFCURVE",
"332 416 CURVE SMOOTH",
"332 497 OFFCURVE",
"354 554 OFFCURVE",
"418 554 CURVE SMOOTH",
"643 554 LINE SMOOTH",
"654 554 OFFCURVE",
"663 562 OFFCURVE",
"663 571 CURVE SMOOTH",
"663 580 OFFCURVE",
"654 587 OFFCURVE",
"643 587 CURVE SMOOTH",
"398 587 LINE SMOOTH",
"359 587 OFFCURVE",
"319 553 OFFCURVE",
"326 534 CURVE",
"338 529 LINE",
"335 569 OFFCURVE",
"294 587 OFFCURVE",
"246 587 CURVE SMOOTH",
"0 587 LINE SMOOTH",
"-11 587 OFFCURVE",
"-20 580 OFFCURVE",
"-20 571 CURVE SMOOTH",
"-20 562 OFFCURVE",
"-11 554 OFFCURVE",
"0 554 CURVE SMOOTH",
"240 554 LINE SMOOTH",
"276 554 OFFCURVE",
"309 554 OFFCURVE",
"309 515 CURVE SMOOTH",
"309 490 OFFCURVE",
"296 459 OFFCURVE",
"296 402 CURVE SMOOTH",
"296 284 OFFCURVE",
"351 222 OFFCURVE",
"426 222 CURVE SMOOTH",
"525 222 OFFCURVE",
"544 343 OFFCURVE",
"544 364 CURVE",
"530 355 LINE",
"560 319 OFFCURVE",
"567 279 OFFCURVE",
"567 244 CURVE SMOOTH",
"567 138 OFFCURVE",
"493 79 OFFCURVE",
"405 79 CURVE SMOOTH",
"256 79 OFFCURVE",
"174 251 OFFCURVE",
"174 458 CURVE SMOOTH",
"174 474 OFFCURVE",
"171 485 OFFCURVE",
"159 485 CURVE SMOOTH",
"142 485 OFFCURVE",
"140 463 OFFCURVE",
"140 426 CURVE SMOOTH",
"140 310 OFFCURVE",
"171 193 OFFCURVE",
"245 118 CURVE",
"245 126 LINE",
"166 175 OFFCURVE",
"96 308 OFFCURVE",
"88 446 CURVE SMOOTH",
"87 458 OFFCURVE",
"80 466 OFFCURVE",
"70 466 CURVE SMOOTH",
"61 466 OFFCURVE",
"55 458 OFFCURVE",
"55 448 CURVE SMOOTH",
"55 258 OFFCURVE",
"206 30 OFFCURVE",
"414 30 CURVE SMOOTH"
);
},
{
closed = 1;
nodes = (
"560 575 LINE",
"560 701 OFFCURVE",
"503 732 OFFCURVE",
"410 732 CURVE SMOOTH",
"339 732 OFFCURVE",
"265 714 OFFCURVE",
"188 714 CURVE SMOOTH",
"73 714 OFFCURVE",
"69 754 OFFCURVE",
"66 799 CURVE SMOOTH",
"65 813 OFFCURVE",
"62 821 OFFCURVE",
"50 821 CURVE SMOOTH",
"39 821 OFFCURVE",
"32 813 OFFCURVE",
"32 787 CURVE SMOOTH",
"32 698 OFFCURVE",
"110 675 OFFCURVE",
"184 675 CURVE SMOOTH",
"247 675 OFFCURVE",
"342 692 OFFCURVE",
"412 692 CURVE SMOOTH",
"519 692 OFFCURVE",
"522 652 OFFCURVE",
"522 575 CURVE"
);
}
);
width = 643;
},
{
layerId = "A309AC34-D742-49E2-8DE7-30304959F2B2";
name = Bold;
paths = (
{
closed = 1;
nodes = (
"526 12 OFFCURVE",
"622 98 OFFCURVE",
"622 235 CURVE SMOOTH",
"622 335 OFFCURVE",
"570 405 OFFCURVE",
"520 405 CURVE SMOOTH",
"494 405 OFFCURVE",
"490 387 OFFCURVE",
"485 358 CURVE SMOOTH",
"476 312 OFFCURVE",
"447 302 OFFCURVE",
"425 302 CURVE SMOOTH",
"387 302 OFFCURVE",
"356 337 OFFCURVE",
"356 388 CURVE SMOOTH",
"356 444 OFFCURVE",
"383 502 OFFCURVE",
"447 502 CURVE SMOOTH",
"643 502 LINE SMOOTH",
"669 502 OFFCURVE",
"689 520 OFFCURVE",
"689 545 CURVE SMOOTH",
"689 569 OFFCURVE",
"669 587 OFFCURVE",
"643 587 CURVE SMOOTH",
"425 587 LINE SMOOTH",
"360 587 OFFCURVE",
"297 539 OFFCURVE",
"297 509 CURVE",
"325 509 LINE",
"325 548 OFFCURVE",
"278 587 OFFCURVE",
"223 587 CURVE SMOOTH",
"0 587 LINE SMOOTH",
"-26 587 OFFCURVE",
"-46 569 OFFCURVE",
"-46 545 CURVE SMOOTH",
"-46 521 OFFCURVE",
"-26 502 OFFCURVE",
"0 502 CURVE SMOOTH",
"214 502 LINE SMOOTH",
"257 502 OFFCURVE",
"273 482 OFFCURVE",
"273 466 CURVE SMOOTH",
"273 451 OFFCURVE",
"260 411 OFFCURVE",
"260 363 CURVE SMOOTH",
"260 282 OFFCURVE",
"320 205 OFFCURVE",
"410 205 CURVE SMOOTH",
"495 205 OFFCURVE",
"536 277 OFFCURVE",
"536 310 CURVE",
"500 317 LINE",
"521 298 OFFCURVE",
"533 269 OFFCURVE",
"533 235 CURVE SMOOTH",
"533 186 OFFCURVE",
"488 121 OFFCURVE",
"404 121 CURVE SMOOTH",
"225 121 OFFCURVE",
"212 314 OFFCURVE",
"205 422 CURVE SMOOTH",
"204 442 OFFCURVE",
"201 476 OFFCURVE",
"164 476 CURVE SMOOTH",
"136 476 OFFCURVE",
"126 457 OFFCURVE",
"126 410 CURVE SMOOTH",
"126 376 OFFCURVE",
"131 294 OFFCURVE",
"152 234 CURVE",
"155 239 LINE",
"114 317 OFFCURVE",
"110 343 OFFCURVE",
"98 422 CURVE SMOOTH",
"94 447 OFFCURVE",
"83 468 OFFCURVE",
"55 468 CURVE SMOOTH",
"20 468 OFFCURVE",
"15 435 OFFCURVE",
"15 410 CURVE SMOOTH",
"15 289 OFFCURVE",
"132 12 OFFCURVE",
"385 12 CURVE SMOOTH"
);
},
{
closed = 1;
nodes = (
"582 565 LINE",
"584 710 OFFCURVE",
"514 752 OFFCURVE",
"427 752 CURVE SMOOTH",
"336 752 OFFCURVE",
"248 706 OFFCURVE",
"181 706 CURVE SMOOTH",
"131 706 OFFCURVE",
"114 732 OFFCURVE",
"105 781 CURVE SMOOTH",
"102 799 OFFCURVE",
"96 827 OFFCURVE",
"65 827 CURVE SMOOTH",
"45 827 OFFCURVE",
"25 815 OFFCURVE",
"25 775 CURVE SMOOTH",
"25 710 OFFCURVE",
"76 617 OFFCURVE",
"193 617 CURVE SMOOTH",
"269 617 OFFCURVE",
"360 657 OFFCURVE",
"420 657 CURVE SMOOTH",
"486 657 OFFCURVE",
"491 625 OFFCURVE",
"491 565 CURVE"
);
}
);
width = 643;
}
);
},
{
color = 9;
glyphname = bVocalicR;
lastChange = "2016-02-13 06:30:11 +0000";
layers = (
{
layerId = "F2EBC5D5-DDE2-4851-B52F-F2293ECE9CC7";
name = Light;
paths = (
{
closed = 1;
nodes = (
"393 115 LINE",
"363 199 OFFCURVE",
"210 282 OFFCURVE",
"55 302 CURVE",
"73 287 LINE",
"313 371 OFFCURVE",
"402 414 OFFCURVE",
"402 485 CURVE SMOOTH",
"402 548 OFFCURVE",
"333 590 OFFCURVE",
"285 590 CURVE SMOOTH",
"205 590 OFFCURVE",
"228 470 OFFCURVE",
"139 470 CURVE SMOOTH",
"121 470 OFFCURVE",
"99 475 OFFCURVE",
"89 480 CURVE",
"83 466 LINE",
"132 466 OFFCURVE",
"157 492 OFFCURVE",
"157 527 CURVE SMOOTH",
"157 566 OFFCURVE",
"126 589 OFFCURVE",
"92 589 CURVE SMOOTH",
"55 589 OFFCURVE",
"26 563 OFFCURVE",
"26 525 CURVE SMOOTH",
"26 481 OFFCURVE",
"66 438 OFFCURVE",
"138 438 CURVE SMOOTH",
"256 438 OFFCURVE",
"245 556 OFFCURVE",
"296 556 CURVE SMOOTH",
"321 556 OFFCURVE",
"370 527 OFFCURVE",
"370 491 CURVE SMOOTH",
"370 444 OFFCURVE",
"284 410 OFFCURVE",
"70 326 CURVE SMOOTH",
"50 318 OFFCURVE",
"45 306 OFFCURVE",
"45 295 CURVE SMOOTH",
"45 276 OFFCURVE",
"60 266 OFFCURVE",
"83 260 CURVE SMOOTH",
"142 245 OFFCURVE",
"378 182 OFFCURVE",
"378 58 CURVE"
);
},
{
closed = 1;
nodes = (
"73 488 OFFCURVE",
"57 503 OFFCURVE",
"57 523 CURVE SMOOTH",
"57 543 OFFCURVE",
"73 558 OFFCURVE",
"92 558 CURVE SMOOTH",
"112 558 OFFCURVE",
"127 543 OFFCURVE",
"127 523 CURVE SMOOTH",
"127 503 OFFCURVE",
"112 488 OFFCURVE",
"92 488 CURVE SMOOTH"
);
},
{
closed = 1;
nodes = (
"545 90 LINE",
"545 174 OFFCURVE",
"418 195 OFFCURVE",
"418 297 CURVE",
"385 267 LINE",
"385 176 OFFCURVE",
"526 142 OFFCURVE",
"526 63 CURVE"
);
},
{
closed = 1;
nodes = (
"409 -12 OFFCURVE",
"418 -1 OFFCURVE",
"418 13 CURVE SMOOTH",
"418 584 LINE SMOOTH",
"418 598 OFFCURVE",
"409 609 OFFCURVE",
"398 609 CURVE SMOOTH",
"387 609 OFFCURVE",
"378 597 OFFCURVE",
"378 583 CURVE SMOOTH",
"378 13 LINE SMOOTH",
"378 -1 OFFCURVE",
"387 -12 OFFCURVE",
"398 -12 CURVE SMOOTH"
);
},
{
closed = 1;
nodes = (
"557 33 OFFCURVE",
"566 44 OFFCURVE",
"566 58 CURVE SMOOTH",
"566 470 LINE SMOOTH",
"566 544 OFFCURVE",
"573 554 OFFCURVE",
"607 554 CURVE SMOOTH",
"666 554 LINE SMOOTH",
"677 554 OFFCURVE",
"686 561 OFFCURVE",
"686 571 CURVE SMOOTH",
"686 580 OFFCURVE",
"677 587 OFFCURVE",
"666 587 CURVE SMOOTH",
"595 587 LINE SMOOTH",
"546 587 OFFCURVE",
"526 558 OFFCURVE",
"526 482 CURVE SMOOTH",
"526 58 LINE SMOOTH",
"526 44 OFFCURVE",
"535 33 OFFCURVE",
"546 33 CURVE SMOOTH"
);
}
);
width = 665;
},
{
layerId = "A309AC34-D742-49E2-8DE7-30304959F2B2";
name = Bold;
paths = (
{
closed = 1;
nodes = (
"436 72 LINE",
"436 170 OFFCURVE",
"274 273 OFFCURVE",
"167 273 CURVE",
"164 254 LINE",
"357 310 OFFCURVE",
"402 384 OFFCURVE",
"402 451 CURVE SMOOTH",
"402 518 OFFCURVE",
"358 587 OFFCURVE",
"301 587 CURVE SMOOTH",
"208 587 OFFCURVE",
"228 458 OFFCURVE",
"163 458 CURVE SMOOTH",
"149 458 OFFCURVE",
"137 464 OFFCURVE",
"130 466 CURVE",
"128 442 LINE",
"168 442 OFFCURVE",
"187 471 OFFCURVE",
"187 504 CURVE SMOOTH",
"187 538 OFFCURVE",
"167 591 OFFCURVE",
"101 591 CURVE SMOOTH",
"35 591 OFFCURVE",
"4 538 OFFCURVE",
"4 493 CURVE SMOOTH",
"4 446 OFFCURVE",
"51 383 OFFCURVE",
"133 383 CURVE SMOOTH",
"259 383 OFFCURVE",
"282 495 OFFCURVE",
"320 495 CURVE SMOOTH",
"331 495 OFFCURVE",
"337 488 OFFCURVE",
"337 476 CURVE SMOOTH",
"337 426 OFFCURVE",
"273 391 OFFCURVE",
"100 328 CURVE SMOOTH",
"62 314 OFFCURVE",
"51 294 OFFCURVE",
"51 272 CURVE SMOOTH",
"51 238 OFFCURVE",
"78 216 OFFCURVE",
"116 205 CURVE SMOOTH",
"168 190 OFFCURVE",
"367 131 OFFCURVE",
"367 52 CURVE"
);
},
{
closed = 1;
nodes = (
"87 469 OFFCURVE",
"75 481 OFFCURVE",
"75 495 CURVE SMOOTH",
"75 509 OFFCURVE",
"87 521 OFFCURVE",
"101 521 CURVE SMOOTH",
"115 521 OFFCURVE",
"127 509 OFFCURVE",
"127 495 CURVE SMOOTH",
"127 481 OFFCURVE",
"115 469 OFFCURVE",
"101 469 CURVE SMOOTH"
);
},
{
closed = 1;
nodes = (
"546 110 LINE",
"546 243 OFFCURVE",
"462 213 OFFCURVE",
"462 335 CURVE",
"436 234 LINE",
"436 177 OFFCURVE",
"504 181 OFFCURVE",
"504 93 CURVE"
);
},
{
closed = 1;
nodes = (
"442 -12 OFFCURVE",
"462 12 OFFCURVE",
"462 44 CURVE SMOOTH",
"462 553 LINE SMOOTH",
"462 585 OFFCURVE",
"442 609 OFFCURVE",
"415 609 CURVE SMOOTH",
"388 609 OFFCURVE",
"367 585 OFFCURVE",
"367 553 CURVE SMOOTH",
"367 44 LINE SMOOTH",
"367 12 OFFCURVE",
"388 -12 OFFCURVE",
"415 -12 CURVE SMOOTH"
);
},
{
closed = 1;
nodes = (
"578 27 OFFCURVE",
"599 51 OFFCURVE",
"599 83 CURVE SMOOTH",
"599 435 LINE SMOOTH",
"599 491 OFFCURVE",
"599 502 OFFCURVE",
"633 502 CURVE SMOOTH",
"665 502 LINE SMOOTH",
"691 502 OFFCURVE",
"711 520 OFFCURVE",
"711 545 CURVE SMOOTH",
"711 569 OFFCURVE",
"691 587 OFFCURVE",
"665 587 CURVE SMOOTH",
"600 587 LINE SMOOTH",
"548 587 OFFCURVE",
"504 544 OFFCURVE",
"504 477 CURVE SMOOTH",
"504 83 LINE SMOOTH",
"504 51 OFFCURVE",
"524 27 OFFCURVE",
"551 27 CURVE SMOOTH"
);
}
);
width = 665;
}
);
},
{
color = 9;
glyphname = bVocalicL;
lastChange = "2016-02-13 06:30:45 +0000";
layers = (
{
layerId = "F2EBC5D5-DDE2-4851-B52F-F2293ECE9CC7";
name = Light;
paths = (
{
closed = 1;
nodes = (
"422 -12 OFFCURVE",
"523 110 OFFCURVE",
"523 234 CURVE SMOOTH",
"523 531 OFFCURVE",
"115 494 OFFCURVE",
"98 662 CURVE SMOOTH",
"97 676 OFFCURVE",
"93 693 OFFCURVE",
"78 693 CURVE SMOOTH",
"67 693 OFFCURVE",
"59 683 OFFCURVE",
"59 661 CURVE SMOOTH",
"59 462 OFFCURVE",
"489 504 OFFCURVE",
"489 246 CURVE SMOOTH",
"489 133 OFFCURVE",
"419 34 OFFCURVE",
"307 17 CURVE",
"308 8 LINE",
"356 37 OFFCURVE",
"387 94 OFFCURVE",
"387 156 CURVE SMOOTH",
"387 254 OFFCURVE",
"311 318 OFFCURVE",
"217 318 CURVE SMOOTH",
"119 318 OFFCURVE",
"49 247 OFFCURVE",
"49 161 CURVE SMOOTH",
"49 80 OFFCURVE",
"111 9 OFFCURVE",
"184 9 CURVE SMOOTH",
"233 9 OFFCURVE",
"261 42 OFFCURVE",
"261 79 CURVE SMOOTH",
"261 114 OFFCURVE",
"236 146 OFFCURVE",
"194 146 CURVE SMOOTH",
"151 146 OFFCURVE",
"124 116 OFFCURVE",
"124 80 CURVE SMOOTH",
"124 61 OFFCURVE",
"136 39 OFFCURVE",
"153 27 CURVE",
"156 38 LINE",
"114 54 OFFCURVE",
"88 103 OFFCURVE",
"88 151 CURVE SMOOTH",
"88 212 OFFCURVE",
"129 284 OFFCURVE",
"217 284 CURVE SMOOTH",
"299 284 OFFCURVE",
"343 222 OFFCURVE",
"343 161 CURVE SMOOTH",
"343 66 OFFCURVE",
"285 37 OFFCURVE",
"285 12 CURVE SMOOTH",
"285 0 OFFCURVE",
"293 -12 OFFCURVE",
"322 -12 CURVE SMOOTH"
);
},
{
closed = 1;
nodes = (
"171 39 OFFCURVE",
"156 54 OFFCURVE",
"156 74 CURVE SMOOTH",
"156 94 OFFCURVE",
"171 109 OFFCURVE",
"191 109 CURVE SMOOTH",
"211 109 OFFCURVE",
"226 94 OFFCURVE",
"226 74 CURVE SMOOTH",
"226 54 OFFCURVE",
"211 39 OFFCURVE",
"191 39 CURVE SMOOTH"
);
}
);
width = 562;
},
{
layerId = "A309AC34-D742-49E2-8DE7-30304959F2B2";
name = Bold;
paths = (
{
closed = 1;
nodes = (
"387 -12 OFFCURVE",
"534 73 OFFCURVE",
"534 241 CURVE SMOOTH",
"534 506 OFFCURVE",
"167 472 OFFCURVE",
"122 634 CURVE SMOOTH",
"115 660 OFFCURVE",
"106 693 OFFCURVE",
"71 693 CURVE SMOOTH",
"38 693 OFFCURVE",
"22 667 OFFCURVE",
"22 628 CURVE SMOOTH",
"22 389 OFFCURVE",
"439 449 OFFCURVE",
"439 228 CURVE SMOOTH",
"439 175 OFFCURVE",
"414 84 OFFCURVE",
"325 68 CURVE",
"325 48 LINE",
"368 73 OFFCURVE",
"406 114 OFFCURVE",
"406 191 CURVE SMOOTH",
"406 257 OFFCURVE",
"339 364 OFFCURVE",
"203 364 CURVE SMOOTH",
"68 364 OFFCURVE",
"7 258 OFFCURVE",
"7 171 CURVE SMOOTH",
"7 79 OFFCURVE",
"75 0 OFFCURVE",
"158 0 CURVE SMOOTH",
"222 0 OFFCURVE",
"262 47 OFFCURVE",
"262 96 CURVE SMOOTH",
"262 141 OFFCURVE",
"229 188 OFFCURVE",
"175 188 CURVE SMOOTH",
"115 188 OFFCURVE",
"87 138 OFFCURVE",
"87 107 CURVE SMOOTH",
"87 74 OFFCURVE",
"112 51 OFFCURVE",
"132 43 CURVE",
"131 104 LINE",
"102 126 OFFCURVE",
"91 149 OFFCURVE",
"91 175 CURVE SMOOTH",
"91 220 OFFCURVE",
"123 275 OFFCURVE",
"200 275 CURVE SMOOTH",
"262 275 OFFCURVE",
"310 239 OFFCURVE",
"310 162 CURVE SMOOTH",
"310 82 OFFCURVE",
"259 45 OFFCURVE",
"259 17 CURVE SMOOTH",
"259 0 OFFCURVE",
"278 -12 OFFCURVE",
"307 -12 CURVE SMOOTH"
);
},
{
closed = 1;
nodes = (
"150 71 OFFCURVE",
"138 83 OFFCURVE",
"138 97 CURVE SMOOTH",
"138 111 OFFCURVE",
"150 123 OFFCURVE",
"164 123 CURVE SMOOTH",
"178 123 OFFCURVE",
"190 111 OFFCURVE",
"190 97 CURVE SMOOTH",
"190 83 OFFCURVE",
"178 71 OFFCURVE",
"164 71 CURVE SMOOTH"
);
}
);
width = 562;
}
);
},
{
color = 9;
glyphname = bE;
lastChange = "2016-02-08 13:50:33 +0000";
layers = (
{
layerId = "F2EBC5D5-DDE2-4851-B52F-F2293ECE9CC7";
name = Light;
paths = (
{
closed = 1;
nodes = (
"513 -12 OFFCURVE",
"521 -2 OFFCURVE",
"521 12 CURVE SMOOTH",
"522 472 LINE SMOOTH",
"522 554 OFFCURVE",
"512 595 OFFCURVE",
"455 595 CURVE SMOOTH",
"352 595 OFFCURVE",
"190 448 OFFCURVE",
"190 326 CURVE SMOOTH",
"190 274 OFFCURVE",
"223 238 OFFCURVE",
"273 238 CURVE SMOOTH",
"308 238 OFFCURVE",
"348 260 OFFCURVE",
"348 310 CURVE SMOOTH",
"348 357 OFFCURVE",
"310 382 OFFCURVE",
"274 382 CURVE SMOOTH",
"241 382 OFFCURVE",
"210 361 OFFCURVE",
"210 318 CURVE",
"223 321 LINE",
"223 437 OFFCURVE",
"387 561 OFFCURVE",
"451 561 CURVE SMOOTH",
"482 561 OFFCURVE",
"482 541 OFFCURVE",
"482 468 CURVE SMOOTH",
"482 57 LINE",
"499 78 LINE",
"478 110 OFFCURVE",
"444 141 OFFCURVE",
"376 141 CURVE SMOOTH",
"309 141 OFFCURVE",
"265 111 OFFCURVE",
"208 111 CURVE SMOOTH",
"132 111 OFFCURVE",
"74 152 OFFCURVE",
"74 241 CURVE SMOOTH",
"74 305 OFFCURVE",
"105 341 OFFCURVE",
"105 364 CURVE SMOOTH",
"105 375 OFFCURVE",
"98 380 OFFCURVE",
"90 380 CURVE SMOOTH",
"60 380 OFFCURVE",
"35 300 OFFCURVE",
"35 243 CURVE SMOOTH",
"35 139 OFFCURVE",
"100 65 OFFCURVE",
"215 65 CURVE SMOOTH",
"280 65 OFFCURVE",
"320 97 OFFCURVE",
"382 97 CURVE SMOOTH",
"421 97 OFFCURVE",
"482 85 OFFCURVE",
"482 12 CURVE SMOOTH",
"482 -2 OFFCURVE",
"491 -12 OFFCURVE",
"502 -12 CURVE SMOOTH"
);
},
{
closed = 1;
nodes = (
"248 271 OFFCURVE",
"230 289 OFFCURVE",
"230 311 CURVE SMOOTH",
"230 333 OFFCURVE",
"248 351 OFFCURVE",
"270 351 CURVE SMOOTH",
"292 351 OFFCURVE",
"310 333 OFFCURVE",
"310 311 CURVE SMOOTH",
"310 289 OFFCURVE",
"292 271 OFFCURVE",
"270 271 CURVE SMOOTH"
);
}
);
width = 598;
},
{
layerId = "A309AC34-D742-49E2-8DE7-30304959F2B2";
name = Bold;
paths = (
{
closed = 1;
nodes = (
"515 -12 OFFCURVE",
"532 16 OFFCURVE",
"532 46 CURVE SMOOTH",
"532 468 LINE SMOOTH",
"532 545 OFFCURVE",
"488 595 OFFCURVE",
"420 595 CURVE SMOOTH",
"302 595 OFFCURVE",
"162 447 OFFCURVE",
"162 329 CURVE SMOOTH",
"162 262 OFFCURVE",
"208 213 OFFCURVE",
"278 213 CURVE SMOOTH",
"350 213 OFFCURVE",
"388 264 OFFCURVE",
"388 313 CURVE SMOOTH",
"388 360 OFFCURVE",
"354 414 OFFCURVE",
"291 414 CURVE SMOOTH",
"243 414 OFFCURVE",
"211 379 OFFCURVE",
"211 357 CURVE",
"271 365 LINE",
"271 439 OFFCURVE",
"375 502 OFFCURVE",
"410 502 CURVE SMOOTH",
"441 502 OFFCURVE",
"437 481 OFFCURVE",
"437 435 CURVE SMOOTH",
"437 100 LINE",
"449 100 LINE",
"435 154 OFFCURVE",
"388 180 OFFCURVE",
"344 180 CURVE SMOOTH",
"295 180 OFFCURVE",
"239 149 OFFCURVE",
"192 149 CURVE SMOOTH",
"163 149 OFFCURVE",
"99 161 OFFCURVE",
"99 233 CURVE SMOOTH",
"99 276 OFFCURVE",
"122 304 OFFCURVE",
"122 338 CURVE SMOOTH",
"122 369 OFFCURVE",
"103 380 OFFCURVE",
"82 380 CURVE SMOOTH",
"39 380 OFFCURVE",
"3 309 OFFCURVE",
"3 242 CURVE SMOOTH",
"3 139 OFFCURVE",
"65 44 OFFCURVE",
"193 44 CURVE SMOOTH",
"268 44 OFFCURVE",
"315 76 OFFCURVE",
"370 76 CURVE SMOOTH",
"379 76 OFFCURVE",
"410 75 OFFCURVE",
"427 37 CURVE SMOOTH",
"437 15 OFFCURVE",
"450 -12 OFFCURVE",
"482 -12 CURVE SMOOTH"
);
},
{
closed = 1;
nodes = (
"263 294 OFFCURVE",
"250 305 OFFCURVE",
"250 323 CURVE SMOOTH",
"250 341 OFFCURVE",
"263 352 OFFCURVE",
"280 352 CURVE SMOOTH",
"296 352 OFFCURVE",
"308 341 OFFCURVE",
"308 323 CURVE SMOOTH",
"308 305 OFFCURVE",
"296 294 OFFCURVE",
"280 294 CURVE SMOOTH"
);
}
);
width = 598;
}
);
},
{
color = 9;
glyphname = bAi;
lastChange = "2016-02-08 13:50:33 +0000";
layers = (
{
components = (
{
name = bE;
}
);
layerId = "F2EBC5D5-DDE2-4851-B52F-F2293ECE9CC7";
name = Light;
paths = (
{
closed = 1;
nodes = (
"558 292 OFFCURVE",
"666 369 OFFCURVE",
"666 491 CURVE SMOOTH",
"666 644 OFFCURVE",
"541 685 OFFCURVE",
"408 739 CURVE SMOOTH",
"334 769 OFFCURVE",
"297 806 OFFCURVE",
"297 858 CURVE SMOOTH",
"297 876 OFFCURVE",
"294 893 OFFCURVE",
"280 893 CURVE SMOOTH",
"264 893 OFFCURVE",
"261 876 OFFCURVE",
"261 858 CURVE SMOOTH",
"261 783 OFFCURVE",
"312 741 OFFCURVE",
"406 699 CURVE SMOOTH",
"509 654 OFFCURVE",
"631 622 OFFCURVE",
"631 499 CURVE SMOOTH",
"631 429 OFFCURVE",
"573 339 OFFCURVE",
"497 339 CURVE",
"497 292 LINE"
);
}
);
width = 700;
},
{
components = (
{
name = bE;
}
);
layerId = "A309AC34-D742-49E2-8DE7-30304959F2B2";
name = Bold;
paths = (
{
closed = 1;
nodes = (
"577 249 OFFCURVE",
"680 364 OFFCURVE",
"680 480 CURVE SMOOTH",
"680 620 OFFCURVE",
"578 684 OFFCURVE",
"476 728 CURVE SMOOTH",
"383 766 OFFCURVE",
"317 785 OFFCURVE",
"298 844 CURVE SMOOTH",
"291 870 OFFCURVE",
"288 910 OFFCURVE",
"253 910 CURVE SMOOTH",
"230 910 OFFCURVE",
"212 891 OFFCURVE",
"212 853 CURVE SMOOTH",
"212 763 OFFCURVE",
"298 700 OFFCURVE",
"399 659 CURVE SMOOTH",
"521 609 OFFCURVE",
"597 577 OFFCURVE",
"597 496 CURVE SMOOTH",
"597 419 OFFCURVE",
"530 369 OFFCURVE",
"466 369 CURVE",
"466 249 LINE"
);
}
);
width = 700;
}
);
},
{
color = 9;
glyphname = bO;
lastChange = "2016-02-08 13:50:33 +0000";
layers = (
{
layerId = "F2EBC5D5-DDE2-4851-B52F-F2293ECE9CC7";
name = Light;
paths = (
{
closed = 1;
nodes = (
"435 52 OFFCURVE",
"529 95 OFFCURVE",
"529 219 CURVE SMOOTH",
"529 309 OFFCURVE",
"464 390 OFFCURVE",
"382 390 CURVE SMOOTH",
"338 390 OFFCURVE",
"312 366 OFFCURVE",
"312 331 CURVE SMOOTH",
"312 297 OFFCURVE",
"337 266 OFFCURVE",
"384 266 CURVE SMOOTH",
"447 266 OFFCURVE",
"503 352 OFFCURVE",
"503 439 CURVE SMOOTH",
"503 532 OFFCURVE",
"440 597 OFFCURVE",
"344 597 CURVE SMOOTH",
"231 597 OFFCURVE",
"142 506 OFFCURVE",
"142 422 CURVE SMOOTH",
"142 374 OFFCURVE",
"177 343 OFFCURVE",
"219 343 CURVE SMOOTH",
"260 343 OFFCURVE",
"294 372 OFFCURVE",
"294 415 CURVE SMOOTH",
"294 459 OFFCURVE",
"258 488 OFFCURVE",
"220 488 CURVE SMOOTH",
"204 488 OFFCURVE",
"187 482 OFFCURVE",
"173 471 CURVE",
"202 471 LINE",
"223 522 OFFCURVE",
"288 562 OFFCURVE",
"353 562 CURVE SMOOTH",
"413 562 OFFCURVE",
"466 527 OFFCURVE",
"466 444 CURVE SMOOTH",
"466 374 OFFCURVE",
"429 305 OFFCURVE",
"377 305 CURVE SMOOTH",
"357 305 OFFCURVE",
"346 314 OFFCURVE",
"346 327 CURVE SMOOTH",
"346 342 OFFCURVE",
"359 353 OFFCURVE",
"386 353 CURVE SMOOTH",
"440 353 OFFCURVE",
"493 295 OFFCURVE",
"493 230 CURVE SMOOTH",
"493 144 OFFCURVE",
"427 97 OFFCURVE",
"347 97 CURVE SMOOTH",
"157 97 OFFCURVE",
"65 417 OFFCURVE",
"54 460 CURVE SMOOTH",
"49 481 OFFCURVE",
"43 485 OFFCURVE",
"36 485 CURVE SMOOTH",
"27 485 OFFCURVE",
"20 478 OFFCURVE",
"20 466 CURVE SMOOTH",
"20 429 OFFCURVE",
"127 52 OFFCURVE",
"359 52 CURVE SMOOTH"
);
},
{
closed = 1;
nodes = (
"202 378 OFFCURVE",
"180 393 OFFCURVE",
"180 418 CURVE SMOOTH",
"180 444 OFFCURVE",
"202 458 OFFCURVE",
"220 458 CURVE SMOOTH",
"240 458 OFFCURVE",
"259 444 OFFCURVE",
"259 418 CURVE SMOOTH",
"259 393 OFFCURVE",
"240 378 OFFCURVE",
"220 378 CURVE SMOOTH"
);
}
);
width = 577;
},
{
layerId = "A309AC34-D742-49E2-8DE7-30304959F2B2";
name = Bold;
paths = (
{
closed = 1;
nodes = (
"465 29 OFFCURVE",
"556 117 OFFCURVE",
"556 221 CURVE SMOOTH",
"556 307 OFFCURVE",
"495 396 OFFCURVE",
"392 396 CURVE SMOOTH",
"313 396 OFFCURVE",
"281 344 OFFCURVE",
"281 301 CURVE SMOOTH",
"281 252 OFFCURVE",
"322 217 OFFCURVE",
"376 217 CURVE SMOOTH",
"471 217 OFFCURVE",
"529 324 OFFCURVE",
"529 419 CURVE SMOOTH",
"529 532 OFFCURVE",
"448 607 OFFCURVE",
"328 607 CURVE SMOOTH",
"197 607 OFFCURVE",
"113 518 OFFCURVE",
"113 433 CURVE SMOOTH",
"113 373 OFFCURVE",
"156 321 OFFCURVE",
"218 321 CURVE SMOOTH",
"281 321 OFFCURVE",
"313 374 OFFCURVE",
"313 414 CURVE SMOOTH",
"313 453 OFFCURVE",
"283 506 OFFCURVE",
"231 506 CURVE SMOOTH",
"214 506 OFFCURVE",
"189 500 OFFCURVE",
"173 485 CURVE",
"231 470 LINE",
"255 496 OFFCURVE",
"298 512 OFFCURVE",
"336 512 CURVE SMOOTH",
"391 512 OFFCURVE",
"443 477 OFFCURVE",
"443 408 CURVE SMOOTH",
"443 359 OFFCURVE",
"417 292 OFFCURVE",
"375 292 CURVE SMOOTH",
"363 292 OFFCURVE",
"351 297 OFFCURVE",
"351 305 CURVE SMOOTH",
"351 312 OFFCURVE",
"361 321 OFFCURVE",
"380 321 CURVE SMOOTH",
"411 321 OFFCURVE",
"461 295 OFFCURVE",
"461 242 CURVE SMOOTH",
"461 188 OFFCURVE",
"410 139 OFFCURVE",
"324 139 CURVE SMOOTH",
"151 139 OFFCURVE",
"101 330 OFFCURVE",
"81 435 CURVE SMOOTH",
"76 461 OFFCURVE",
"67 485 OFFCURVE",
"40 485 CURVE SMOOTH",
"19 485 OFFCURVE",
"-1 473 OFFCURVE",
"-1 418 CURVE SMOOTH",
"-1 289 OFFCURVE",
"99 29 OFFCURVE",
"330 29 CURVE SMOOTH"
);
},
{
closed = 1;
nodes = (
"205 406 OFFCURVE",
"193 418 OFFCURVE",
"193 432 CURVE SMOOTH",
"193 446 OFFCURVE",
"205 458 OFFCURVE",
"219 458 CURVE SMOOTH",
"233 458 OFFCURVE",
"245 446 OFFCURVE",
"245 432 CURVE SMOOTH",
"245 418 OFFCURVE",
"233 406 OFFCURVE",
"219 406 CURVE SMOOTH"
);
}
);
width = 577;
}
);
},
{
color = 9;
glyphname = bAu;
lastChange = "2016-02-08 13:50:33 +0000";
layers = (
{
components = (
{
name = bO;
}
);
layerId = "F2EBC5D5-DDE2-4851-B52F-F2293ECE9CC7";
name = Light;
paths = (
{
closed = 1;
nodes = (
"528 307 OFFCURVE",
"636 369 OFFCURVE",
"636 491 CURVE SMOOTH",
"636 644 OFFCURVE",
"511 685 OFFCURVE",
"378 739 CURVE SMOOTH",
"304 769 OFFCURVE",
"265 806 OFFCURVE",
"264 858 CURVE SMOOTH",
"264 874 OFFCURVE",
"264 893 OFFCURVE",
"249 893 CURVE SMOOTH",
"234 893 OFFCURVE",
"231 876 OFFCURVE",
"231 858 CURVE SMOOTH",
"231 783 OFFCURVE",
"282 741 OFFCURVE",
"376 699 CURVE SMOOTH",
"479 654 OFFCURVE",
"601 622 OFFCURVE",
"601 499 CURVE SMOOTH",
"601 429 OFFCURVE",
"543 350 OFFCURVE",
"467 350 CURVE",
"485 307 LINE"
);
}
);
width = 660;
},
{
components = (
{
name = bO;
}
);
layerId = "A309AC34-D742-49E2-8DE7-30304959F2B2";
name = Bold;
paths = (
{
closed = 1;
nodes = (
"559 268 OFFCURVE",
"650 364 OFFCURVE",
"650 480 CURVE SMOOTH",
"650 620 OFFCURVE",
"548 684 OFFCURVE",
"446 728 CURVE SMOOTH",
"353 766 OFFCURVE",
"287 785 OFFCURVE",
"268 844 CURVE SMOOTH",
"261 870 OFFCURVE",
"258 910 OFFCURVE",
"223 910 CURVE SMOOTH",
"200 910 OFFCURVE",
"182 891 OFFCURVE",
"182 853 CURVE SMOOTH",
"182 763 OFFCURVE",
"268 700 OFFCURVE",
"369 659 CURVE SMOOTH",
"491 609 OFFCURVE",
"567 577 OFFCURVE",
"567 481 CURVE SMOOTH",
"567 411 OFFCURVE",
"500 369 OFFCURVE",
"442 369 CURVE",
"442 268 LINE"
);
}
);
width = 660;
}
);
},
{
color = 9;
glyphname = bVocalicLl;
lastChange = "2016-03-08 05:51:15 +0000";
layers = (
{
layerId = "F2EBC5D5-DDE2-4851-B52F-F2293ECE9CC7";
name = Light;
paths = (
{
closed = 1;
nodes = (
"636 -212 OFFCURVE",
"725 -94 OFFCURVE",
"725 20 CURVE SMOOTH",
"725 170 OFFCURVE",
"615 235 OFFCURVE",
"511 280 CURVE",
"499 236 LINE",
"602 197 OFFCURVE",
"687 144 OFFCURVE",
"687 24 CURVE SMOOTH",
"687 -68 OFFCURVE",
"625 -166 OFFCURVE",
"524 -182 CURVE",
"530 -196 LINE",
"568 -163 OFFCURVE",
"594 -107 OFFCURVE",
"594 -53 CURVE SMOOTH",
"594 43 OFFCURVE",
"511 107 OFFCURVE",
"426 101 CURVE",
"424 84 LINE",
"488 120 OFFCURVE",
"526 194 OFFCURVE",
"526 261 CURVE SMOOTH",
"526 398 OFFCURVE",
"403 461 OFFCURVE",
"276 512 CURVE SMOOTH",
"183 549 OFFCURVE",
"98 590 OFFCURVE",
"94 662 CURVE SMOOTH",
"93 679 OFFCURVE",
"90 693 OFFCURVE",
"76 693 CURVE SMOOTH",
"65 693 OFFCURVE",
"59 684 OFFCURVE",
"59 663 CURVE SMOOTH",
"59 557 OFFCURVE",
"162 516 OFFCURVE",
"266 472 CURVE SMOOTH",
"375 426 OFFCURVE",
"485 375 OFFCURVE",
"485 261 CURVE SMOOTH",
"485 175 OFFCURVE",
"423 104 OFFCURVE",
"342 79 CURVE",
"361 64 LINE",
"373 92 OFFCURVE",
"383 120 OFFCURVE",
"383 156 CURVE SMOOTH",
"383 250 OFFCURVE",
"311 318 OFFCURVE",
"219 318 CURVE SMOOTH",
"125 318 OFFCURVE",
"49 248 OFFCURVE",
"49 160 CURVE SMOOTH",
"49 80 OFFCURVE",
"111 9 OFFCURVE",
"191 9 CURVE SMOOTH",
"234 9 OFFCURVE",
"260 38 OFFCURVE",
"260 76 CURVE SMOOTH",
"260 108 OFFCURVE",
"234 139 OFFCURVE",
"194 139 CURVE SMOOTH",
"156 139 OFFCURVE",
"128 110 OFFCURVE",
"128 79 CURVE SMOOTH",
"128 62 OFFCURVE",
"134 45 OFFCURVE",
"159 29 CURVE",
"162 36 LINE",
"113 56 OFFCURVE",
"88 105 OFFCURVE",
"88 150 CURVE SMOOTH",
"88 211 OFFCURVE",
"138 280 OFFCURVE",
"221 280 CURVE SMOOTH",
"292 280 OFFCURVE",
"343 226 OFFCURVE",
"343 150 CURVE SMOOTH",
"343 53 OFFCURVE",
"272 42 OFFCURVE",
"272 -51 CURVE SMOOTH",
"272 -125 OFFCURVE",
"331 -192 OFFCURVE",
"404 -192 CURVE SMOOTH",
"449 -192 OFFCURVE",
"474 -160 OFFCURVE",
"474 -131 CURVE SMOOTH",
"474 -98 OFFCURVE",
"451 -68 OFFCURVE",
"410 -68 CURVE SMOOTH",
"375 -68 OFFCURVE",
"346 -91 OFFCURVE",
"346 -128 CURVE SMOOTH",
"346 -143 OFFCURVE",
"354 -165 OFFCURVE",
"373 -174 CURVE",
"378 -166 LINE",
"324 -145 OFFCURVE",
"309 -94 OFFCURVE",
"309 -60 CURVE SMOOTH",
"309 1 OFFCURVE",
"357 66 OFFCURVE",
"436 66 CURVE SMOOTH",
"503 66 OFFCURVE",
"552 15 OFFCURVE",
"552 -58 CURVE SMOOTH",
"552 -137 OFFCURVE",
"496 -165 OFFCURVE",
"496 -189 CURVE SMOOTH",
"496 -201 OFFCURVE",
"510 -212 OFFCURVE",
"530 -212 CURVE SMOOTH"
);
},
{
closed = 1;
nodes = (
"174 39 OFFCURVE",
"158 54 OFFCURVE",
"158 74 CURVE SMOOTH",
"158 96 OFFCURVE",
"176 108 OFFCURVE",
"193 108 CURVE SMOOTH",
"208 108 OFFCURVE",
"228 98 OFFCURVE",
"228 74 CURVE SMOOTH",
"228 53 OFFCURVE",
"215 38 OFFCURVE",
"192 38 CURVE"
);
},
{
closed = 1;
nodes = (
"388 -166 OFFCURVE",
"373 -151 OFFCURVE",
"373 -131 CURVE SMOOTH",
"373 -111 OFFCURVE",
"388 -96 OFFCURVE",
"409 -96 CURVE SMOOTH",
"429 -96 OFFCURVE",
"443 -111 OFFCURVE",
"443 -131 CURVE SMOOTH",
"443 -151 OFFCURVE",
"429 -166 OFFCURVE",
"409 -166 CURVE SMOOTH"
);
}
);
width = 700;
},
{
layerId = "A309AC34-D742-49E2-8DE7-30304959F2B2";
name = Bold;
paths = (
{
closed = 1;
nodes = (
"623 -218 OFFCURVE",
"754 -138 OFFCURVE",
"754 27 CURVE SMOOTH",
"754 147 OFFCURVE",
"684 234 OFFCURVE",
"510 297 CURVE",
"509 192 LINE",
"606 155 OFFCURVE",
"665 91 OFFCURVE",
"665 1 CURVE SMOOTH",
"665 -65 OFFCURVE",
"633 -110 OFFCURVE",
"586 -135 CURVE",
"595 -156 LINE",
"617 -136 OFFCURVE",
"638 -89 OFFCURVE",
"638 -45 CURVE SMOOTH",
"638 39 OFFCURVE",
"562 122 OFFCURVE",
"468 123 CURVE",
"479 84 LINE",
"523 140 OFFCURVE",
"533 203 OFFCURVE",
"533 244 CURVE SMOOTH",
"533 413 OFFCURVE",
"404 473 OFFCURVE",
"263 516 CURVE SMOOTH",
"178 542 OFFCURVE",
"139 565 OFFCURVE",
"115 638 CURVE SMOOTH",
"104 672 OFFCURVE",
"96 693 OFFCURVE",
"64 693 CURVE SMOOTH",
"36 693 OFFCURVE",
"22 667 OFFCURVE",
"22 631 CURVE SMOOTH",
"22 489 OFFCURVE",
"167 440 OFFCURVE",
"234 418 CURVE SMOOTH",
"335 385 OFFCURVE",
"437 333 OFFCURVE",
"437 233 CURVE SMOOTH",
"437 186 OFFCURVE",
"415 122 OFFCURVE",
"343 84 CURVE",
"363 76 LINE",
"389 99 OFFCURVE",
"406 148 OFFCURVE",
"406 187 CURVE SMOOTH",
"406 272 OFFCURVE",
"325 364 OFFCURVE",
"206 364 CURVE SMOOTH",
"86 364 OFFCURVE",
"14 271 OFFCURVE",
"14 171 CURVE SMOOTH",
"14 71 OFFCURVE",
"85 -3 OFFCURVE",
"160 -3 CURVE SMOOTH",
"221 -3 OFFCURVE",
"262 47 OFFCURVE",
"262 96 CURVE SMOOTH",
"262 141 OFFCURVE",
"227 184 OFFCURVE",
"175 184 CURVE SMOOTH",
"125 184 OFFCURVE",
"84 145 OFFCURVE",
"84 102 CURVE SMOOTH",
"84 87 OFFCURVE",
"89 71 OFFCURVE",
"102 56 CURVE",
"120 66 LINE",
"100 90 OFFCURVE",
"92 117 OFFCURVE",
"92 143 CURVE SMOOTH",
"92 208 OFFCURVE",
"146 268 OFFCURVE",
"213 268 CURVE SMOOTH",
"277 268 OFFCURVE",
"310 213 OFFCURVE",
"310 151 CURVE SMOOTH",
"310 64 OFFCURVE",
"246 24 OFFCURVE",
"246 -65 CURVE SMOOTH",
"246 -153 OFFCURVE",
"308 -210 OFFCURVE",
"387 -210 CURVE SMOOTH",
"458 -210 OFFCURVE",
"497 -165 OFFCURVE",
"497 -116 CURVE SMOOTH",
"497 -69 OFFCURVE",
"462 -26 OFFCURVE",
"408 -26 CURVE SMOOTH",
"355 -26 OFFCURVE",
"320 -67 OFFCURVE",
"320 -109 CURVE SMOOTH",
"320 -130 OFFCURVE",
"329 -151 OFFCURVE",
"352 -168 CURVE",
"363 -147 LINE",
"335 -123 OFFCURVE",
"324 -95 OFFCURVE",
"324 -70 CURVE SMOOTH",
"324 -21 OFFCURVE",
"365 27 OFFCURVE",
"436 27 CURVE SMOOTH",
"499 27 OFFCURVE",
"550 -11 OFFCURVE",
"550 -69 CURVE SMOOTH",
"550 -125 OFFCURVE",
"504 -163 OFFCURVE",
"504 -191 CURVE SMOOTH",
"504 -207 OFFCURVE",
"520 -218 OFFCURVE",
"548 -218 CURVE SMOOTH"
);
},
{
closed = 1;
nodes = (
"141 61 OFFCURVE",
"130 72 OFFCURVE",
"130 86 CURVE SMOOTH",
"130 99 OFFCURVE",
"140 113 OFFCURVE",
"157 113 CURVE SMOOTH",
"172 113 OFFCURVE",
"183 101 OFFCURVE",
"183 86 CURVE SMOOTH",
"183 72 OFFCURVE",
"173 61 OFFCURVE",
"157 61 CURVE SMOOTH"
);
},
{
closed = 1;
nodes = (
"391 -145 OFFCURVE",
"382 -134 OFFCURVE",
"382 -122 CURVE SMOOTH",
"382 -111 OFFCURVE",
"390 -98 OFFCURVE",
"405 -98 CURVE SMOOTH",
"419 -98 OFFCURVE",
"430 -108 OFFCURVE",
"430 -122 CURVE SMOOTH",
"430 -135 OFFCURVE",
"421 -145 OFFCURVE",
"406 -145 CURVE SMOOTH"
);
}
);
width = 700;
}
);
},
{
color = 9;
glyphname = bKa;
lastChange = "2016-02-09 05:05:10 +0000";
layers = (
{
layerId = "F2EBC5D5-DDE2-4851-B52F-F2293ECE9CC7";
name = Light;
paths = (
{
closed = 1;
nodes = (
"347 -12 OFFCURVE",
"356 -1 OFFCURVE",
"356 13 CURVE SMOOTH",
"356 492 LINE SMOOTH",
"356 544 OFFCURVE",
"359 554 OFFCURVE",
"397 554 CURVE SMOOTH",
"660 554 LINE SMOOTH",
"671 554 OFFCURVE",
"680 561 OFFCURVE",
"680 571 CURVE SMOOTH",
"680 580 OFFCURVE",
"671 587 OFFCURVE",
"660 587 CURVE SMOOTH",
"385 587 LINE SMOOTH",
"336 587 OFFCURVE",
"316 558 OFFCURVE",
"316 482 CURVE SMOOTH",
"316 13 LINE SMOOTH",
"316 -1 OFFCURVE",
"325 -12 OFFCURVE",
"336 -12 CURVE SMOOTH"
);
},
{
closed = 1;
nodes = (
"349 53 LINE",
"349 164 OFFCURVE",
"198 292 OFFCURVE",
"36 322 CURVE",
"38 308 LINE",
"291 413 OFFCURVE",
"343 446 OFFCURVE",
"343 518 CURVE SMOOTH",
"343 563 OFFCURVE",
"300 587 OFFCURVE",
"241 587 CURVE SMOOTH",
"0 587 LINE SMOOTH",
"-7 587 OFFCURVE",
"-16 582 OFFCURVE",
"-16 571 CURVE SMOOTH",
"-16 562 OFFCURVE",
"-9 554 OFFCURVE",
"0 554 CURVE SMOOTH",
"241 554 LINE SMOOTH",
"295 554 OFFCURVE",
"316 539 OFFCURVE",
"316 520 CURVE SMOOTH",
"316 490 OFFCURVE",
"299 467 OFFCURVE",
"39 353 CURVE SMOOTH",
"20 344 OFFCURVE",
"11 333 OFFCURVE",
"11 320 CURVE SMOOTH",
"11 305 OFFCURVE",
"22 290 OFFCURVE",
"46 283 CURVE SMOOTH",
"126 258 OFFCURVE",
"316 165 OFFCURVE",
"316 48 CURVE"
);
},
{
closed = 1;
nodes = (
"514 199 OFFCURVE",
"499 214 OFFCURVE",
"499 234 CURVE SMOOTH",
"499 254 OFFCURVE",
"514 269 OFFCURVE",
"534 269 CURVE SMOOTH",
"554 269 OFFCURVE",
"569 254 OFFCURVE",
"569 234 CURVE SMOOTH",
"569 214 OFFCURVE",
"554 199 OFFCURVE",
"534 199 CURVE SMOOTH"
);
},
{
closed = 1;
nodes = (
"590 169 OFFCURVE",
"625 223 OFFCURVE",
"625 286 CURVE SMOOTH",
"625 316 OFFCURVE",
"617 381 OFFCURVE",
"519 412 CURVE SMOOTH",
"461 430 OFFCURVE",
"356 447 OFFCURVE",
"356 498 CURVE",
"335 457 LINE",
"381 395 OFFCURVE",
"445 398 OFFCURVE",
"515 374 CURVE SMOOTH",
"584 350 OFFCURVE",
"593 313 OFFCURVE",
"593 282 CURVE SMOOTH",
"593 255 OFFCURVE",
"579 227 OFFCURVE",
"563 208 CURVE",
"566 189 LINE",
"581 198 OFFCURVE",
"595 214 OFFCURVE",
"595 238 CURVE SMOOTH",
"595 273 OFFCURVE",
"568 299 OFFCURVE",
"530 299 CURVE SMOOTH",
"492 299 OFFCURVE",
"462 273 OFFCURVE",
"462 236 CURVE SMOOTH",
"462 198 OFFCURVE",
"493 169 OFFCURVE",
"534 169 CURVE SMOOTH"
);
}
);
width = 660;
},
{
background = {
paths = (
{
closed = 1;
nodes = (
"365 -11 OFFCURVE",
"386 13 OFFCURVE",
"386 45 CURVE SMOOTH",
"386 447 LINE SMOOTH",
"386 496 OFFCURVE",
"386 502 OFFCURVE",
"420 502 CURVE SMOOTH",
"660 502 LINE SMOOTH",
"686 502 OFFCURVE",
"706 520 OFFCURVE",
"706 545 CURVE SMOOTH",
"706 569 OFFCURVE",
"686 587 OFFCURVE",
"660 587 CURVE SMOOTH",
"397 587 LINE SMOOTH",
"337 587 OFFCURVE",
"291 558 OFFCURVE",
"291 459 CURVE SMOOTH",
"291 45 LINE SMOOTH",
"291 13 OFFCURVE",
"311 -11 OFFCURVE",
"338 -11 CURVE SMOOTH"
);
},
{
closed = 1;
nodes = (
"362 181 OFFCURVE",
"180 322 OFFCURVE",
"75 322 CURVE",
"104 287 LINE",
"291 352 OFFCURVE",
"345 399 OFFCURVE",
"345 471 CURVE SMOOTH",
"345 543 OFFCURVE",
"304 587 OFFCURVE",
"232 587 CURVE SMOOTH",
"0 587 LINE SMOOTH",
"-26 587 OFFCURVE",
"-46 569 OFFCURVE",
"-46 545 CURVE SMOOTH",
"-46 521 OFFCURVE",
"-26 502 OFFCURVE",
"0 502 CURVE SMOOTH",
"236 502 LINE SMOOTH",
"259 502 OFFCURVE",
"290 502 OFFCURVE",
"290 484 CURVE SMOOTH",
"291 458 OFFCURVE",
"167 420 OFFCURVE",
"46 364 CURVE SMOOTH",
"16 350 OFFCURVE",
"5 328 OFFCURVE",
"5 308 CURVE SMOOTH",
"5 282 OFFCURVE",
"24 258 OFFCURVE",
"55 249 CURVE SMOOTH",
"106 234 OFFCURVE",
"291 153 OFFCURVE",
"291 50 CURVE",
"362 45 LINE"
);
},
{
closed = 1;
nodes = (
"509 195 OFFCURVE",
"497 207 OFFCURVE",
"497 221 CURVE SMOOTH",
"497 235 OFFCURVE",
"509 247 OFFCURVE",
"523 247 CURVE SMOOTH",
"537 247 OFFCURVE",
"549 235 OFFCURVE",
"549 221 CURVE SMOOTH",
"549 207 OFFCURVE",
"537 195 OFFCURVE",
"523 195 CURVE SMOOTH"
);
},
{
closed = 1;
nodes = (
"578 124 OFFCURVE",
"646 181 OFFCURVE",
"646 268 CURVE SMOOTH",
"646 304 OFFCURVE",
"643 379 OFFCURVE",
"537 418 CURVE SMOOTH",
"491 435 OFFCURVE",
"387 440 OFFCURVE",
"387 481 CURVE",
"343 428 LINE",
"368 363 OFFCURVE",
"425 345 OFFCURVE",
"485 339 CURVE SMOOTH",
"567 332 OFFCURVE",
"575 292 OFFCURVE",
"575 271 CURVE SMOOTH",
"575 256 OFFCURVE",
"571 243 OFFCURVE",
"558 230 CURVE",
"561 156 LINE",
"584 173 OFFCURVE",
"594 204 OFFCURVE",
"594 225 CURVE SMOOTH",
"594 269 OFFCURVE",
"564 313 OFFCURVE",
"507 313 CURVE SMOOTH",
"454 313 OFFCURVE",
"409 275 OFFCURVE",
"409 218 CURVE SMOOTH",
"409 153 OFFCURVE",
"467 124 OFFCURVE",
"519 124 CURVE SMOOTH"
);
}
);
};
layerId = "A309AC34-D742-49E2-8DE7-30304959F2B2";
name = Bold;
paths = (
{
closed = 1;
nodes = (
"365 -11 OFFCURVE",
"386 13 OFFCURVE",
"386 45 CURVE SMOOTH",
"386 447 LINE SMOOTH",
"386 496 OFFCURVE",
"386 502 OFFCURVE",
"420 502 CURVE SMOOTH",
"660 502 LINE SMOOTH",
"686 502 OFFCURVE",
"706 520 OFFCURVE",
"706 545 CURVE SMOOTH",
"706 569 OFFCURVE",
"686 587 OFFCURVE",
"660 587 CURVE SMOOTH",
"397 587 LINE SMOOTH",
"337 587 OFFCURVE",
"291 558 OFFCURVE",
"291 459 CURVE SMOOTH",
"291 45 LINE SMOOTH",
"291 13 OFFCURVE",
"311 -11 OFFCURVE",
"338 -11 CURVE SMOOTH"
);
},
{
closed = 1;
nodes = (
"360 58 LINE",
"360 187 OFFCURVE",
"180 322 OFFCURVE",
"75 322 CURVE",
"104 287 LINE",
"291 352 OFFCURVE",
"345 399 OFFCURVE",
"345 471 CURVE SMOOTH",
"345 543 OFFCURVE",
"304 587 OFFCURVE",
"232 587 CURVE SMOOTH",
"0 587 LINE SMOOTH",
"-26 587 OFFCURVE",
"-46 569 OFFCURVE",
"-46 545 CURVE SMOOTH",
"-46 521 OFFCURVE",
"-26 502 OFFCURVE",
"0 502 CURVE SMOOTH",
"236 502 LINE SMOOTH",
"259 502 OFFCURVE",
"290 502 OFFCURVE",
"290 484 CURVE SMOOTH",
"291 458 OFFCURVE",
"167 420 OFFCURVE",
"46 364 CURVE SMOOTH",
"16 350 OFFCURVE",
"5 328 OFFCURVE",
"5 308 CURVE SMOOTH",
"5 282 OFFCURVE",
"24 258 OFFCURVE",
"55 249 CURVE SMOOTH",
"106 234 OFFCURVE",
"291 153 OFFCURVE",
"291 50 CURVE"
);
},
{
closed = 1;
nodes = (
"509 195 OFFCURVE",
"497 207 OFFCURVE",
"497 221 CURVE SMOOTH",
"497 235 OFFCURVE",
"509 247 OFFCURVE",
"523 247 CURVE SMOOTH",
"537 247 OFFCURVE",
"549 235 OFFCURVE",
"549 221 CURVE SMOOTH",
"549 207 OFFCURVE",
"537 195 OFFCURVE",
"523 195 CURVE SMOOTH"
);
},
{
closed = 1;
nodes = (
"578 124 OFFCURVE",
"646 181 OFFCURVE",
"646 268 CURVE SMOOTH",
"646 304 OFFCURVE",
"643 379 OFFCURVE",
"537 418 CURVE SMOOTH",
"491 435 OFFCURVE",
"387 440 OFFCURVE",
"387 481 CURVE",
"343 428 LINE",
"368 363 OFFCURVE",
"425 345 OFFCURVE",
"485 339 CURVE SMOOTH",
"567 332 OFFCURVE",
"575 292 OFFCURVE",
"575 271 CURVE SMOOTH",
"575 256 OFFCURVE",
"571 243 OFFCURVE",
"558 230 CURVE",
"561 156 LINE",
"584 173 OFFCURVE",
"594 204 OFFCURVE",
"594 225 CURVE SMOOTH",
"594 269 OFFCURVE",
"564 313 OFFCURVE",
"507 313 CURVE SMOOTH",
"454 313 OFFCURVE",
"409 275 OFFCURVE",
"409 218 CURVE SMOOTH",
"409 153 OFFCURVE",
"467 124 OFFCURVE",
"519 124 CURVE SMOOTH"
);
}
);
width = 660;
}
);
},
{
color = 9;
glyphname = bKha;
lastChange = "2016-03-08 04:34:16 +0000";
layers = (
{
layerId = "F2EBC5D5-DDE2-4851-B52F-F2293ECE9CC7";
name = Light;
paths = (
{
closed = 1;
nodes = (
"450 59 LINE",
"428 185 OFFCURVE",
"230 292 OFFCURVE",
"126 292 CURVE",
"126 278 LINE",
"273 278 OFFCURVE",
"342 360 OFFCURVE",
"342 444 CURVE SMOOTH",
"342 527 OFFCURVE",
"275 580 OFFCURVE",
"249 580 CURVE SMOOTH",
"240 580 OFFCURVE",
"234 574 OFFCURVE",
"234 560 CURVE SMOOTH",
"234 549 OFFCURVE",
"238 533 OFFCURVE",
"238 518 CURVE SMOOTH",
"238 445 OFFCURVE",
"180 420 OFFCURVE",
"128 420 CURVE SMOOTH",
"111 420 OFFCURVE",
"94 423 OFFCURVE",
"77 430 CURVE",
"89 413 LINE",
"126 413 OFFCURVE",
"158 433 OFFCURVE",
"158 474 CURVE SMOOTH",
"158 517 OFFCURVE",
"123 539 OFFCURVE",
"91 539 CURVE SMOOTH",
"55 539 OFFCURVE",
"26 512 OFFCURVE",
"26 472 CURVE SMOOTH",
"26 415 OFFCURVE",
"81 387 OFFCURVE",
"136 387 CURVE SMOOTH",
"212 387 OFFCURVE",
"270 434 OFFCURVE",
"270 516 CURVE SMOOTH",
"270 537 OFFCURVE",
"263 556 OFFCURVE",
"259 565 CURVE",
"250 554 LINE",
"281 537 OFFCURVE",
"307 499 OFFCURVE",
"307 447 CURVE SMOOTH",
"307 333 OFFCURVE",
"181 318 OFFCURVE",
"123 316 CURVE SMOOTH",
"112 316 OFFCURVE",
"88 315 OFFCURVE",
"88 295 CURVE SMOOTH",
"88 278 OFFCURVE",
"105 271 OFFCURVE",
"118 267 CURVE SMOOTH",
"391 182 OFFCURVE",
"419 82 OFFCURVE",
"419 37 CURVE"
);
},
{
closed = 1;
nodes = (
"72 435 OFFCURVE",
"57 450 OFFCURVE",
"57 470 CURVE SMOOTH",
"57 490 OFFCURVE",
"72 505 OFFCURVE",
"92 505 CURVE SMOOTH",
"112 505 OFFCURVE",
"127 490 OFFCURVE",
"127 470 CURVE SMOOTH",
"127 450 OFFCURVE",
"112 435 OFFCURVE",
"92 435 CURVE SMOOTH"
);
},
{
closed = 1;
nodes = (
"450 -12 OFFCURVE",
"459 -1 OFFCURVE",
"459 13 CURVE SMOOTH",
"459 492 LINE SMOOTH",
"459 544 OFFCURVE",
"462 554 OFFCURVE",
"500 554 CURVE SMOOTH",
"560 554 LINE SMOOTH",
"571 554 OFFCURVE",
"580 561 OFFCURVE",
"580 571 CURVE SMOOTH",
"580 580 OFFCURVE",
"571 587 OFFCURVE",
"560 587 CURVE SMOOTH",
"478 587 LINE SMOOTH",
"439 587 OFFCURVE",
"419 558 OFFCURVE",
"419 505 CURVE SMOOTH",
"419 13 LINE SMOOTH",
"419 -1 OFFCURVE",
"428 -12 OFFCURVE",
"439 -12 CURVE SMOOTH"
);
}
);
width = 560;
},
{
layerId = "A309AC34-D742-49E2-8DE7-30304959F2B2";
name = Bold;
paths = (
{
closed = 1;
nodes = (
"464 55 LINE",
"433 163 OFFCURVE",
"322 269 OFFCURVE",
"157 269 CURVE",
"157 218 LINE",
"297 218 OFFCURVE",
"358 309 OFFCURVE",
"358 406 CURVE SMOOTH",
"358 516 OFFCURVE",
"304 596 OFFCURVE",
"259 596 CURVE SMOOTH",
"238 596 OFFCURVE",
"225 584 OFFCURVE",
"225 563 CURVE SMOOTH",
"225 535 OFFCURVE",
"238 523 OFFCURVE",
"238 496 CURVE SMOOTH",
"238 459 OFFCURVE",
"204 418 OFFCURVE",
"137 418 CURVE SMOOTH",
"111 418 OFFCURVE",
"86 431 OFFCURVE",
"72 452 CURVE",
"105 387 LINE",
"165 387 OFFCURVE",
"197 435 OFFCURVE",
"197 467 CURVE SMOOTH",
"197 523 OFFCURVE",
"153 560 OFFCURVE",
"101 560 CURVE SMOOTH",
"42 560 OFFCURVE",
"2 519 OFFCURVE",
"2 467 CURVE SMOOTH",
"2 402 OFFCURVE",
"58 344 OFFCURVE",
"146 344 CURVE SMOOTH",
"229 344 OFFCURVE",
"296 401 OFFCURVE",
"296 459 CURVE SMOOTH",
"296 491 OFFCURVE",
"270 516 OFFCURVE",
"253 518 CURVE",
"253 457 LINE",
"265 457 OFFCURVE",
"285 445 OFFCURVE",
"285 410 CURVE SMOOTH",
"285 353 OFFCURVE",
"212 305 OFFCURVE",
"131 305 CURVE SMOOTH",
"96 305 OFFCURVE",
"71 283 OFFCURVE",
"71 255 CURVE SMOOTH",
"71 230 OFFCURVE",
"89 204 OFFCURVE",
"131 196 CURVE SMOOTH",
"192 184 OFFCURVE",
"399 127 OFFCURVE",
"399 49 CURVE"
);
},
{
closed = 1;
nodes = (
"89 437 OFFCURVE",
"77 448 OFFCURVE",
"77 463 CURVE SMOOTH",
"77 478 OFFCURVE",
"89 489 OFFCURVE",
"104 489 CURVE SMOOTH",
"117 489 OFFCURVE",
"129 478 OFFCURVE",
"129 464 CURVE SMOOTH",
"129 448 OFFCURVE",
"118 437 OFFCURVE",
"103 437 CURVE SMOOTH"
);
},
{
closed = 1;
nodes = (
"473 -11 OFFCURVE",
"494 13 OFFCURVE",
"494 45 CURVE SMOOTH",
"494 435 LINE SMOOTH",
"494 491 OFFCURVE",
"494 502 OFFCURVE",
"528 502 CURVE SMOOTH",
"560 502 LINE SMOOTH",
"586 502 OFFCURVE",
"606 520 OFFCURVE",
"606 545 CURVE SMOOTH",
"606 569 OFFCURVE",
"586 587 OFFCURVE",
"560 587 CURVE SMOOTH",
"505 587 LINE SMOOTH",
"455 587 OFFCURVE",
"399 558 OFFCURVE",
"399 459 CURVE SMOOTH",
"399 45 LINE SMOOTH",
"399 13 OFFCURVE",
"419 -11 OFFCURVE",
"446 -11 CURVE SMOOTH"
);
}
);
width = 560;
}
);
},
{
color = 9;
glyphname = bGa;
lastChange = "2016-02-09 05:07:13 +0000";
layers = (
{
layerId = "F2EBC5D5-DDE2-4851-B52F-F2293ECE9CC7";
name = Light;
paths = (
{
closed = 1;
nodes = (
"134 116 OFFCURVE",
"142 118 OFFCURVE",
"152 122 CURVE SMOOTH",
"197 140 OFFCURVE",
"299 207 OFFCURVE",
"299 308 CURVE SMOOTH",
"299 349 OFFCURVE",
"282 398 OFFCURVE",
"219 398 CURVE SMOOTH",
"177 398 OFFCURVE",
"145 377 OFFCURVE",
"114 377 CURVE SMOOTH",
"77 377 OFFCURVE",
"61 406 OFFCURVE",
"61 439 CURVE SMOOTH",
"61 504 OFFCURVE",
"121 554 OFFCURVE",
"199 554 CURVE SMOOTH",
"328 554 OFFCURVE",
"407 420 OFFCURVE",
"407 297 CURVE",
"424 336 LINE",
"424 500 OFFCURVE",
"308 588 OFFCURVE",
"195 588 CURVE SMOOTH",
"97 588 OFFCURVE",
"19 521 OFFCURVE",
"19 440 CURVE SMOOTH",
"19 385 OFFCURVE",
"56 338 OFFCURVE",
"113 338 CURVE SMOOTH",
"157 338 OFFCURVE",
"195 365 OFFCURVE",
"225 365 CURVE SMOOTH",
"252 365 OFFCURVE",
"267 343 OFFCURVE",
"267 311 CURVE SMOOTH",
"267 233 OFFCURVE",
"181 185 OFFCURVE",
"135 160 CURVE SMOOTH",
"118 151 OFFCURVE",
"108 143 OFFCURVE",
"108 132 CURVE SMOOTH",
"108 122 OFFCURVE",
"115 116 OFFCURVE",
"127 116 CURVE SMOOTH"
);
},
{
closed = 1;
nodes = (
"438 -12 OFFCURVE",
"447 -1 OFFCURVE",
"447 13 CURVE SMOOTH",
"447 492 LINE SMOOTH",
"447 544 OFFCURVE",
"450 554 OFFCURVE",
"488 554 CURVE SMOOTH",
"548 554 LINE SMOOTH",
"559 554 OFFCURVE",
"568 561 OFFCURVE",
"568 571 CURVE SMOOTH",
"568 580 OFFCURVE",
"559 587 OFFCURVE",
"548 587 CURVE SMOOTH",
"476 587 LINE SMOOTH",
"427 587 OFFCURVE",
"407 558 OFFCURVE",
"407 500 CURVE SMOOTH",
"407 13 LINE SMOOTH",
"407 -1 OFFCURVE",
"416 -12 OFFCURVE",
"427 -12 CURVE SMOOTH"
);
}
);
width = 548;
},
{
layerId = "A309AC34-D742-49E2-8DE7-30304959F2B2";
name = Bold;
paths = (
{
closed = 1;
nodes = (
"163 67 OFFCURVE",
"200 87 OFFCURVE",
"244 123 CURVE SMOOTH",
"299 168 OFFCURVE",
"343 231 OFFCURVE",
"343 306 CURVE SMOOTH",
"343 366 OFFCURVE",
"310 411 OFFCURVE",
"251 411 CURVE SMOOTH",
"215 411 OFFCURVE",
"196 394 OFFCURVE",
"163 394 CURVE SMOOTH",
"134 394 OFFCURVE",
"119 411 OFFCURVE",
"119 429 CURVE SMOOTH",
"119 453 OFFCURVE",
"147 488 OFFCURVE",
"213 488 CURVE SMOOTH",
"321 488 OFFCURVE",
"387 412 OFFCURVE",
"387 289 CURVE",
"417 389 LINE",
"415 520 OFFCURVE",
"321 593 OFFCURVE",
"203 593 CURVE SMOOTH",
"80 593 OFFCURVE",
"10 511 OFFCURVE",
"10 425 CURVE SMOOTH",
"10 358 OFFCURVE",
"52 301 OFFCURVE",
"134 301 CURVE SMOOTH",
"179 301 OFFCURVE",
"201 318 OFFCURVE",
"226 318 CURVE SMOOTH",
"243 318 OFFCURVE",
"251 310 OFFCURVE",
"251 296 CURVE SMOOTH",
"251 253 OFFCURVE",
"175 208 OFFCURVE",
"125 176 CURVE SMOOTH",
"100 160 OFFCURVE",
"83 142 OFFCURVE",
"83 113 CURVE SMOOTH",
"83 94 OFFCURVE",
"96 67 OFFCURVE",
"134 67 CURVE SMOOTH"
);
},
{
closed = 1;
nodes = (
"461 -11 OFFCURVE",
"482 13 OFFCURVE",
"482 45 CURVE SMOOTH",
"482 435 LINE SMOOTH",
"482 491 OFFCURVE",
"482 502 OFFCURVE",
"516 502 CURVE SMOOTH",
"548 502 LINE SMOOTH",
"574 502 OFFCURVE",
"594 520 OFFCURVE",
"594 545 CURVE SMOOTH",
"594 569 OFFCURVE",
"574 587 OFFCURVE",
"548 587 CURVE SMOOTH",
"483 587 LINE SMOOTH",
"434 587 OFFCURVE",
"387 558 OFFCURVE",
"387 479 CURVE SMOOTH",
"387 45 LINE SMOOTH",
"387 13 OFFCURVE",
"407 -11 OFFCURVE",
"434 -11 CURVE SMOOTH"
);
}
);
width = 548;
}
);
},
{
color = 9;
glyphname = bGha;
lastChange = "2016-02-13 06:33:25 +0000";
layers = (
{
layerId = "F2EBC5D5-DDE2-4851-B52F-F2293ECE9CC7";
name = Light;
paths = (
{
closed = 1;
nodes = (
"414 -12 OFFCURVE",
"423 -1 OFFCURVE",
"423 13 CURVE SMOOTH",
"423 470 LINE SMOOTH",
"423 544 OFFCURVE",
"430 554 OFFCURVE",
"464 554 CURVE SMOOTH",
"524 554 LINE SMOOTH",
"535 554 OFFCURVE",
"544 561 OFFCURVE",
"544 571 CURVE SMOOTH",
"544 580 OFFCURVE",
"535 587 OFFCURVE",
"524 587 CURVE SMOOTH",
"452 587 LINE SMOOTH",
"420 587 OFFCURVE",
"385 569 OFFCURVE",
"385 498 CURVE",
"405 515 LINE",
"405 572 OFFCURVE",
"372 587 OFFCURVE",
"328 587 CURVE SMOOTH",
"0 587 LINE SMOOTH",
"-11 587 OFFCURVE",
"-20 580 OFFCURVE",
"-20 571 CURVE SMOOTH",
"-20 561 OFFCURVE",
"-11 554 OFFCURVE",
"0 554 CURVE SMOOTH",
"328 554 LINE SMOOTH",
"378 554 OFFCURVE",
"383 530 OFFCURVE",
"383 477 CURVE SMOOTH",
"383 13 LINE SMOOTH",
"383 -1 OFFCURVE",
"392 -12 OFFCURVE",
"403 -12 CURVE SMOOTH"
);
},
{
closed = 1;
nodes = (
"404 77 LINE",
"366 173 OFFCURVE",
"207 250 OFFCURVE",
"100 285 CURVE",
"122 265 LINE",
"262 363 LINE SMOOTH",
"285 379 OFFCURVE",
"294 390 OFFCURVE",
"294 400 CURVE SMOOTH",
"294 412 OFFCURVE",
"286 417 OFFCURVE",
"277 417 CURVE SMOOTH",
"256 417 OFFCURVE",
"242 393 OFFCURVE",
"194 393 CURVE SMOOTH",
"144 393 OFFCURVE",
"101 417 OFFCURVE",
"101 467 CURVE SMOOTH",
"101 512 OFFCURVE",
"128 554 OFFCURVE",
"194 554 CURVE",
"168 579 LINE",
"76 579 OFFCURVE",
"55 515 OFFCURVE",
"55 470 CURVE SMOOTH",
"55 403 OFFCURVE",
"108 361 OFFCURVE",
"172 361 CURVE SMOOTH",
"189 361 OFFCURVE",
"219 367 OFFCURVE",
"236 379 CURVE",
"229 387 LINE",
"85 292 LINE SMOOTH",
"75 286 OFFCURVE",
"71 278 OFFCURVE",
"71 269 CURVE SMOOTH",
"71 255 OFFCURVE",
"87 246 OFFCURVE",
"100 242 CURVE SMOOTH",
"204 210 OFFCURVE",
"384 119 OFFCURVE",
"384 43 CURVE"
);
}
);
width = 524;
},
{
layerId = "A309AC34-D742-49E2-8DE7-30304959F2B2";
name = Bold;
paths = (
{
closed = 1;
nodes = (
"437 -11 OFFCURVE",
"458 13 OFFCURVE",
"458 45 CURVE SMOOTH",
"458 435 LINE SMOOTH",
"458 491 OFFCURVE",
"458 502 OFFCURVE",
"492 502 CURVE SMOOTH",
"524 502 LINE SMOOTH",
"550 502 OFFCURVE",
"570 520 OFFCURVE",
"570 545 CURVE SMOOTH",
"570 569 OFFCURVE",
"550 587 OFFCURVE",
"524 587 CURVE SMOOTH",
"469 587 LINE SMOOTH",
"406 587 OFFCURVE",
"379 557 OFFCURVE",
"379 502 CURVE",
"400 502 LINE",
"400 558 OFFCURVE",
"363 587 OFFCURVE",
"304 587 CURVE SMOOTH",
"0 587 LINE SMOOTH",
"-26 587 OFFCURVE",
"-46 569 OFFCURVE",
"-46 545 CURVE SMOOTH",
"-46 520 OFFCURVE",
"-26 502 OFFCURVE",
"0 502 CURVE SMOOTH",
"311 502 LINE SMOOTH",
"353 502 OFFCURVE",
"363 492 OFFCURVE",
"363 441 CURVE SMOOTH",
"363 45 LINE SMOOTH",
"363 13 OFFCURVE",
"383 -11 OFFCURVE",
"410 -11 CURVE SMOOTH"
);
},
{
closed = 1;
nodes = (
"424 67 LINE",
"424 184 OFFCURVE",
"234 265 OFFCURVE",
"185 262 CURVE",
"173 232 LINE",
"282 301 LINE SMOOTH",
"308 318 OFFCURVE",
"333 333 OFFCURVE",
"333 366 CURVE SMOOTH",
"333 394 OFFCURVE",
"312 406 OFFCURVE",
"288 406 CURVE SMOOTH",
"268 406 OFFCURVE",
"248 392 OFFCURVE",
"217 392 CURVE SMOOTH",
"189 392 OFFCURVE",
"153 406 OFFCURVE",
"153 446 CURVE SMOOTH",
"153 474 OFFCURVE",
"177 504 OFFCURVE",
"239 502 CURVE",
"150 562 LINE",
"85 562 OFFCURVE",
"45 499 OFFCURVE",
"45 447 CURVE SMOOTH",
"45 364 OFFCURVE",
"121 328 OFFCURVE",
"173 328 CURVE SMOOTH",
"195 328 OFFCURVE",
"222 337 OFFCURVE",
"233 351 CURVE",
"184 351 LINE",
"85 289 LINE SMOOTH",
"66 277 OFFCURVE",
"46 260 OFFCURVE",
"46 236 CURVE SMOOTH",
"46 221 OFFCURVE",
"54 196 OFFCURVE",
"85 190 CURVE SMOOTH",
"156 176 OFFCURVE",
"363 133 OFFCURVE",
"363 48 CURVE"
);
}
);
width = 524;
}
);
},
{
color = 9;
glyphname = bNga;
lastChange = "2016-02-08 13:50:33 +0000";
layers = (
{
layerId = "F2EBC5D5-DDE2-4851-B52F-F2293ECE9CC7";
name = Light;
paths = (
{
closed = 1;
nodes = (
"445 28 OFFCURVE",
"528 97 OFFCURVE",
"528 204 CURVE SMOOTH",
"528 303 OFFCURVE",
"468 374 OFFCURVE",
"438 374 CURVE SMOOTH",
"415 374 OFFCURVE",
"416 354 OFFCURVE",
"416 337 CURVE SMOOTH",
"416 297 OFFCURVE",
"388 245 OFFCURVE",
"339 245 CURVE SMOOTH",
"281 245 OFFCURVE",
"259 307 OFFCURVE",
"259 364 CURVE SMOOTH",
"259 459 OFFCURVE",
"303 558 OFFCURVE",
"382 558 CURVE SMOOTH",
"402 558 OFFCURVE",
"423 551 OFFCURVE",
"423 527 CURVE SMOOTH",
"423 484 OFFCURVE",
"367 467 OFFCURVE",
"316 467 CURVE SMOOTH",
"220 467 OFFCURVE",
"183 529 OFFCURVE",
"122 561 CURVE SMOOTH",
"102 572 OFFCURVE",
"71 587 OFFCURVE",
"0 587 CURVE SMOOTH",
"-13 587 OFFCURVE",
"-22 580 OFFCURVE",
"-22 571 CURVE SMOOTH",
"-22 562 OFFCURVE",
"-13 554 OFFCURVE",
"-2 554 CURVE SMOOTH",
"62 554 OFFCURVE",
"87 542 OFFCURVE",
"114 524 CURVE SMOOTH",
"167 489 OFFCURVE",
"225 431 OFFCURVE",
"323 431 CURVE SMOOTH",
"392 431 OFFCURVE",
"456 464 OFFCURVE",
"456 523 CURVE SMOOTH",
"456 547 OFFCURVE",
"443 597 OFFCURVE",
"374 597 CURVE SMOOTH",
"289 597 OFFCURVE",
"216 485 OFFCURVE",
"216 364 CURVE SMOOTH",
"216 270 OFFCURVE",
"266 204 OFFCURVE",
"338 204 CURVE SMOOTH",
"417 204 OFFCURVE",
"449 284 OFFCURVE",
"449 331 CURVE SMOOTH",
"449 341 OFFCURVE",
"447 354 OFFCURVE",
"444 360 CURVE",
"439 344 LINE",
"465 318 OFFCURVE",
"488 268 OFFCURVE",
"488 213 CURVE SMOOTH",
"488 134 OFFCURVE",
"426 73 OFFCURVE",
"334 73 CURVE SMOOTH",
"184 73 OFFCURVE",
"78 253 OFFCURVE",
"68 446 CURVE SMOOTH",
"67 458 OFFCURVE",
"60 466 OFFCURVE",
"50 466 CURVE SMOOTH",
"41 466 OFFCURVE",
"35 458 OFFCURVE",
"35 448 CURVE SMOOTH",
"35 257 OFFCURVE",
"159 28 OFFCURVE",
"339 28 CURVE SMOOTH"
);
}
);
width = 555;
},
{
layerId = "A309AC34-D742-49E2-8DE7-30304959F2B2";
name = Bold;
paths = (
{
closed = 1;
nodes = (
"449 12 OFFCURVE",
"540 93 OFFCURVE",
"540 216 CURVE SMOOTH",
"540 312 OFFCURVE",
"480 380 OFFCURVE",
"437 380 CURVE SMOOTH",
"410 380 OFFCURVE",
"399 365 OFFCURVE",
"399 340 CURVE SMOOTH",
"399 311 OFFCURVE",
"378 287 OFFCURVE",
"347 287 CURVE SMOOTH",
"304 287 OFFCURVE",
"283 338 OFFCURVE",
"283 384 CURVE SMOOTH",
"283 451 OFFCURVE",
"322 518 OFFCURVE",
"367 518 CURVE SMOOTH",
"381 518 OFFCURVE",
"389 512 OFFCURVE",
"389 499 CURVE SMOOTH",
"389 480 OFFCURVE",
"370 472 OFFCURVE",
"342 472 CURVE SMOOTH",
"235 472 OFFCURVE",
"197 587 OFFCURVE",
"62 587 CURVE SMOOTH",
"41 587 OFFCURVE",
"21 587 OFFCURVE",
"0 587 CURVE SMOOTH",
"-26 587 OFFCURVE",
"-46 569 OFFCURVE",
"-46 545 CURVE SMOOTH",
"-46 521 OFFCURVE",
"-26 502 OFFCURVE",
"0 502 CURVE SMOOTH",
"21 502 OFFCURVE",
"41 502 OFFCURVE",
"62 502 CURVE SMOOTH",
"164 502 OFFCURVE",
"204 383 OFFCURVE",
"340 383 CURVE SMOOTH",
"425 383 OFFCURVE",
"477 430 OFFCURVE",
"477 496 CURVE SMOOTH",
"477 569 OFFCURVE",
"413 595 OFFCURVE",
"364 595 CURVE SMOOTH",
"271 595 OFFCURVE",
"178 504 OFFCURVE",
"178 379 CURVE SMOOTH",
"178 271 OFFCURVE",
"248 191 OFFCURVE",
"336 191 CURVE SMOOTH",
"403 191 OFFCURVE",
"444 240 OFFCURVE",
"444 283 CURVE SMOOTH",
"444 302 OFFCURVE",
"441 314 OFFCURVE",
"434 326 CURVE",
"426 291 LINE",
"441 275 OFFCURVE",
"449 250 OFFCURVE",
"449 226 CURVE SMOOTH",
"449 168 OFFCURVE",
"402 117 OFFCURVE",
"321 117 CURVE SMOOTH",
"186 117 OFFCURVE",
"120 256 OFFCURVE",
"102 384 CURVE SMOOTH",
"98 415 OFFCURVE",
"88 451 OFFCURVE",
"54 451 CURVE SMOOTH",
"25 451 OFFCURVE",
"13 428 OFFCURVE",
"13 387 CURVE SMOOTH",
"13 283 OFFCURVE",
"104 12 OFFCURVE",
"326 12 CURVE SMOOTH"
);
}
);
width = 555;
}
);
},
{
color = 9;
glyphname = bCa;
lastChange = "2016-02-08 13:50:33 +0000";
layers = (
{
layerId = "F2EBC5D5-DDE2-4851-B52F-F2293ECE9CC7";
name = Light;
paths = (
{
closed = 1;
nodes = (
"287 -12 OFFCURVE",
"432 184 OFFCURVE",
"432 290 CURVE SMOOTH",
"432 336 OFFCURVE",
"404 360 OFFCURVE",
"341 373 CURVE SMOOTH",
"210 400 OFFCURVE",
"139 416 OFFCURVE",
"139 505 CURVE SMOOTH",
"139 554 OFFCURVE",
"162 555 OFFCURVE",
"190 555 CURVE SMOOTH",
"465 554 LINE SMOOTH",
"476 554 OFFCURVE",
"485 562 OFFCURVE",
"485 571 CURVE SMOOTH",
"485 580 OFFCURVE",
"476 587 OFFCURVE",
"465 587 CURVE SMOOTH",
"176 587 LINE SMOOTH",
"128 587 OFFCURVE",
"101 563 OFFCURVE",
"101 514 CURVE",
"113 530 LINE",
"104 560 OFFCURVE",
"76 587 OFFCURVE",
"34 587 CURVE SMOOTH",
"0 587 LINE SMOOTH",
"-11 587 OFFCURVE",
"-20 580 OFFCURVE",
"-20 571 CURVE SMOOTH",
"-20 562 OFFCURVE",
"-11 554 OFFCURVE",
"0 554 CURVE SMOOTH",
"32 554 LINE SMOOTH",
"94 554 OFFCURVE",
"100 487 OFFCURVE",
"100 439 CURVE SMOOTH",
"98 122 LINE SMOOTH",
"97 29 OFFCURVE",
"125 -12 OFFCURVE",
"176 -12 CURVE SMOOTH"
);
},
{
closed = 1;
nodes = (
"136 32 OFFCURVE",
"139 96 OFFCURVE",
"139 122 CURVE SMOOTH",
"139 450 LINE",
"125 430 LINE",
"149 378 OFFCURVE",
"235 352 OFFCURVE",
"329 333 CURVE SMOOTH",
"363 326 OFFCURVE",
"388 319 OFFCURVE",
"388 289 CURVE SMOOTH",
"388 215 OFFCURVE",
"258 32 OFFCURVE",
"179 32 CURVE SMOOTH"
);
}
);
width = 465;
},
{
layerId = "A309AC34-D742-49E2-8DE7-30304959F2B2";
name = Bold;
paths = (
{
closed = 1;
nodes = (
"314 -12 OFFCURVE",
"448 194 OFFCURVE",
"448 271 CURVE SMOOTH",
"448 344 OFFCURVE",
"399 353 OFFCURVE",
"296 372 CURVE SMOOTH",
"236 383 OFFCURVE",
"189 414 OFFCURVE",
"189 454 CURVE SMOOTH",
"189 487 OFFCURVE",
"212 502 OFFCURVE",
"260 502 CURVE SMOOTH",
"465 502 LINE SMOOTH",
"491 502 OFFCURVE",
"511 520 OFFCURVE",
"511 545 CURVE SMOOTH",
"511 569 OFFCURVE",
"491 587 OFFCURVE",
"465 587 CURVE SMOOTH",
"192 587 LINE SMOOTH",
"140 587 OFFCURVE",
"109 546 OFFCURVE",
"109 521 CURVE",
"122 521 LINE",
"122 546 OFFCURVE",
"85 587 OFFCURVE",
"37 587 CURVE SMOOTH",
"0 587 LINE SMOOTH",
"-26 587 OFFCURVE",
"-46 569 OFFCURVE",
"-46 545 CURVE SMOOTH",
"-46 521 OFFCURVE",
"-26 502 OFFCURVE",
"0 502 CURVE SMOOTH",
"35 502 LINE SMOOTH",
"82 502 OFFCURVE",
"91 485 OFFCURVE",
"91 415 CURVE SMOOTH",
"91 138 LINE SMOOTH",
"91 52 OFFCURVE",
"104 -12 OFFCURVE",
"197 -12 CURVE SMOOTH"
);
},
{
closed = 1;
nodes = (
"190 103 OFFCURVE",
"186 123 OFFCURVE",
"186 157 CURVE SMOOTH",
"186 361 LINE",
"161 357 LINE",
"184 312 OFFCURVE",
"246 299 OFFCURVE",
"285 295 CURVE SMOOTH",
"332 291 OFFCURVE",
"338 264 OFFCURVE",
"338 247 CURVE SMOOTH",
"338 212 OFFCURVE",
"256 103 OFFCURVE",
"216 103 CURVE SMOOTH"
);
}
);
width = 465;
}
);
},
{
color = 9;
glyphname = bCha;
lastChange = "2016-02-08 13:50:33 +0000";
layers = (
{
layerId = "F2EBC5D5-DDE2-4851-B52F-F2293ECE9CC7";
name = Light;
paths = (
{
closed = 1;
nodes = (
"509 -82 OFFCURVE",
"517 -72 OFFCURVE",
"517 -63 CURVE SMOOTH",
"517 -55 OFFCURVE",
"512 -46 OFFCURVE",
"496 -46 CURVE SMOOTH",
"452 -46 OFFCURVE",
"382 33 OFFCURVE",
"307 89 CURVE SMOOTH",
"271 116 OFFCURVE",
"220 148 OFFCURVE",
"182 148 CURVE SMOOTH",
"144 148 OFFCURVE",
"122 126 OFFCURVE",
"122 100 CURVE SMOOTH",
"122 65 OFFCURVE",
"158 46 OFFCURVE",
"200 46 CURVE SMOOTH",
"311 46 OFFCURVE",
"453 145 OFFCURVE",
"453 270 CURVE SMOOTH",
"453 356 OFFCURVE",
"377 425 OFFCURVE",
"280 425 CURVE SMOOTH",
"202 425 OFFCURVE",
"139 461 OFFCURVE",
"139 515 CURVE SMOOTH",
"139 552 OFFCURVE",
"159 554 OFFCURVE",
"187 554 CURVE SMOOTH",
"500 554 LINE SMOOTH",
"511 554 OFFCURVE",
"520 562 OFFCURVE",
"520 571 CURVE SMOOTH",
"520 580 OFFCURVE",
"511 587 OFFCURVE",
"500 587 CURVE SMOOTH",
"176 587 LINE SMOOTH",
"119 587 OFFCURVE",
"100 574 OFFCURVE",
"100 511 CURVE",
"115 525 LINE",
"102 561 OFFCURVE",
"85 587 OFFCURVE",
"24 587 CURVE SMOOTH",
"0 587 LINE SMOOTH",
"-11 587 OFFCURVE",
"-20 580 OFFCURVE",
"-20 571 CURVE SMOOTH",
"-20 562 OFFCURVE",
"-11 554 OFFCURVE",
"0 554 CURVE SMOOTH",
"35 554 LINE SMOOTH",
"84 554 OFFCURVE",
"100 513 OFFCURVE",
"100 482 CURVE SMOOTH",
"98 277 LINE SMOOTH",
"97 203 OFFCURVE",
"134 184 OFFCURVE",
"181 184 CURVE SMOOTH",
"254 184 OFFCURVE",
"357 284 OFFCURVE",
"357 359 CURVE SMOOTH",
"357 389 OFFCURVE",
"338 403 OFFCURVE",
"329 403 CURVE",
"334 386 LINE",
"400 357 OFFCURVE",
"415 317 OFFCURVE",
"415 273 CURVE SMOOTH",
"415 184 OFFCURVE",
"297 88 OFFCURVE",
"199 88 CURVE SMOOTH",
"180 88 OFFCURVE",
"169 96 OFFCURVE",
"169 102 CURVE SMOOTH",
"169 107 OFFCURVE",
"174 110 OFFCURVE",
"183 110 CURVE SMOOTH",
"200 110 OFFCURVE",
"240 87 OFFCURVE",
"264 71 CURVE SMOOTH",
"342 14 OFFCURVE",
"438 -82 OFFCURVE",
"495 -82 CURVE SMOOTH"
);
},
{
closed = 1;
nodes = (
"149 219 OFFCURVE",
"138 236 OFFCURVE",
"138 276 CURVE SMOOTH",
"138 484 LINE",
"123 474 LINE",
"141 403 OFFCURVE",
"209 390 OFFCURVE",
"257 390 CURVE SMOOTH",
"297 390 OFFCURVE",
"322 383 OFFCURVE",
"322 355 CURVE SMOOTH",
"322 308 OFFCURVE",
"230 219 OFFCURVE",
"176 219 CURVE SMOOTH"
);
}
);
width = 500;
},
{
layerId = "A309AC34-D742-49E2-8DE7-30304959F2B2";
name = Bold;
paths = (
{
closed = 1;
nodes = (
"515 -82 OFFCURVE",
"533 -67 OFFCURVE",
"533 -42 CURVE SMOOTH",
"533 -19 OFFCURVE",
"515 -5 OFFCURVE",
"482 3 CURVE SMOOTH",
"450 11 OFFCURVE",
"420 42 OFFCURVE",
"385 79 CURVE SMOOTH",
"323 143 OFFCURVE",
"272 170 OFFCURVE",
"226 170 CURVE SMOOTH",
"157 170 OFFCURVE",
"124 127 OFFCURVE",
"124 81 CURVE SMOOTH",
"124 31 OFFCURVE",
"172 -4 OFFCURVE",
"229 -4 CURVE SMOOTH",
"357 -4 OFFCURVE",
"480 109 OFFCURVE",
"480 246 CURVE SMOOTH",
"480 352 OFFCURVE",
"425 451 OFFCURVE",
"292 451 CURVE SMOOTH",
"238 451 OFFCURVE",
"197 446 OFFCURVE",
"197 478 CURVE SMOOTH",
"197 496 OFFCURVE",
"208 502 OFFCURVE",
"235 502 CURVE SMOOTH",
"500 502 LINE SMOOTH",
"526 502 OFFCURVE",
"546 520 OFFCURVE",
"546 545 CURVE SMOOTH",
"546 569 OFFCURVE",
"526 587 OFFCURVE",
"500 587 CURVE SMOOTH",
"197 587 LINE SMOOTH",
"145 587 OFFCURVE",
"119 546 OFFCURVE",
"119 521 CURVE",
"142 521 LINE",
"141 558 OFFCURVE",
"94 587 OFFCURVE",
"54 587 CURVE SMOOTH",
"0 587 LINE SMOOTH",
"-26 587 OFFCURVE",
"-46 569 OFFCURVE",
"-46 545 CURVE SMOOTH",
"-46 521 OFFCURVE",
"-26 502 OFFCURVE",
"0 502 CURVE SMOOTH",
"36 502 LINE SMOOTH",
"98 502 OFFCURVE",
"101 490 OFFCURVE",
"101 453 CURVE SMOOTH",
"101 281 LINE SMOOTH",
"101 230 OFFCURVE",
"119 184 OFFCURVE",
"198 184 CURVE SMOOTH",
"308 184 OFFCURVE",
"376 290 OFFCURVE",
"376 351 CURVE SMOOTH",
"376 376 OFFCURVE",
"357 393 OFFCURVE",
"341 393 CURVE",
"337 371 LINE",
"354 371 OFFCURVE",
"395 331 OFFCURVE",
"395 265 CURVE SMOOTH",
"395 169 OFFCURVE",
"299 76 OFFCURVE",
"226 76 CURVE SMOOTH",
"204 76 OFFCURVE",
"195 84 OFFCURVE",
"195 90 CURVE SMOOTH",
"195 95 OFFCURVE",
"200 98 OFFCURVE",
"208 98 CURVE SMOOTH",
"232 98 OFFCURVE",
"272 73 OFFCURVE",
"305 35 CURVE SMOOTH",
"357 -24 OFFCURVE",
"424 -82 OFFCURVE",
"486 -82 CURVE SMOOTH"
);
},
{
closed = 1;
nodes = (
"193 268 OFFCURVE",
"196 293 OFFCURVE",
"196 325 CURVE SMOOTH",
"196 430 LINE",
"181 424 LINE",
"181 409 OFFCURVE",
"205 386 OFFCURVE",
"247 386 CURVE SMOOTH",
"279 386 OFFCURVE",
"292 371 OFFCURVE",
"292 344 CURVE SMOOTH",
"292 308 OFFCURVE",
"257 268 OFFCURVE",
"219 268 CURVE SMOOTH"
);
}
);
width = 500;
}
);
},
{
color = 9;
glyphname = bJa;
lastChange = "2016-02-13 10:37:16 +0000";
layers = (
{
layerId = "F2EBC5D5-DDE2-4851-B52F-F2293ECE9CC7";
name = Light;
paths = (
{
closed = 1;
nodes = (
"420 57 OFFCURVE",
"477 128 OFFCURVE",
"477 196 CURVE SMOOTH",
"477 290 OFFCURVE",
"412 346 OFFCURVE",
"391 346 CURVE SMOOTH",
"384 346 OFFCURVE",
"373 344 OFFCURVE",
"373 325 CURVE SMOOTH",
"373 294 OFFCURVE",
"349 268 OFFCURVE",
"300 268 CURVE SMOOTH",
"249 268 OFFCURVE",
"216 311 OFFCURVE",
"216 376 CURVE SMOOTH",
"216 437 OFFCURVE",
"264 554 OFFCURVE",
"353 554 CURVE SMOOTH",
"645 554 LINE SMOOTH",
"656 554 OFFCURVE",
"665 562 OFFCURVE",
"665 571 CURVE SMOOTH",
"665 580 OFFCURVE",
"656 587 OFFCURVE",
"645 587 CURVE SMOOTH",
"338 587 LINE SMOOTH",
"294 587 OFFCURVE",
"256 554 OFFCURVE",
"235 522 CURVE",
"251 505 LINE",
"253 567 OFFCURVE",
"210 587 OFFCURVE",
"144 587 CURVE SMOOTH",
"0 587 LINE SMOOTH",
"-11 587 OFFCURVE",
"-20 580 OFFCURVE",
"-20 571 CURVE SMOOTH",
"-20 562 OFFCURVE",
"-11 554 OFFCURVE",
"0 554 CURVE SMOOTH",
"157 554 LINE SMOOTH",
"184 554 OFFCURVE",
"223 542 OFFCURVE",
"223 517 CURVE SMOOTH",
"223 500 OFFCURVE",
"176 447 OFFCURVE",
"176 371 CURVE SMOOTH",
"176 308 OFFCURVE",
"214 224 OFFCURVE",
"303 224 CURVE SMOOTH",
"370 224 OFFCURVE",
"408 277 OFFCURVE",
"408 323 CURVE",
"399 306 LINE",
"422 280 OFFCURVE",
"434 246 OFFCURVE",
"434 211 CURVE SMOOTH",
"434 158 OFFCURVE",
"395 105 OFFCURVE",
"313 105 CURVE SMOOTH",
"197 105 OFFCURVE",
"70 252 OFFCURVE",
"60 446 CURVE SMOOTH",
"59 458 OFFCURVE",
"52 466 OFFCURVE",
"42 466 CURVE SMOOTH",
"33 466 OFFCURVE",
"27 458 OFFCURVE",
"27 448 CURVE SMOOTH",
"27 270 OFFCURVE",
"155 57 OFFCURVE",
"318 57 CURVE SMOOTH"
);
},
{
closed = 1;
nodes = (
"567 30 OFFCURVE",
"575 41 OFFCURVE",
"575 57 CURVE SMOOTH",
"575 186 OFFCURVE",
"562 221 OFFCURVE",
"562 279 CURVE SMOOTH",
"562 367 OFFCURVE",
"618 423 OFFCURVE",
"618 451 CURVE SMOOTH",
"618 458 OFFCURVE",
"614 467 OFFCURVE",
"600 467 CURVE SMOOTH",
"567 467 OFFCURVE",
"542 418 OFFCURVE",
"468 418 CURVE SMOOTH",
"378 418 OFFCURVE",
"342 500 OFFCURVE",
"342 563 CURVE",
"311 558 LINE",
"311 476 OFFCURVE",
"362 375 OFFCURVE",
"467 375 CURVE SMOOTH",
"519 375 OFFCURVE",
"576 414 OFFCURVE",
"590 432 CURVE",
"581 439 LINE",
"542 396 OFFCURVE",
"522 323 OFFCURVE",
"522 271 CURVE SMOOTH",
"522 219 OFFCURVE",
"535 186 OFFCURVE",
"535 57 CURVE SMOOTH",
"535 41 OFFCURVE",
"544 30 OFFCURVE",
"556 30 CURVE SMOOTH"
);
}
);
width = 645;
},
{
layerId = "A309AC34-D742-49E2-8DE7-30304959F2B2";
name = Bold;
paths = (
{
closed = 1;
nodes = (
"420 14 OFFCURVE",
"487 107 OFFCURVE",
"487 202 CURVE SMOOTH",
"487 285 OFFCURVE",
"429 338 OFFCURVE",
"388 338 CURVE SMOOTH",
"373 338 OFFCURVE",
"360 329 OFFCURVE",
"360 311 CURVE SMOOTH",
"360 286 OFFCURVE",
"338 268 OFFCURVE",
"316 268 CURVE SMOOTH",
"266 268 OFFCURVE",
"242 314 OFFCURVE",
"242 364 CURVE SMOOTH",
"242 437 OFFCURVE",
"280 502 OFFCURVE",
"341 502 CURVE SMOOTH",
"645 502 LINE SMOOTH",
"671 502 OFFCURVE",
"691 520 OFFCURVE",
"691 545 CURVE SMOOTH",
"691 569 OFFCURVE",
"671 587 OFFCURVE",
"645 587 CURVE SMOOTH",
"348 587 LINE SMOOTH",
"298 587 OFFCURVE",
"257 557 OFFCURVE",
"242 531 CURVE",
"254 530 LINE",
"254 563 OFFCURVE",
"223 587 OFFCURVE",
"174 587 CURVE SMOOTH",
"0 587 LINE SMOOTH",
"-26 587 OFFCURVE",
"-46 569 OFFCURVE",
"-46 545 CURVE SMOOTH",
"-46 521 OFFCURVE",
"-26 502 OFFCURVE",
"0 502 CURVE SMOOTH",
"109 502 LINE SMOOTH",
"156 502 OFFCURVE",
"182 504 OFFCURVE",
"182 479 CURVE SMOOTH",
"182 449 OFFCURVE",
"152 418 OFFCURVE",
"152 341 CURVE SMOOTH",
"152 266 OFFCURVE",
"206 182 OFFCURVE",
"304 182 CURVE SMOOTH",
"375 182 OFFCURVE",
"415 241 OFFCURVE",
"415 284 CURVE",
"392 265 LINE",
"405 247 OFFCURVE",
"410 229 OFFCURVE",
"410 212 CURVE SMOOTH",
"410 155 OFFCURVE",
"369 110 OFFCURVE",
"295 110 CURVE SMOOTH",
"138 110 OFFCURVE",
"94 301 OFFCURVE",
"83 418 CURVE SMOOTH",
"80 449 OFFCURVE",
"67 466 OFFCURVE",
"45 466 CURVE SMOOTH",
"19 466 OFFCURVE",
"5 445 OFFCURVE",
"5 398 CURVE SMOOTH",
"5 272 OFFCURVE",
"75 14 OFFCURVE",
"294 14 CURVE SMOOTH"
);
},
{
closed = 1;
nodes = (
"602 -12 OFFCURVE",
"621 13 OFFCURVE",
"621 47 CURVE SMOOTH",
"621 173 OFFCURVE",
"611 237 OFFCURVE",
"611 278 CURVE SMOOTH",
"611 366 OFFCURVE",
"638 402 OFFCURVE",
"638 432 CURVE SMOOTH",
"638 457 OFFCURVE",
"620 474 OFFCURVE",
"593 474 CURVE SMOOTH",
"555 474 OFFCURVE",
"517 442 OFFCURVE",
"456 442 CURVE SMOOTH",
"399 442 OFFCURVE",
"348 471 OFFCURVE",
"343 516 CURVE",
"271 513 LINE",
"274 419 OFFCURVE",
"355 356 OFFCURVE",
"452 356 CURVE SMOOTH",
"493 356 OFFCURVE",
"544 378 OFFCURVE",
"577 388 CURVE",
"566 402 LINE",
"520 380 OFFCURVE",
"519 311 OFFCURVE",
"519 258 CURVE SMOOTH",
"519 213 OFFCURVE",
"526 164 OFFCURVE",
"526 42 CURVE SMOOTH",
"526 11 OFFCURVE",
"547 -12 OFFCURVE",
"575 -12 CURVE SMOOTH"
);
}
);
width = 645;
}
);
},
{
color = 9;
glyphname = bJha;
lastChange = "2016-02-09 05:18:25 +0000";
layers = (
{
layerId = "F2EBC5D5-DDE2-4851-B52F-F2293ECE9CC7";
name = Light;
paths = (
{
closed = 1;
nodes = (
"400 53 LINE",
"400 164 OFFCURVE",
"219 282 OFFCURVE",
"57 312 CURVE",
"59 298 LINE",
"312 403 OFFCURVE",
"394 446 OFFCURVE",
"394 518 CURVE SMOOTH",
"394 563 OFFCURVE",
"351 587 OFFCURVE",
"292 587 CURVE SMOOTH",
"0 587 LINE SMOOTH",
"-7 587 OFFCURVE",
"-16 582 OFFCURVE",
"-16 571 CURVE SMOOTH",
"-16 562 OFFCURVE",
"-9 554 OFFCURVE",
"0 554 CURVE SMOOTH",
"292 554 LINE SMOOTH",
"338 554 OFFCURVE",
"367 539 OFFCURVE",
"367 520 CURVE SMOOTH",
"367 490 OFFCURVE",
"320 457 OFFCURVE",
"60 343 CURVE SMOOTH",
"41 334 OFFCURVE",
"32 323 OFFCURVE",
"32 310 CURVE SMOOTH",
"32 295 OFFCURVE",
"43 280 OFFCURVE",
"67 273 CURVE SMOOTH",
"147 248 OFFCURVE",
"367 165 OFFCURVE",
"367 48 CURVE"
);
},
{
closed = 1;
nodes = (
"398 -12 OFFCURVE",
"407 -1 OFFCURVE",
"407 13 CURVE SMOOTH",
"407 584 LINE SMOOTH",
"407 598 OFFCURVE",
"398 609 OFFCURVE",
"387 609 CURVE SMOOTH",
"375 609 OFFCURVE",
"367 598 OFFCURVE",
"367 584 CURVE SMOOTH",
"367 13 LINE SMOOTH",
"367 -1 OFFCURVE",
"376 -12 OFFCURVE",
"387 -12 CURVE SMOOTH"
);
},
{
closed = 1;
nodes = (
"534 90 LINE",
"534 174 OFFCURVE",
"407 195 OFFCURVE",
"407 297 CURVE",
"374 273 LINE",
"374 182 OFFCURVE",
"515 142 OFFCURVE",
"515 63 CURVE"
);
},
{
closed = 1;
nodes = (
"546 33 OFFCURVE",
"555 44 OFFCURVE",
"555 58 CURVE SMOOTH",
"555 470 LINE SMOOTH",
"555 544 OFFCURVE",
"562 554 OFFCURVE",
"596 554 CURVE SMOOTH",
"655 554 LINE SMOOTH",
"666 554 OFFCURVE",
"675 561 OFFCURVE",
"675 571 CURVE SMOOTH",
"675 580 OFFCURVE",
"666 587 OFFCURVE",
"655 587 CURVE SMOOTH",
"584 587 LINE SMOOTH",
"535 587 OFFCURVE",
"515 558 OFFCURVE",
"515 482 CURVE SMOOTH",
"515 58 LINE SMOOTH",
"515 44 OFFCURVE",
"524 33 OFFCURVE",
"535 33 CURVE SMOOTH"
);
}
);
width = 655;
},
{
layerId = "A309AC34-D742-49E2-8DE7-30304959F2B2";
name = Bold;
paths = (
{
closed = 1;
nodes = (
"407 84 LINE",
"407 215 OFFCURVE",
"231 300 OFFCURVE",
"150 318 CURVE",
"147 289 LINE",
"349 357 OFFCURVE",
"388 422 OFFCURVE",
"388 476 CURVE SMOOTH",
"388 528 OFFCURVE",
"351 587 OFFCURVE",
"270 587 CURVE SMOOTH",
"0 587 LINE SMOOTH",
"-17 587 OFFCURVE",
"-40 575 OFFCURVE",
"-40 546 CURVE SMOOTH",
"-40 517 OFFCURVE",
"-19 502 OFFCURVE",
"0 502 CURVE SMOOTH",
"242 502 LINE SMOOTH",
"246 502 OFFCURVE",
"318 505 OFFCURVE",
"318 487 CURVE SMOOTH",
"318 460 OFFCURVE",
"204 419 OFFCURVE",
"66 362 CURVE SMOOTH",
"32 348 OFFCURVE",
"20 327 OFFCURVE",
"20 302 CURVE SMOOTH",
"20 262 OFFCURVE",
"52 249 OFFCURVE",
"84 239 CURVE SMOOTH",
"130 225 OFFCURVE",
"344 159 OFFCURVE",
"344 49 CURVE"
);
},
{
closed = 1;
nodes = (
"418 -12 OFFCURVE",
"439 12 OFFCURVE",
"439 44 CURVE SMOOTH",
"439 553 LINE SMOOTH",
"439 585 OFFCURVE",
"419 609 OFFCURVE",
"392 609 CURVE SMOOTH",
"364 609 OFFCURVE",
"344 585 OFFCURVE",
"344 553 CURVE SMOOTH",
"344 44 LINE SMOOTH",
"344 12 OFFCURVE",
"364 -12 OFFCURVE",
"391 -12 CURVE SMOOTH"
);
},
{
closed = 1;
nodes = (
"546 114 LINE",
"546 234 OFFCURVE",
"439 227 OFFCURVE",
"439 335 CURVE",
"413 234 LINE",
"413 177 OFFCURVE",
"494 181 OFFCURVE",
"494 93 CURVE"
);
},
{
closed = 1;
nodes = (
"568 27 OFFCURVE",
"589 51 OFFCURVE",
"589 83 CURVE SMOOTH",
"589 435 LINE SMOOTH",
"589 491 OFFCURVE",
"589 502 OFFCURVE",
"623 502 CURVE SMOOTH",
"655 502 LINE SMOOTH",
"681 502 OFFCURVE",
"701 520 OFFCURVE",
"701 545 CURVE SMOOTH",
"701 569 OFFCURVE",
"681 587 OFFCURVE",
"655 587 CURVE SMOOTH",
"600 587 LINE SMOOTH",
"538 587 OFFCURVE",
"494 544 OFFCURVE",
"494 457 CURVE SMOOTH",
"494 83 LINE SMOOTH",
"494 51 OFFCURVE",
"514 27 OFFCURVE",
"541 27 CURVE SMOOTH"
);
}
);
width = 655;
}
);
},
{
color = 9;
glyphname = bNya;
lastChange = "2016-02-08 13:50:33 +0000";
layers = (
{
components = (
{
name = bE;
}
);
layerId = "F2EBC5D5-DDE2-4851-B52F-F2293ECE9CC7";
name = Light;
paths = (
{
closed = 1;
nodes = (
"717 116 OFFCURVE",
"772 161 OFFCURVE",
"772 228 CURVE SMOOTH",
"772 292 OFFCURVE",
"721 350 OFFCURVE",
"666 350 CURVE SMOOTH",
"634 350 OFFCURVE",
"613 331 OFFCURVE",
"613 306 CURVE SMOOTH",
"613 282 OFFCURVE",
"633 267 OFFCURVE",
"659 267 CURVE SMOOTH",
"718 267 OFFCURVE",
"767 342 OFFCURVE",
"767 398 CURVE SMOOTH",
"767 456 OFFCURVE",
"717 508 OFFCURVE",
"650 508 CURVE SMOOTH",
"558 508 OFFCURVE",
"485 408 OFFCURVE",
"485 306 CURVE SMOOTH",
"485 203 OFFCURVE",
"558 116 OFFCURVE",
"650 116 CURVE SMOOTH"
);
},
{
closed = 1;
nodes = (
"583 156 OFFCURVE",
"522 215 OFFCURVE",
"522 305 CURVE SMOOTH",
"522 394 OFFCURVE",
"582 470 OFFCURVE",
"652 470 CURVE SMOOTH",
"699 470 OFFCURVE",
"730 436 OFFCURVE",
"730 391 CURVE SMOOTH",
"730 347 OFFCURVE",
"700 296 OFFCURVE",
"662 296 CURVE SMOOTH",
"649 296 OFFCURVE",
"643 302 OFFCURVE",
"643 309 CURVE SMOOTH",
"643 315 OFFCURVE",
"648 322 OFFCURVE",
"662 322 CURVE SMOOTH",
"697 322 OFFCURVE",
"733 282 OFFCURVE",
"733 237 CURVE SMOOTH",
"733 195 OFFCURVE",
"701 156 OFFCURVE",
"648 156 CURVE SMOOTH"
);
}
);
width = 804;
},
{
components = (
{
name = bE;
}
);
layerId = "A309AC34-D742-49E2-8DE7-30304959F2B2";
name = Bold;
paths = (
{
closed = 1;
nodes = (
"723 94 OFFCURVE",
"777 153 OFFCURVE",
"777 226 CURVE SMOOTH",
"777 301 OFFCURVE",
"719 381 OFFCURVE",
"642 381 CURVE SMOOTH",
"589 381 OFFCURVE",
"554 342 OFFCURVE",
"554 296 CURVE SMOOTH",
"554 246 OFFCURVE",
"595 213 OFFCURVE",
"642 213 CURVE SMOOTH",
"722 213 OFFCURVE",
"774 309 OFFCURVE",
"774 382 CURVE SMOOTH",
"774 450 OFFCURVE",
"729 515 OFFCURVE",
"634 515 CURVE SMOOTH",
"509 515 OFFCURVE",
"460 389 OFFCURVE",
"460 299 CURVE SMOOTH",
"460 207 OFFCURVE",
"512 94 OFFCURVE",
"632 94 CURVE SMOOTH"
);
},
{
closed = 1;
nodes = (
"580 179 OFFCURVE",
"532 215 OFFCURVE",
"532 293 CURVE SMOOTH",
"532 370 OFFCURVE",
"574 426 OFFCURVE",
"631 426 CURVE SMOOTH",
"666 426 OFFCURVE",
"695 408 OFFCURVE",
"695 361 CURVE SMOOTH",
"695 316 OFFCURVE",
"668 286 OFFCURVE",
"644 286 CURVE SMOOTH",
"633 286 OFFCURVE",
"627 292 OFFCURVE",
"627 298 CURVE SMOOTH",
"627 305 OFFCURVE",
"634 312 OFFCURVE",
"646 312 CURVE SMOOTH",
"668 312 OFFCURVE",
"700 289 OFFCURVE",
"700 248 CURVE SMOOTH",
"700 204 OFFCURVE",
"663 179 OFFCURVE",
"624 179 CURVE SMOOTH"
);
}
);
width = 804;
}
);
},
{
color = 9;
glyphname = bTta;
lastChange = "2016-02-08 13:50:33 +0000";
layers = (
{
components = (
{
name = bDdha;
}
);
layerId = "F2EBC5D5-DDE2-4851-B52F-F2293ECE9CC7";
name = Light;
paths = (
{
closed = 1;
nodes = (
"431 575 LINE",
"431 668 OFFCURVE",
"387 729 OFFCURVE",
"303 729 CURVE SMOOTH",
"251 729 OFFCURVE",
"201 705 OFFCURVE",
"127 705 CURVE SMOOTH",
"23 705 OFFCURVE",
"14 761 OFFCURVE",
"14 795 CURVE SMOOTH",
"14 812 OFFCURVE",
"6 818 OFFCURVE",
"-2 818 CURVE SMOOTH",
"-14 818 OFFCURVE",
"-18 807 OFFCURVE",
"-18 790 CURVE SMOOTH",
"-18 700 OFFCURVE",
"64 671 OFFCURVE",
"139 671 CURVE SMOOTH",
"207 671 OFFCURVE",
"255 694 OFFCURVE",
"306 694 CURVE SMOOTH",
"377 694 OFFCURVE",
"392 648 OFFCURVE",
"392 575 CURVE"
);
}
);
width = 488;
},
{
components = (
{
name = bDdha;
}
);
layerId = "A309AC34-D742-49E2-8DE7-30304959F2B2";
name = Bold;
paths = (
{
closed = 1;
nodes = (
"441 564 LINE",
"441 684 OFFCURVE",
"397 739 OFFCURVE",
"313 739 CURVE SMOOTH",
"256 739 OFFCURVE",
"164 705 OFFCURVE",
"118 705 CURVE SMOOTH",
"74 705 OFFCURVE",
"38 728 OFFCURVE",
"38 779 CURVE SMOOTH",
"38 813 OFFCURVE",
"17 826 OFFCURVE",
"-2 826 CURVE SMOOTH",
"-28 826 OFFCURVE",
"-37 805 OFFCURVE",
"-37 782 CURVE SMOOTH",
"-37 705 OFFCURVE",
"5 624 OFFCURVE",
"108 624 CURVE SMOOTH",
"176 624 OFFCURVE",
"265 648 OFFCURVE",
"310 648 CURVE SMOOTH",
"363 648 OFFCURVE",
"359 615 OFFCURVE",
"359 564 CURVE"
);
}
);
width = 488;
}
);
},
{
color = 9;
glyphname = bTtha;
lastChange = "2016-02-08 13:50:33 +0000";
layers = (
{
layerId = "F2EBC5D5-DDE2-4851-B52F-F2293ECE9CC7";
name = Light;
paths = (
{
closed = 1;
nodes = (
"335 7 OFFCURVE",
"391 111 OFFCURVE",
"391 203 CURVE SMOOTH",
"391 374 OFFCURVE",
"264 488 OFFCURVE",
"187 582 CURVE",
"171 581 LINE",
"197 557 OFFCURVE",
"222 554 OFFCURVE",
"264 554 CURVE SMOOTH",
"420 554 LINE SMOOTH",
"431 554 OFFCURVE",
"440 562 OFFCURVE",
"440 571 CURVE SMOOTH",
"440 580 OFFCURVE",
"431 587 OFFCURVE",
"420 587 CURVE SMOOTH",
"223 587 LINE SMOOTH",
"163 587 OFFCURVE",
"129 658 OFFCURVE",
"129 712 CURVE SMOOTH",
"129 763 OFFCURVE",
"165 791 OFFCURVE",
"192 814 CURVE SMOOTH",
"206 826 OFFCURVE",
"228 847 OFFCURVE",
"228 869 CURVE SMOOTH",
"228 877 OFFCURVE",
"225 887 OFFCURVE",
"214 887 CURVE SMOOTH",
"203 887 OFFCURVE",
"199 878 OFFCURVE",
"195 867 CURVE SMOOTH",
"190 853 OFFCURVE",
"177 842 OFFCURVE",
"161 829 CURVE SMOOTH",
"143 814 OFFCURVE",
"94 776 OFFCURVE",
"94 712 CURVE SMOOTH",
"94 657 OFFCURVE",
"120 615 OFFCURVE",
"195 525 CURVE SMOOTH",
"286 416 OFFCURVE",
"351 327 OFFCURVE",
"351 214 CURVE SMOOTH",
"351 122 OFFCURVE",
"303 53 OFFCURVE",
"214 53 CURVE SMOOTH",
"137 53 OFFCURVE",
"94 103 OFFCURVE",
"94 155 CURVE SMOOTH",
"94 255 OFFCURVE",
"234 305 OFFCURVE",
"234 462 CURVE SMOOTH",
"234 549 OFFCURVE",
"163 587 OFFCURVE",
"92 587 CURVE SMOOTH",
"0 587 LINE SMOOTH",
"-11 587 OFFCURVE",
"-20 580 OFFCURVE",
"-20 571 CURVE SMOOTH",
"-20 562 OFFCURVE",
"-11 554 OFFCURVE",
"0 554 CURVE SMOOTH",
"101 554 LINE SMOOTH",
"175 554 OFFCURVE",
"202 519 OFFCURVE",
"202 466 CURVE SMOOTH",
"202 310 OFFCURVE",
"48 287 OFFCURVE",
"48 161 CURVE SMOOTH",
"48 70 OFFCURVE",
"125 7 OFFCURVE",
"217 7 CURVE SMOOTH"
);
}
);
width = 420;
},
{
layerId = "A309AC34-D742-49E2-8DE7-30304959F2B2";
name = Bold;
paths = (
{
closed = 1;
nodes = (
"341 -12 OFFCURVE",
"394 114 OFFCURVE",
"394 212 CURVE SMOOTH",
"394 340 OFFCURVE",
"310 455 OFFCURVE",
"239 540 CURVE",
"234 534 LINE",
"258 516 OFFCURVE",
"288 502 OFFCURVE",
"327 502 CURVE SMOOTH",
"420 502 LINE SMOOTH",
"446 502 OFFCURVE",
"466 520 OFFCURVE",
"466 545 CURVE SMOOTH",
"466 569 OFFCURVE",
"446 587 OFFCURVE",
"420 587 CURVE SMOOTH",
"262 587 LINE SMOOTH",
"198 587 OFFCURVE",
"169 645 OFFCURVE",
"169 688 CURVE SMOOTH",
"169 738 OFFCURVE",
"204 780 OFFCURVE",
"236 804 CURVE SMOOTH",
"267 827 OFFCURVE",
"297 853 OFFCURVE",
"297 888 CURVE SMOOTH",
"297 910 OFFCURVE",
"285 928 OFFCURVE",
"262 928 CURVE SMOOTH",
"234 928 OFFCURVE",
"228 902 OFFCURVE",
"213 884 CURVE SMOOTH",
"191 859 OFFCURVE",
"163 845 OFFCURVE",
"140 823 CURVE SMOOTH",
"115 800 OFFCURVE",
"86 762 OFFCURVE",
"86 700 CURVE SMOOTH",
"86 636 OFFCURVE",
"137 556 OFFCURVE",
"206 458 CURVE SMOOTH",
"282 350 OFFCURVE",
"300 288 OFFCURVE",
"300 218 CURVE SMOOTH",
"300 138 OFFCURVE",
"255 79 OFFCURVE",
"206 79 CURVE SMOOTH",
"168 79 OFFCURVE",
"134 108 OFFCURVE",
"134 164 CURVE SMOOTH",
"134 258 OFFCURVE",
"266 310 OFFCURVE",
"266 417 CURVE SMOOTH",
"266 533 OFFCURVE",
"127 587 OFFCURVE",
"54 587 CURVE SMOOTH",
"0 587 LINE SMOOTH",
"-26 587 OFFCURVE",
"-46 569 OFFCURVE",
"-46 545 CURVE SMOOTH",
"-46 521 OFFCURVE",
"-26 502 OFFCURVE",
"0 502 CURVE SMOOTH",
"81 502 LINE SMOOTH",
"148 502 OFFCURVE",
"173 474 OFFCURVE",
"173 435 CURVE SMOOTH",
"173 342 OFFCURVE",
"29 298 OFFCURVE",
"29 167 CURVE SMOOTH",
"29 57 OFFCURVE",
"109 -12 OFFCURVE",
"205 -12 CURVE SMOOTH"
);
}
);
width = 420;
}
);
},
{
color = 9;
glyphname = bDda;
lastChange = "2016-02-08 13:50:33 +0000";
layers = (
{
layerId = "F2EBC5D5-DDE2-4851-B52F-F2293ECE9CC7";
name = Light;
paths = (
{
closed = 1;
nodes = (
"482 30 OFFCURVE",
"560 113 OFFCURVE",
"561 226 CURVE SMOOTH",
"562 315 OFFCURVE",
"514 393 OFFCURVE",
"477 393 CURVE SMOOTH",
"456 393 OFFCURVE",
"462 366 OFFCURVE",
"462 349 CURVE SMOOTH",
"462 315 OFFCURVE",
"439 267 OFFCURVE",
"383 267 CURVE SMOOTH",
"331 267 OFFCURVE",
"292 317 OFFCURVE",
"292 405 CURVE SMOOTH",
"292 513 OFFCURVE",
"324 554 OFFCURVE",
"378 554 CURVE SMOOTH",
"594 554 LINE SMOOTH",
"605 554 OFFCURVE",
"614 562 OFFCURVE",
"614 571 CURVE SMOOTH",
"614 580 OFFCURVE",
"605 587 OFFCURVE",
"594 587 CURVE SMOOTH",
"367 587 LINE SMOOTH",
"325 587 OFFCURVE",
"283 564 OFFCURVE",
"283 529 CURVE",
"298 529 LINE",
"298 567 OFFCURVE",
"256 587 OFFCURVE",
"210 587 CURVE SMOOTH",
"0 587 LINE SMOOTH",
"-11 587 OFFCURVE",
"-20 580 OFFCURVE",
"-20 571 CURVE SMOOTH",
"-20 562 OFFCURVE",
"-11 554 OFFCURVE",
"0 554 CURVE SMOOTH",
"206 554 LINE SMOOTH",
"245 554 OFFCURVE",
"271 547 OFFCURVE",
"271 522 CURVE SMOOTH",
"271 503 OFFCURVE",
"254 462 OFFCURVE",
"254 402 CURVE SMOOTH",
"254 296 OFFCURVE",
"304 224 OFFCURVE",
"386 224 CURVE SMOOTH",
"488 224 OFFCURVE",
"504 334 OFFCURVE",
"494 358 CURVE",
"482 354 LINE",
"515 310 OFFCURVE",
"522 267 OFFCURVE",
"522 236 CURVE SMOOTH",
"522 147 OFFCURVE",
"462 76 OFFCURVE",
"364 76 CURVE SMOOTH",
"207 76 OFFCURVE",
"103 260 OFFCURVE",
"80 432 CURVE SMOOTH",
"78 443 OFFCURVE",
"75 458 OFFCURVE",
"61 458 CURVE SMOOTH",
"48 458 OFFCURVE",
"45 447 OFFCURVE",
"45 436 CURVE SMOOTH",
"45 320 OFFCURVE",
"155 30 OFFCURVE",
"368 30 CURVE SMOOTH"
);
}
);
width = 594;
},
{
layerId = "A309AC34-D742-49E2-8DE7-30304959F2B2";
name = Bold;
paths = (
{
closed = 1;
nodes = (
"480 13 OFFCURVE",
"572 101 OFFCURVE",
"572 226 CURVE SMOOTH",
"572 316 OFFCURVE",
"523 405 OFFCURVE",
"468 405 CURVE SMOOTH",
"437 405 OFFCURVE",
"433 382 OFFCURVE",
"433 365 CURVE SMOOTH",
"433 322 OFFCURVE",
"401 301 OFFCURVE",
"369 301 CURVE SMOOTH",
"330 301 OFFCURVE",
"302 332 OFFCURVE",
"302 382 CURVE SMOOTH",
"302 441 OFFCURVE",
"333 502 OFFCURVE",
"397 502 CURVE SMOOTH",
"593 502 LINE SMOOTH",
"619 502 OFFCURVE",
"639 520 OFFCURVE",
"639 545 CURVE SMOOTH",
"639 569 OFFCURVE",
"619 587 OFFCURVE",
"593 587 CURVE SMOOTH",
"366 587 LINE SMOOTH",
"297 587 OFFCURVE",
"235 522 OFFCURVE",
"235 491 CURVE",
"273 491 LINE",
"273 546 OFFCURVE",
"247 587 OFFCURVE",
"164 587 CURVE SMOOTH",
"0 587 LINE SMOOTH",
"-26 587 OFFCURVE",
"-46 569 OFFCURVE",
"-46 545 CURVE SMOOTH",
"-46 521 OFFCURVE",
"-26 502 OFFCURVE",
"0 502 CURVE SMOOTH",
"164 502 LINE SMOOTH",
"209 502 OFFCURVE",
"220 484 OFFCURVE",
"220 461 CURVE SMOOTH",
"220 436 OFFCURVE",
"208 404 OFFCURVE",
"208 363 CURVE SMOOTH",
"208 267 OFFCURVE",
"276 199 OFFCURVE",
"361 199 CURVE SMOOTH",
"449 199 OFFCURVE",
"490 280 OFFCURVE",
"490 319 CURVE",
"468 309 LINE",
"481 286 OFFCURVE",
"487 257 OFFCURVE",
"487 235 CURVE SMOOTH",
"487 170 OFFCURVE",
"432 118 OFFCURVE",
"358 118 CURVE SMOOTH",
"181 118 OFFCURVE",
"127 310 OFFCURVE",
"110 422 CURVE SMOOTH",
"106 446 OFFCURVE",
"94 468 OFFCURVE",
"66 468 CURVE SMOOTH",
"31 468 OFFCURVE",
"25 436 OFFCURVE",
"25 408 CURVE SMOOTH",
"25 291 OFFCURVE",
"133 13 OFFCURVE",
"360 13 CURVE SMOOTH"
);
}
);
width = 594;
}
);
},
{
color = 9;
glyphname = bDdha;
lastChange = "2016-02-13 06:58:38 +0000";
layers = (
{
layerId = "F2EBC5D5-DDE2-4851-B52F-F2293ECE9CC7";
name = Light;
paths = (
{
closed = 1;
nodes = (
"303 -12 OFFCURVE",
"436 193 OFFCURVE",
"436 307 CURVE SMOOTH",
"436 365 OFFCURVE",
"407 414 OFFCURVE",
"349 414 CURVE SMOOTH",
"307 414 OFFCURVE",
"273 382 OFFCURVE",
"273 338 CURVE SMOOTH",
"273 295 OFFCURVE",
"312 265 OFFCURVE",
"350 265 CURVE SMOOTH",
"375 265 OFFCURVE",
"399 277 OFFCURVE",
"413 306 CURVE",
"395 296 LINE",
"390 194 OFFCURVE",
"261 30 OFFCURVE",
"189 30 CURVE SMOOTH",
"139 30 OFFCURVE",
"140 85 OFFCURVE",
"140 131 CURVE SMOOTH",
"139 500 LINE SMOOTH",
"139 553 OFFCURVE",
"156 554 OFFCURVE",
"200 554 CURVE SMOOTH",
"488 554 LINE SMOOTH",
"499 554 OFFCURVE",
"508 562 OFFCURVE",
"508 571 CURVE SMOOTH",
"508 580 OFFCURVE",
"499 587 OFFCURVE",
"488 587 CURVE SMOOTH",
"167 587 LINE SMOOTH",
"116 587 OFFCURVE",
"100 571 OFFCURVE",
"100 511 CURVE",
"107 535 LINE",
"107 562 OFFCURVE",
"69 587 OFFCURVE",
"22 587 CURVE SMOOTH",
"0 587 LINE SMOOTH",
"-11 587 OFFCURVE",
"-20 580 OFFCURVE",
"-20 571 CURVE SMOOTH",
"-20 562 OFFCURVE",
"-11 554 OFFCURVE",
"0 554 CURVE SMOOTH",
"30 554 LINE SMOOTH",
"75 554 OFFCURVE",
"100 528 OFFCURVE",
"100 474 CURVE SMOOTH",
"100 130 LINE SMOOTH",
"100 83 OFFCURVE",
"94 -12 OFFCURVE",
"189 -12 CURVE SMOOTH"
);
},
{
closed = 1;
nodes = (
"331 297 OFFCURVE",
"313 315 OFFCURVE",
"313 337 CURVE SMOOTH",
"313 359 OFFCURVE",
"331 377 OFFCURVE",
"353 377 CURVE SMOOTH",
"375 377 OFFCURVE",
"393 359 OFFCURVE",
"393 337 CURVE SMOOTH",
"393 315 OFFCURVE",
"375 297 OFFCURVE",
"353 297 CURVE SMOOTH"
);
}
);
width = 488;
},
{
layerId = "A309AC34-D742-49E2-8DE7-30304959F2B2";
name = Bold;
paths = (
{
closed = 1;
nodes = (
"339 -12 OFFCURVE",
"440 191 OFFCURVE",
"440 318 CURVE SMOOTH",
"440 374 OFFCURVE",
"407 442 OFFCURVE",
"325 442 CURVE SMOOTH",
"262 442 OFFCURVE",
"207 400 OFFCURVE",
"207 331 CURVE SMOOTH",
"207 249 OFFCURVE",
"268 218 OFFCURVE",
"316 218 CURVE SMOOTH",
"361 218 OFFCURVE",
"410 258 OFFCURVE",
"410 305 CURVE",
"334 265 LINE",
"334 179 OFFCURVE",
"248 87 OFFCURVE",
"198 87 CURVE SMOOTH",
"171 87 OFFCURVE",
"161 102 OFFCURVE",
"161 154 CURVE SMOOTH",
"161 445 LINE SMOOTH",
"161 501 OFFCURVE",
"186 502 OFFCURVE",
"221 502 CURVE SMOOTH",
"488 502 LINE SMOOTH",
"514 502 OFFCURVE",
"534 520 OFFCURVE",
"534 545 CURVE SMOOTH",
"534 569 OFFCURVE",
"514 587 OFFCURVE",
"488 587 CURVE SMOOTH",
"152 587 LINE SMOOTH",
"116 587 OFFCURVE",
"82 555 OFFCURVE",
"82 521 CURVE",
"95 521 LINE",
"95 555 OFFCURVE",
"65 587 OFFCURVE",
"25 587 CURVE SMOOTH",
"0 587 LINE SMOOTH",
"-26 587 OFFCURVE",
"-46 569 OFFCURVE",
"-46 545 CURVE SMOOTH",
"-46 521 OFFCURVE",
"-26 502 OFFCURVE",
"0 502 CURVE SMOOTH",
"25 502 LINE SMOOTH",
"61 502 OFFCURVE",
"66 481 OFFCURVE",
"66 434 CURVE SMOOTH",
"66 118 LINE SMOOTH",
"66 74 OFFCURVE",
"80 -12 OFFCURVE",
"185 -12 CURVE SMOOTH"
);
},
{
closed = 1;
nodes = (
"301 288 OFFCURVE",
"288 301 OFFCURVE",
"288 317 CURVE SMOOTH",
"288 333 OFFCURVE",
"301 346 OFFCURVE",
"317 346 CURVE SMOOTH",
"333 346 OFFCURVE",
"346 333 OFFCURVE",
"346 317 CURVE SMOOTH",
"346 301 OFFCURVE",
"333 288 OFFCURVE",
"317 288 CURVE SMOOTH"
);
}
);
width = 488;
}
);
},
{
color = 9;
glyphname = bNna;
lastChange = "2016-02-08 13:51:28 +0000";
layers = (
{
layerId = "F2EBC5D5-DDE2-4851-B52F-F2293ECE9CC7";
name = Light;
paths = (
{
closed = 1;
nodes = (
"232 283 OFFCURVE",
"256 318 OFFCURVE",
"256 356 CURVE SMOOTH",
"256 394 OFFCURVE",
"226 429 OFFCURVE",
"183 429 CURVE SMOOTH",
"139 429 OFFCURVE",
"112 393 OFFCURVE",
"112 357 CURVE SMOOTH",
"112 335 OFFCURVE",
"122 313 OFFCURVE",
"144 299 CURVE",
"139 321 LINE",
"100 335 OFFCURVE",
"67 372 OFFCURVE",
"67 431 CURVE SMOOTH",
"67 519 OFFCURVE",
"137 549 OFFCURVE",
"192 549 CURVE SMOOTH",
"321 549 OFFCURVE",
"382 393 OFFCURVE",
"383 303 CURVE",
"395 389 LINE",
"377 489 OFFCURVE",
"307 590 OFFCURVE",
"185 590 CURVE SMOOTH",
"119 590 OFFCURVE",
"22 546 OFFCURVE",
"22 437 CURVE SMOOTH",
"22 328 OFFCURVE",
"119 283 OFFCURVE",
"174 283 CURVE SMOOTH"
);
},
{
closed = 1;
nodes = (
"161 313 OFFCURVE",
"143 331 OFFCURVE",
"143 353 CURVE SMOOTH",
"143 375 OFFCURVE",
"161 393 OFFCURVE",
"183 393 CURVE SMOOTH",
"205 393 OFFCURVE",
"223 375 OFFCURVE",
"223 353 CURVE SMOOTH",
"223 331 OFFCURVE",
"205 313 OFFCURVE",
"183 313 CURVE SMOOTH"
);
},
{
closed = 1;
nodes = (
"414 -12 OFFCURVE",
"423 -1 OFFCURVE",
"423 13 CURVE SMOOTH",
"423 492 LINE SMOOTH",
"423 534 OFFCURVE",
"426 554 OFFCURVE",
"464 554 CURVE SMOOTH",
"524 554 LINE SMOOTH",
"535 554 OFFCURVE",
"544 561 OFFCURVE",
"544 571 CURVE SMOOTH",
"544 580 OFFCURVE",
"535 587 OFFCURVE",
"524 587 CURVE SMOOTH",
"452 587 LINE SMOOTH",
"403 587 OFFCURVE",
"383 558 OFFCURVE",
"383 500 CURVE SMOOTH",
"383 13 LINE SMOOTH",
"383 -1 OFFCURVE",
"392 -12 OFFCURVE",
"403 -12 CURVE SMOOTH"
);
}
);
width = 524;
},
{
layerId = "A309AC34-D742-49E2-8DE7-30304959F2B2";
name = Bold;
paths = (
{
closed = 1;
nodes = (
"262 221 OFFCURVE",
"305 277 OFFCURVE",
"305 329 CURVE SMOOTH",
"305 381 OFFCURVE",
"262 436 OFFCURVE",
"197 436 CURVE SMOOTH",
"139 436 OFFCURVE",
"101 393 OFFCURVE",
"101 345 CURVE SMOOTH",
"101 322 OFFCURVE",
"109 298 OFFCURVE",
"127 277 CURVE",
"148 324 LINE",
"125 347 OFFCURVE",
"116 371 OFFCURVE",
"116 393 CURVE SMOOTH",
"116 444 OFFCURVE",
"165 485 OFFCURVE",
"216 485 CURVE SMOOTH",
"294 485 OFFCURVE",
"363 420 OFFCURVE",
"363 261 CURVE",
"416 305 LINE",
"416 496 OFFCURVE",
"327 590 OFFCURVE",
"212 590 CURVE SMOOTH",
"94 590 OFFCURVE",
"25 500 OFFCURVE",
"25 400 CURVE SMOOTH",
"25 291 OFFCURVE",
"106 221 OFFCURVE",
"188 221 CURVE SMOOTH"
);
},
{
closed = 1;
nodes = (
"172 298 OFFCURVE",
"158 311 OFFCURVE",
"158 327 CURVE SMOOTH",
"158 342 OFFCURVE",
"172 356 OFFCURVE",
"187 356 CURVE SMOOTH",
"203 356 OFFCURVE",
"216 342 OFFCURVE",
"216 327 CURVE SMOOTH",
"216 311 OFFCURVE",
"203 298 OFFCURVE",
"187 298 CURVE SMOOTH"
);
},
{
closed = 1;
nodes = (
"437 -12 OFFCURVE",
"458 12 OFFCURVE",
"458 44 CURVE SMOOTH",
"458 435 LINE SMOOTH",
"458 491 OFFCURVE",
"458 502 OFFCURVE",
"492 502 CURVE SMOOTH",
"524 502 LINE SMOOTH",
"550 502 OFFCURVE",
"570 520 OFFCURVE",
"570 545 CURVE SMOOTH",
"570 569 OFFCURVE",
"550 587 OFFCURVE",
"524 587 CURVE SMOOTH",
"469 587 LINE SMOOTH",
"419 587 OFFCURVE",
"363 558 OFFCURVE",
"363 459 CURVE SMOOTH",
"363 44 LINE SMOOTH",
"363 12 OFFCURVE",
"383 -12 OFFCURVE",
"410 -12 CURVE SMOOTH"
);
}
);
width = 524;
}
);
},
{
color = 9;
glyphname = bTa;
lastChange = "2016-02-09 05:21:15 +0000";
layers = (
{
layerId = "F2EBC5D5-DDE2-4851-B52F-F2293ECE9CC7";
name = Light;
paths = (
{
closed = 1;
nodes = (
"447 57 OFFCURVE",
"513 149 OFFCURVE",
"513 253 CURVE SMOOTH",
"513 363 OFFCURVE",
"436 457 OFFCURVE",
"322 457 CURVE SMOOTH",
"262 457 OFFCURVE",
"216 421 OFFCURVE",
"216 371 CURVE SMOOTH",
"216 325 OFFCURVE",
"251 291 OFFCURVE",
"299 291 CURVE SMOOTH",
"346 291 OFFCURVE",
"372 328 OFFCURVE",
"372 365 CURVE SMOOTH",
"372 399 OFFCURVE",
"349 433 OFFCURVE",
"298 434 CURVE",
"305 428 LINE",
"402 435 OFFCURVE",
"478 363 OFFCURVE",
"478 257 CURVE SMOOTH",
"478 163 OFFCURVE",
"407 102 OFFCURVE",
"322 102 CURVE SMOOTH",
"190 102 OFFCURVE",
"98 243 OFFCURVE",
"61 422 CURVE SMOOTH",
"59 432 OFFCURVE",
"52 438 OFFCURVE",
"44 438 CURVE SMOOTH",
"34 438 OFFCURVE",
"27 429 OFFCURVE",
"27 420 CURVE SMOOTH",
"27 379 OFFCURVE",
"104 57 OFFCURVE",
"331 57 CURVE SMOOTH"
);
},
{
closed = 1;
nodes = (
"275 331 OFFCURVE",
"256 347 OFFCURVE",
"256 372 CURVE SMOOTH",
"256 393 OFFCURVE",
"275 411 OFFCURVE",
"296 411 CURVE SMOOTH",
"319 411 OFFCURVE",
"336 393 OFFCURVE",
"336 372 CURVE SMOOTH",
"336 347 OFFCURVE",
"319 331 OFFCURVE",
"296 331 CURVE SMOOTH"
);
},
{
closed = 1;
nodes = (
"567 554 LINE SMOOTH",
"578 554 OFFCURVE",
"587 562 OFFCURVE",
"587 571 CURVE SMOOTH",
"587 580 OFFCURVE",
"578 587 OFFCURVE",
"567 587 CURVE SMOOTH",
"0 587 LINE SMOOTH",
"-11 587 OFFCURVE",
"-20 580 OFFCURVE",
"-20 571 CURVE SMOOTH",
"-20 562 OFFCURVE",
"-11 554 OFFCURVE",
"0 554 CURVE SMOOTH"
);
}
);
width = 567;
},
{
layerId = "A309AC34-D742-49E2-8DE7-30304959F2B2";
name = Bold;
paths = (
{
closed = 1;
nodes = (
"466 21 OFFCURVE",
"543 137 OFFCURVE",
"543 245 CURVE SMOOTH",
"543 369 OFFCURVE",
"442 466 OFFCURVE",
"329 466 CURVE SMOOTH",
"250 466 OFFCURVE",
"185 419 OFFCURVE",
"185 344 CURVE SMOOTH",
"185 272 OFFCURVE",
"245 224 OFFCURVE",
"306 224 CURVE SMOOTH",
"369 224 OFFCURVE",
"419 276 OFFCURVE",
"419 335 CURVE SMOOTH",
"419 363 OFFCURVE",
"408 392 OFFCURVE",
"380 419 CURVE",
"339 393 LINE",
"429 363 OFFCURVE",
"448 299 OFFCURVE",
"448 255 CURVE SMOOTH",
"448 184 OFFCURVE",
"399 126 OFFCURVE",
"320 126 CURVE SMOOTH",
"195 126 OFFCURVE",
"128 262 OFFCURVE",
"100 382 CURVE SMOOTH",
"93 411 OFFCURVE",
"86 440 OFFCURVE",
"55 440 CURVE SMOOTH",
"29 440 OFFCURVE",
"15 419 OFFCURVE",
"15 384 CURVE SMOOTH",
"15 275 OFFCURVE",
"108 21 OFFCURVE",
"330 21 CURVE SMOOTH"
);
},
{
closed = 1;
nodes = (
"299 319 OFFCURVE",
"286 332 OFFCURVE",
"286 348 CURVE SMOOTH",
"286 363 OFFCURVE",
"299 377 OFFCURVE",
"315 377 CURVE SMOOTH",
"330 377 OFFCURVE",
"344 363 OFFCURVE",
"344 348 CURVE SMOOTH",
"344 332 OFFCURVE",
"330 319 OFFCURVE",
"315 319 CURVE SMOOTH"
);
},
{
closed = 1;
nodes = (
"567 502 LINE SMOOTH",
"593 502 OFFCURVE",
"613 520 OFFCURVE",
"613 545 CURVE SMOOTH",
"613 569 OFFCURVE",
"593 587 OFFCURVE",
"567 587 CURVE SMOOTH",
"0 587 LINE SMOOTH",
"-26 587 OFFCURVE",
"-46 569 OFFCURVE",
"-46 545 CURVE SMOOTH",
"-46 521 OFFCURVE",
"-26 502 OFFCURVE",
"0 502 CURVE SMOOTH"
);
}
);
width = 567;
}
);
},
{
color = 9;
glyphname = bTha;
lastChange = "2016-03-08 04:34:46 +0000";
layers = (
{
layerId = "F2EBC5D5-DDE2-4851-B52F-F2293ECE9CC7";
name = Light;
paths = (
{
closed = 1;
nodes = (
"409 79 LINE",
"371 179 OFFCURVE",
"188 284 OFFCURVE",
"105 284 CURVE",
"116 272 LINE",
"219 272 OFFCURVE",
"325 338 OFFCURVE",
"325 443 CURVE SMOOTH",
"325 539 OFFCURVE",
"254 590 OFFCURVE",
"178 590 CURVE SMOOTH",
"105 590 OFFCURVE",
"30 544 OFFCURVE",
"30 481 CURVE SMOOTH",
"30 443 OFFCURVE",
"58 411 OFFCURVE",
"101 411 CURVE SMOOTH",
"143 411 OFFCURVE",
"168 443 OFFCURVE",
"168 476 CURVE SMOOTH",
"168 512 OFFCURVE",
"137 539 OFFCURVE",
"103 539 CURVE",
"92 522 LINE",
"118 542 OFFCURVE",
"150 553 OFFCURVE",
"181 553 CURVE SMOOTH",
"237 553 OFFCURVE",
"288 517 OFFCURVE",
"288 448 CURVE SMOOTH",
"288 355 OFFCURVE",
"188 309 OFFCURVE",
"106 309 CURVE SMOOTH",
"87 309 OFFCURVE",
"71 302 OFFCURVE",
"71 283 CURVE SMOOTH",
"71 270 OFFCURVE",
"81 263 OFFCURVE",
"93 259 CURVE SMOOTH",
"184 226 OFFCURVE",
"381 144 OFFCURVE",
"381 41 CURVE"
);
},
{
closed = 1;
nodes = (
"81 443 OFFCURVE",
"63 457 OFFCURVE",
"63 478 CURVE SMOOTH",
"63 498 OFFCURVE",
"80 513 OFFCURVE",
"99 513 CURVE SMOOTH",
"117 513 OFFCURVE",
"133 498 OFFCURVE",
"133 478 CURVE SMOOTH",
"133 457 OFFCURVE",
"116 443 OFFCURVE",
"99 443 CURVE SMOOTH"
);
},
{
closed = 1;
nodes = (
"412 -12 OFFCURVE",
"421 -1 OFFCURVE",
"421 13 CURVE SMOOTH",
"421 470 LINE SMOOTH",
"421 544 OFFCURVE",
"428 554 OFFCURVE",
"462 554 CURVE SMOOTH",
"522 554 LINE SMOOTH",
"533 554 OFFCURVE",
"542 561 OFFCURVE",
"542 571 CURVE SMOOTH",
"542 580 OFFCURVE",
"533 587 OFFCURVE",
"522 587 CURVE SMOOTH",
"450 587 LINE SMOOTH",
"401 587 OFFCURVE",
"381 558 OFFCURVE",
"381 482 CURVE SMOOTH",
"381 13 LINE SMOOTH",
"381 -1 OFFCURVE",
"390 -12 OFFCURVE",
"401 -12 CURVE SMOOTH"
);
}
);
width = 522;
},
{
layerId = "A309AC34-D742-49E2-8DE7-30304959F2B2";
name = Bold;
paths = (
{
closed = 1;
nodes = (
"418 90 LINE",
"386 207 OFFCURVE",
"229 273 OFFCURVE",
"142 273 CURVE",
"194 236 LINE",
"274 271 OFFCURVE",
"322 338 OFFCURVE",
"322 422 CURVE SMOOTH",
"322 540 OFFCURVE",
"226 589 OFFCURVE",
"149 589 CURVE SMOOTH",
"60 589 OFFCURVE",
"-3 523 OFFCURVE",
"-3 458 CURVE SMOOTH",
"-3 407 OFFCURVE",
"37 358 OFFCURVE",
"102 358 CURVE SMOOTH",
"167 358 OFFCURVE",
"206 407 OFFCURVE",
"206 454 CURVE SMOOTH",
"206 490 OFFCURVE",
"183 550 OFFCURVE",
"102 550 CURVE",
"78 501 LINE",
"105 517 OFFCURVE",
"129 523 OFFCURVE",
"149 523 CURVE SMOOTH",
"210 523 OFFCURVE",
"237 471 OFFCURVE",
"237 425 CURVE SMOOTH",
"237 338 OFFCURVE",
"131 315 OFFCURVE",
"90 315 CURVE SMOOTH",
"55 315 OFFCURVE",
"28 299 OFFCURVE",
"28 262 CURVE SMOOTH",
"28 234 OFFCURVE",
"47 220 OFFCURVE",
"75 211 CURVE SMOOTH",
"122 196 OFFCURVE",
"361 142 OFFCURVE",
"361 56 CURVE"
);
},
{
closed = 1;
nodes = (
"102 440 OFFCURVE",
"84 449 OFFCURVE",
"84 469 CURVE SMOOTH",
"84 486 OFFCURVE",
"96 498 OFFCURVE",
"113 498 CURVE SMOOTH",
"129 498 OFFCURVE",
"142 487 OFFCURVE",
"142 470 CURVE SMOOTH",
"142 451 OFFCURVE",
"128 440 OFFCURVE",
"114 440 CURVE SMOOTH"
);
},
{
closed = 1;
nodes = (
"435 -12 OFFCURVE",
"456 12 OFFCURVE",
"456 44 CURVE SMOOTH",
"456 435 LINE SMOOTH",
"456 491 OFFCURVE",
"456 502 OFFCURVE",
"490 502 CURVE SMOOTH",
"522 502 LINE SMOOTH",
"548 502 OFFCURVE",
"568 520 OFFCURVE",
"568 545 CURVE SMOOTH",
"568 569 OFFCURVE",
"548 587 OFFCURVE",
"522 587 CURVE SMOOTH",
"467 587 LINE SMOOTH",
"405 587 OFFCURVE",
"361 544 OFFCURVE",
"361 457 CURVE SMOOTH",
"361 44 LINE SMOOTH",
"361 12 OFFCURVE",
"381 -12 OFFCURVE",
"408 -12 CURVE SMOOTH"
);
}
);
width = 522;
}
);
},
{
color = 9;
glyphname = bDa;
lastChange = "2016-03-08 04:39:44 +0000";
layers = (
{
layerId = "F2EBC5D5-DDE2-4851-B52F-F2293ECE9CC7";
name = Light;
paths = (
{
closed = 1;
nodes = (
"418 -13 OFFCURVE",
"427 -1 OFFCURVE",
"427 14 CURVE SMOOTH",
"427 79 LINE SMOOTH",
"427 178 OFFCURVE",
"415 216 OFFCURVE",
"415 267 CURVE SMOOTH",
"415 335 OFFCURVE",
"444 387 OFFCURVE",
"444 415 CURVE SMOOTH",
"444 427 OFFCURVE",
"439 437 OFFCURVE",
"426 437 CURVE SMOOTH",
"388 437 OFFCURVE",
"202 317 OFFCURVE",
"101 203 CURVE",
"126 184 LINE",
"126 480 LINE SMOOTH",
"126 520 OFFCURVE",
"127 554 OFFCURVE",
"176 554 CURVE SMOOTH",
"528 554 LINE SMOOTH",
"539 554 OFFCURVE",
"548 562 OFFCURVE",
"548 571 CURVE SMOOTH",
"548 580 OFFCURVE",
"539 587 OFFCURVE",
"528 587 CURVE SMOOTH",
"161 587 LINE SMOOTH",
"123 587 OFFCURVE",
"91 566 OFFCURVE",
"90 520 CURVE",
"104 530 LINE",
"105 561 OFFCURVE",
"70 587 OFFCURVE",
"25 587 CURVE SMOOTH",
"0 587 LINE SMOOTH",
"-11 587 OFFCURVE",
"-20 580 OFFCURVE",
"-20 571 CURVE SMOOTH",
"-20 562 OFFCURVE",
"-11 554 OFFCURVE",
"0 554 CURVE SMOOTH",
"23 554 LINE SMOOTH",
"89 554 OFFCURVE",
"86 494 OFFCURVE",
"86 457 CURVE SMOOTH",
"86 180 LINE SMOOTH",
"86 156 OFFCURVE",
"96 152 OFFCURVE",
"104 152 CURVE SMOOTH",
"120 152 OFFCURVE",
"130 170 OFFCURVE",
"143 183 CURVE SMOOTH",
"200 244 OFFCURVE",
"339 368 OFFCURVE",
"423 396 CURVE",
"415 415 LINE",
"384 361 OFFCURVE",
"377 320 OFFCURVE",
"377 277 CURVE SMOOTH",
"377 216 OFFCURVE",
"387 179 OFFCURVE",
"387 79 CURVE SMOOTH",
"387 13 LINE SMOOTH",
"387 -2 OFFCURVE",
"396 -13 OFFCURVE",
"407 -13 CURVE SMOOTH"
);
}
);
width = 528;
},
{
layerId = "A309AC34-D742-49E2-8DE7-30304959F2B2";
name = Bold;
paths = (
{
closed = 1;
nodes = (
"450 -42 OFFCURVE",
"462 -10 OFFCURVE",
"462 21 CURVE SMOOTH",
"462 39 LINE SMOOTH",
"462 127 OFFCURVE",
"449 178 OFFCURVE",
"449 237 CURVE SMOOTH",
"449 306 OFFCURVE",
"474 375 OFFCURVE",
"474 407 CURVE SMOOTH",
"474 428 OFFCURVE",
"464 451 OFFCURVE",
"436 451 CURVE SMOOTH",
"383 451 OFFCURVE",
"263 370 OFFCURVE",
"166 273 CURVE",
"185 255 LINE",
"185 406 LINE SMOOTH",
"185 455 OFFCURVE",
"183 502 OFFCURVE",
"233 502 CURVE SMOOTH",
"528 502 LINE SMOOTH",
"554 502 OFFCURVE",
"574 520 OFFCURVE",
"574 545 CURVE SMOOTH",
"574 569 OFFCURVE",
"554 587 OFFCURVE",
"528 587 CURVE SMOOTH",
"202 587 LINE SMOOTH",
"148 587 OFFCURVE",
"119 546 OFFCURVE",
"119 521 CURVE",
"132 521 LINE",
"132 555 OFFCURVE",
"84 587 OFFCURVE",
"47 587 CURVE SMOOTH",
"0 587 LINE SMOOTH",
"-26 587 OFFCURVE",
"-46 569 OFFCURVE",
"-46 545 CURVE SMOOTH",
"-46 521 OFFCURVE",
"-26 502 OFFCURVE",
"0 502 CURVE SMOOTH",
"49 502 LINE SMOOTH",
"96 502 OFFCURVE",
"90 463 OFFCURVE",
"90 425 CURVE SMOOTH",
"90 201 LINE SMOOTH",
"90 162 OFFCURVE",
"107 144 OFFCURVE",
"137 144 CURVE SMOOTH",
"166 144 OFFCURVE",
"185 160 OFFCURVE",
"234 209 CURVE SMOOTH",
"285 259 OFFCURVE",
"356 319 OFFCURVE",
"402 351 CURVE",
"399 357 LINE",
"363 331 OFFCURVE",
"357 259 OFFCURVE",
"357 227 CURVE SMOOTH",
"357 176 OFFCURVE",
"367 143 OFFCURVE",
"367 56 CURVE SMOOTH",
"367 21 LINE SMOOTH",
"367 -15 OFFCURVE",
"386 -42 OFFCURVE",
"417 -42 CURVE SMOOTH"
);
}
);
width = 528;
}
);
},
